<svg width="46" height="46" viewBox="0 0 46 46" fill="none" xmlns="http://www.w3.org/2000/svg">
<mask id="path-1-inside-1_803_40245" fill="white">
<path fill-rule="evenodd" clip-rule="evenodd" d="M19.7062 17.2417C20.5778 16.37 21.7595 15.8796 22.9922 15.8781C24.2258 15.8781 25.409 16.3678 26.2818 17.2396C27.1547 18.1114 27.6458 19.2941 27.6473 20.5278C27.645 21.7613 27.1537 22.9435 26.281 23.8151C25.4083 24.6868 24.2256 25.1767 22.9922 25.1775C21.7595 25.176 20.5778 24.6857 19.7062 23.814C18.8346 22.9424 18.3442 21.7605 18.3427 20.5278C18.3442 19.2951 18.8346 18.1133 19.7062 17.2417ZM21.6119 21.909C21.9778 22.2755 22.4742 22.4819 22.9922 22.4826V22.4969C23.2502 22.4969 23.5057 22.4458 23.7439 22.3467C23.9821 22.2477 24.1985 22.1025 24.3804 21.9195C24.5623 21.7364 24.7063 21.5193 24.8039 21.2805C24.9016 21.0417 24.9512 20.7858 24.9497 20.5278C24.95 20.2706 24.8997 20.016 24.8014 19.7783C24.7032 19.5406 24.559 19.3245 24.3772 19.1427C24.1953 18.9609 23.9794 18.8167 23.7417 18.7185C23.504 18.6202 23.2493 18.5698 22.9922 18.5701C22.7355 18.5705 22.4813 18.6216 22.2443 18.7201C22.0073 18.8187 21.7921 18.963 21.6109 19.1448C21.4296 19.3265 21.286 19.5423 21.1881 19.7796C21.0902 20.0169 21.04 20.2711 21.0404 20.5278C21.0404 21.0457 21.2459 21.5425 21.6119 21.909Z"/>
<path fill-rule="evenodd" clip-rule="evenodd" d="M42.1793 21.6596H44.6483L44.6512 21.6511C45.0089 21.6511 45.352 21.7932 45.6049 22.0462C45.8579 22.2992 46 22.6422 46 22.9999C46 23.3577 45.8579 23.7009 45.6049 23.9539C45.352 24.2068 45.0089 24.3489 44.6512 24.3489H42.1793C41.847 28.9683 39.8614 33.3132 36.5865 36.5878C33.3116 39.8625 28.9665 41.8475 24.3474 42.179V44.651C24.3478 44.8281 24.3132 45.0034 24.2458 45.1671C24.1783 45.3307 24.0792 45.4794 23.9542 45.6047C23.8292 45.73 23.6806 45.8293 23.5172 45.8972C23.3537 45.965 23.1784 46 23.0014 46C22.8242 46.0004 22.6486 45.9657 22.4848 45.898C22.321 45.8303 22.1722 45.731 22.0468 45.6056C21.9215 45.4803 21.8222 45.3314 21.7545 45.1676C21.6869 45.0038 21.6522 44.8283 21.6526 44.651V42.179C17.033 41.8486 12.6873 39.864 9.41216 36.5892C6.13701 33.3144 4.1519 28.9687 3.82071 24.3489H1.34882C0.991085 24.3489 0.648021 24.2068 0.395061 23.9539C0.142119 23.7009 2.8761e-06 23.3577 2.8761e-06 22.9999C-0.000363403 22.8227 0.0342587 22.6472 0.101898 22.4833C0.169555 22.3195 0.268904 22.1707 0.394224 22.0453C0.519544 21.92 0.668375 21.8207 0.832189 21.753C0.996003 21.6854 1.17159 21.6508 1.34882 21.6511H3.82071C4.15183 17.031 6.13685 12.685 9.41195 9.40969C12.687 6.1344 17.0328 4.14933 21.6526 3.81819V1.34898C21.6519 1.17162 21.6862 0.995862 21.7537 0.831829C21.8213 0.667866 21.9206 0.518974 22.046 0.393524C22.1714 0.268145 22.3204 0.16872 22.4843 0.101181C22.6483 0.0336425 22.8241 -0.000754922 23.0014 1.25657e-05C23.1784 1.25657e-05 23.3537 0.0350379 23.5172 0.102856C23.6806 0.170674 23.8292 0.270029 23.9542 0.395338C24.0792 0.520648 24.1783 0.669331 24.2458 0.832946C24.3132 0.99663 24.3478 1.17197 24.3474 1.34898V3.8267C28.9668 4.15903 33.3119 6.14459 36.5868 9.41959C39.8616 12.6947 41.847 17.04 42.1793 21.6596ZM35.7581 21.6596H39.4559C39.128 17.7569 37.4288 14.0963 34.6596 11.3269C31.8903 8.5575 28.2299 6.85814 24.3274 6.53021V10.2282C27.2528 10.5387 29.9833 11.8429 32.0634 13.9232C34.1436 16.0035 35.4477 18.7341 35.7581 21.6596ZM19.3265 32.4738C20.497 32.9299 21.7423 33.1634 22.9986 33.1624H22.9939C24.2478 33.162 25.4907 32.9286 26.6592 32.4738V29.3016C26.6513 29.1788 26.597 29.0634 26.5073 28.9791C26.4177 28.8947 26.2994 28.8477 26.1763 28.8472H19.7808C19.661 28.848 19.5463 28.8956 19.4614 28.9801C19.3764 29.0645 19.328 29.1788 19.3265 29.2986V32.4738ZM26.1992 26.1522C27.0329 26.1525 27.8332 26.4798 28.4282 27.0639V27.0668C28.7278 27.3579 28.9659 27.7062 29.1283 28.091C29.2908 28.4759 29.3743 28.8896 29.374 29.3073V30.9105C30.5563 29.9613 31.5105 28.7587 32.1664 27.3916C32.8222 26.0245 33.1628 24.5277 33.1633 23.0114C33.161 20.3188 32.0907 17.7372 30.1872 15.833C28.2836 13.9288 25.7024 12.8577 23.01 12.8546C20.3174 12.8577 17.7359 13.9288 15.8318 15.8329C13.9279 17.737 12.8569 20.3185 12.8538 23.0114C12.8537 24.5274 13.1939 26.0243 13.8492 27.3914C14.5046 28.7585 15.4583 29.9611 16.6402 30.9105V29.3044C16.6397 28.8903 16.721 28.4803 16.8794 28.0977C17.0378 27.7152 17.2702 27.3678 17.5633 27.0753C17.8554 26.7826 18.2024 26.5503 18.5844 26.392C18.9664 26.2336 19.3759 26.1521 19.7894 26.1522H26.1992ZM21.6612 10.2282V6.53021C17.7574 6.85479 14.0952 8.55303 11.3253 11.3231C8.55534 14.0932 6.85722 17.7556 6.53264 21.6596H10.2305C10.5409 18.7341 11.845 16.0035 13.9251 13.9232C16.0053 11.8429 18.7358 10.5387 21.6612 10.2282ZM10.2305 24.3574H6.53264V24.3603C6.86055 28.2632 8.55977 31.9237 11.329 34.6931C14.0983 37.4625 17.7586 39.1618 21.6612 39.4897V35.7888C18.7358 35.4784 16.0053 34.1743 13.9251 32.094C11.845 30.0137 10.5409 27.2829 10.2305 24.3574ZM24.356 35.786V39.487C24.3521 39.4872 24.3483 39.4867 24.3445 39.487H24.356C28.2598 39.1629 31.9229 37.4657 34.6953 34.6978C37.4704 31.9273 39.1734 28.2624 39.5016 24.3546H35.7867C35.4762 27.2801 34.1721 30.0109 32.092 32.0912C30.0118 34.1715 27.2813 35.4756 24.356 35.786Z"/>
</mask>
<path fill-rule="evenodd" clip-rule="evenodd" d="M19.7062 17.2417C20.5778 16.37 21.7595 15.8796 22.9922 15.8781C24.2258 15.8781 25.409 16.3678 26.2818 17.2396C27.1547 18.1114 27.6458 19.2941 27.6473 20.5278C27.645 21.7613 27.1537 22.9435 26.281 23.8151C25.4083 24.6868 24.2256 25.1767 22.9922 25.1775C21.7595 25.176 20.5778 24.6857 19.7062 23.814C18.8346 22.9424 18.3442 21.7605 18.3427 20.5278C18.3442 19.2951 18.8346 18.1133 19.7062 17.2417ZM21.6119 21.909C21.9778 22.2755 22.4742 22.4819 22.9922 22.4826V22.4969C23.2502 22.4969 23.5057 22.4458 23.7439 22.3467C23.9821 22.2477 24.1985 22.1025 24.3804 21.9195C24.5623 21.7364 24.7063 21.5193 24.8039 21.2805C24.9016 21.0417 24.9512 20.7858 24.9497 20.5278C24.95 20.2706 24.8997 20.016 24.8014 19.7783C24.7032 19.5406 24.559 19.3245 24.3772 19.1427C24.1953 18.9609 23.9794 18.8167 23.7417 18.7185C23.504 18.6202 23.2493 18.5698 22.9922 18.5701C22.7355 18.5705 22.4813 18.6216 22.2443 18.7201C22.0073 18.8187 21.7921 18.963 21.6109 19.1448C21.4296 19.3265 21.286 19.5423 21.1881 19.7796C21.0902 20.0169 21.04 20.2711 21.0404 20.5278C21.0404 21.0457 21.2459 21.5425 21.6119 21.909Z" fill="white"/>
<path fill-rule="evenodd" clip-rule="evenodd" d="M42.1793 21.6596H44.6483L44.6512 21.6511C45.0089 21.6511 45.352 21.7932 45.6049 22.0462C45.8579 22.2992 46 22.6422 46 22.9999C46 23.3577 45.8579 23.7009 45.6049 23.9539C45.352 24.2068 45.0089 24.3489 44.6512 24.3489H42.1793C41.847 28.9683 39.8614 33.3132 36.5865 36.5878C33.3116 39.8625 28.9665 41.8475 24.3474 42.179V44.651C24.3478 44.8281 24.3132 45.0034 24.2458 45.1671C24.1783 45.3307 24.0792 45.4794 23.9542 45.6047C23.8292 45.73 23.6806 45.8293 23.5172 45.8972C23.3537 45.965 23.1784 46 23.0014 46C22.8242 46.0004 22.6486 45.9657 22.4848 45.898C22.321 45.8303 22.1722 45.731 22.0468 45.6056C21.9215 45.4803 21.8222 45.3314 21.7545 45.1676C21.6869 45.0038 21.6522 44.8283 21.6526 44.651V42.179C17.033 41.8486 12.6873 39.864 9.41216 36.5892C6.13701 33.3144 4.1519 28.9687 3.82071 24.3489H1.34882C0.991085 24.3489 0.648021 24.2068 0.395061 23.9539C0.142119 23.7009 2.8761e-06 23.3577 2.8761e-06 22.9999C-0.000363403 22.8227 0.0342587 22.6472 0.101898 22.4833C0.169555 22.3195 0.268904 22.1707 0.394224 22.0453C0.519544 21.92 0.668375 21.8207 0.832189 21.753C0.996003 21.6854 1.17159 21.6508 1.34882 21.6511H3.82071C4.15183 17.031 6.13685 12.685 9.41195 9.40969C12.687 6.1344 17.0328 4.14933 21.6526 3.81819V1.34898C21.6519 1.17162 21.6862 0.995862 21.7537 0.831829C21.8213 0.667866 21.9206 0.518974 22.046 0.393524C22.1714 0.268145 22.3204 0.16872 22.4843 0.101181C22.6483 0.0336425 22.8241 -0.000754922 23.0014 1.25657e-05C23.1784 1.25657e-05 23.3537 0.0350379 23.5172 0.102856C23.6806 0.170674 23.8292 0.270029 23.9542 0.395338C24.0792 0.520648 24.1783 0.669331 24.2458 0.832946C24.3132 0.99663 24.3478 1.17197 24.3474 1.34898V3.8267C28.9668 4.15903 33.3119 6.14459 36.5868 9.41959C39.8616 12.6947 41.847 17.04 42.1793 21.6596ZM35.7581 21.6596H39.4559C39.128 17.7569 37.4288 14.0963 34.6596 11.3269C31.8903 8.5575 28.2299 6.85814 24.3274 6.53021V10.2282C27.2528 10.5387 29.9833 11.8429 32.0634 13.9232C34.1436 16.0035 35.4477 18.7341 35.7581 21.6596ZM19.3265 32.4738C20.497 32.9299 21.7423 33.1634 22.9986 33.1624H22.9939C24.2478 33.162 25.4907 32.9286 26.6592 32.4738V29.3016C26.6513 29.1788 26.597 29.0634 26.5073 28.9791C26.4177 28.8947 26.2994 28.8477 26.1763 28.8472H19.7808C19.661 28.848 19.5463 28.8956 19.4614 28.9801C19.3764 29.0645 19.328 29.1788 19.3265 29.2986V32.4738ZM26.1992 26.1522C27.0329 26.1525 27.8332 26.4798 28.4282 27.0639V27.0668C28.7278 27.3579 28.9659 27.7062 29.1283 28.091C29.2908 28.4759 29.3743 28.8896 29.374 29.3073V30.9105C30.5563 29.9613 31.5105 28.7587 32.1664 27.3916C32.8222 26.0245 33.1628 24.5277 33.1633 23.0114C33.161 20.3188 32.0907 17.7372 30.1872 15.833C28.2836 13.9288 25.7024 12.8577 23.01 12.8546C20.3174 12.8577 17.7359 13.9288 15.8318 15.8329C13.9279 17.737 12.8569 20.3185 12.8538 23.0114C12.8537 24.5274 13.1939 26.0243 13.8492 27.3914C14.5046 28.7585 15.4583 29.9611 16.6402 30.9105V29.3044C16.6397 28.8903 16.721 28.4803 16.8794 28.0977C17.0378 27.7152 17.2702 27.3678 17.5633 27.0753C17.8554 26.7826 18.2024 26.5503 18.5844 26.392C18.9664 26.2336 19.3759 26.1521 19.7894 26.1522H26.1992ZM21.6612 10.2282V6.53021C17.7574 6.85479 14.0952 8.55303 11.3253 11.3231C8.55534 14.0932 6.85722 17.7556 6.53264 21.6596H10.2305C10.5409 18.7341 11.845 16.0035 13.9251 13.9232C16.0053 11.8429 18.7358 10.5387 21.6612 10.2282ZM10.2305 24.3574H6.53264V24.3603C6.86055 28.2632 8.55977 31.9237 11.329 34.6931C14.0983 37.4625 17.7586 39.1618 21.6612 39.4897V35.7888C18.7358 35.4784 16.0053 34.1743 13.9251 32.094C11.845 30.0137 10.5409 27.2829 10.2305 24.3574ZM24.356 35.786V39.487C24.3521 39.4872 24.3483 39.4867 24.3445 39.487H24.356C28.2598 39.1629 31.9229 37.4657 34.6953 34.6978C37.4704 31.9273 39.1734 28.2624 39.5016 24.3546H35.7867C35.4762 27.2801 34.1721 30.0109 32.092 32.0912C30.0118 34.1715 27.2813 35.4756 24.356 35.786Z" fill="white"/>
<path d="M44.6483 21.6596V21.9596H44.864L44.9327 21.7552L44.6483 21.6596ZM42.1793 21.6596L41.8801 21.6811L41.9001 21.9596H42.1793V21.6596ZM44.6512 21.6511V21.3511H44.4355L44.3668 21.5555L44.6512 21.6511ZM45.6049 22.0462L45.8171 21.834L45.8171 21.834L45.6049 22.0462ZM45.6049 23.9539L45.3928 23.7417L45.3928 23.7417L45.6049 23.9539ZM42.1793 24.3489V24.0489H41.9001L41.8801 24.3274L42.1793 24.3489ZM36.5865 36.5878L36.3744 36.3757L36.3744 36.3757L36.5865 36.5878ZM24.3474 42.179L24.3259 41.8798L24.0474 41.8998V42.179H24.3474ZM24.3474 44.651H24.0474L24.0474 44.6517L24.3474 44.651ZM24.2458 45.1671L23.9684 45.0527L23.9684 45.0527L24.2458 45.1671ZM23.0014 46V45.7H23.0007L23.0014 46ZM21.6526 44.651L21.9526 44.6517V44.651H21.6526ZM21.6526 42.179H21.9526V41.8997L21.674 41.8798L21.6526 42.179ZM3.82071 24.3489L4.11995 24.3274L4.09998 24.0489H3.82071V24.3489ZM0.395061 23.9539L0.607207 23.7417L0.607185 23.7417L0.395061 23.9539ZM2.8761e-06 22.9999H0.300004L0.300002 22.9993L2.8761e-06 22.9999ZM0.101898 22.4833L-0.175386 22.3688L-0.175396 22.3689L0.101898 22.4833ZM0.394224 22.0453L0.1821 21.8332L0.182041 21.8332L0.394224 22.0453ZM0.832189 21.753L0.717739 21.4757L0.717638 21.4757L0.832189 21.753ZM1.34882 21.6511L1.34823 21.9511H1.34882V21.6511ZM3.82071 21.6511V21.9511H4.09998L4.11995 21.6726L3.82071 21.6511ZM21.6526 3.81819L21.6741 4.11742L21.9526 4.09746V3.81819H21.6526ZM21.6526 1.34898H21.9526L21.9526 1.34771L21.6526 1.34898ZM21.7537 0.831829L21.4763 0.7176L21.4763 0.717641L21.7537 0.831829ZM22.046 0.393524L21.8339 0.181369L21.8338 0.181428L22.046 0.393524ZM23.0014 1.25657e-05L23.0001 0.300013H23.0014V1.25657e-05ZM24.2458 0.832946L24.5231 0.7186L24.5231 0.718584L24.2458 0.832946ZM24.3474 1.34898L24.0474 1.34833V1.34898H24.3474ZM24.3474 3.8267H24.0474V4.1059L24.3259 4.12593L24.3474 3.8267ZM36.5868 9.41959L36.7989 9.20747V9.20747L36.5868 9.41959ZM39.4559 21.6596V21.9596H39.7822L39.7549 21.6345L39.4559 21.6596ZM35.7581 21.6596L35.4598 21.6913L35.4882 21.9596H35.7581V21.6596ZM34.6596 11.3269L34.8717 11.1147L34.8717 11.1147L34.6596 11.3269ZM24.3274 6.53021L24.3525 6.23127L24.0274 6.20395V6.53021H24.3274ZM24.3274 10.2282H24.0274V10.4981L24.2957 10.5266L24.3274 10.2282ZM32.0634 13.9232L32.2756 13.7111V13.7111L32.0634 13.9232ZM22.9986 33.1624L22.9988 33.4624L22.9986 32.8624V33.1624ZM19.3265 32.4738H19.0265V32.6789L19.2175 32.7533L19.3265 32.4738ZM22.9939 33.1624L22.9938 32.8624L22.9939 33.4624V33.1624ZM26.6592 32.4738L26.768 32.7534L26.9592 32.679V32.4738H26.6592ZM26.6592 29.3016H26.9592V29.2919L26.9586 29.2822L26.6592 29.3016ZM26.1763 28.8472L26.1775 28.5472H26.1763V28.8472ZM19.7808 28.8472V28.5472L19.7789 28.5472L19.7808 28.8472ZM19.4614 28.9801L19.2499 28.7672L19.2499 28.7673L19.4614 28.9801ZM19.3265 29.2986L19.0265 29.2949V29.2986H19.3265ZM28.4282 27.0639H28.7282V26.938L28.6383 26.8498L28.4282 27.0639ZM26.1992 26.1522L26.1993 25.8522H26.1992V26.1522ZM28.4282 27.0668H28.1282V27.1936L28.2191 27.2819L28.4282 27.0668ZM29.1283 28.091L28.852 28.2077L28.852 28.2077L29.1283 28.091ZM29.374 29.3073L29.074 29.3071V29.3073H29.374ZM29.374 30.9105H29.074V31.5361L29.5618 31.1444L29.374 30.9105ZM33.1633 23.0114L33.4633 23.0115V23.0111L33.1633 23.0114ZM30.1872 15.833L29.975 16.0451L30.1872 15.833ZM23.01 12.8546L23.0104 12.5546H23.0097L23.01 12.8546ZM15.8318 15.8329L15.6197 15.6207L15.6197 15.6207L15.8318 15.8329ZM12.8538 23.0114L12.5538 23.011V23.0114L12.8538 23.0114ZM16.6402 30.9105L16.4524 31.1444L16.9402 31.5363V30.9105H16.6402ZM16.6402 29.3044H16.9402V29.304L16.6402 29.3044ZM16.8794 28.0977L16.6022 27.983L16.6022 27.983L16.8794 28.0977ZM17.5633 27.0753L17.7752 27.2876L17.7756 27.2872L17.5633 27.0753ZM19.7894 26.1522L19.7893 26.4522H19.7894V26.1522ZM21.6612 6.53021H21.9612V6.20424L21.6363 6.23125L21.6612 6.53021ZM21.6612 10.2282L21.6928 10.5266L21.9612 10.4981V10.2282H21.6612ZM6.53264 21.6596L6.23368 21.6348L6.20667 21.9596H6.53264V21.6596ZM10.2305 21.6596V21.9596H10.5003L10.5288 21.6913L10.2305 21.6596ZM6.53264 24.3574V24.0574H6.23265V24.3574H6.53264ZM10.2305 24.3574L10.5288 24.3258L10.5003 24.0574H10.2305V24.3574ZM6.53264 24.3603H6.23265V24.3729L6.2337 24.3855L6.53264 24.3603ZM11.329 34.6931L11.5412 34.481H11.5412L11.329 34.6931ZM21.6612 39.4897L21.636 39.7887L21.9612 39.816V39.4897H21.6612ZM21.6612 35.7888H21.9612V35.5189L21.6928 35.4905L21.6612 35.7888ZM24.356 39.487L24.3778 39.7862L24.3808 39.7859L24.356 39.487ZM24.356 35.786L24.3243 35.4877L24.056 35.5161V35.786H24.356ZM24.3445 39.487L24.3227 39.1878L24.3445 39.787V39.487ZM34.6953 34.6978L34.4833 34.4855V34.4855L34.6953 34.6978ZM39.5016 24.3546L39.8006 24.3797L39.8279 24.0546H39.5016V24.3546ZM35.7867 24.3546V24.0546H35.5168L35.4883 24.323L35.7867 24.3546ZM32.092 32.0912L32.3041 32.3033V32.3033L32.092 32.0912ZM22.9922 15.8781V15.5781L22.9918 15.5781L22.9922 15.8781ZM27.6473 20.5278L27.9473 20.5283L27.9473 20.5274L27.6473 20.5278ZM22.9922 25.1775L22.9918 25.4775H22.9923L22.9922 25.1775ZM18.3427 20.5278L18.0427 20.5274L18.0427 20.5282L18.3427 20.5278ZM22.9922 22.4826H23.2922V22.1831L22.9926 22.1826L22.9922 22.4826ZM22.9922 22.4969H22.6922V22.7969H22.9922V22.4969ZM24.9497 20.5278L24.6496 20.5273L24.6497 20.5295L24.9497 20.5278ZM22.9922 18.5701L22.9917 18.2701L22.9922 18.5701ZM21.0404 20.5278H21.3404L21.3404 20.5273L21.0404 20.5278ZM44.6483 21.3596H42.1793V21.9596H44.6483V21.3596ZM44.3668 21.5555L44.364 21.5641L44.9327 21.7552L44.9356 21.7467L44.3668 21.5555ZM45.8171 21.834C45.5079 21.5248 45.0885 21.3511 44.6512 21.3511V21.9511C44.9293 21.9511 45.1961 22.0616 45.3928 22.2583L45.8171 21.834ZM46.3 22.9999C46.3 22.5626 46.1263 22.1433 45.8171 21.834L45.3928 22.2583C45.5895 22.455 45.7 22.7218 45.7 22.9999H46.3ZM45.8171 24.166C46.1263 23.8568 46.3 23.4373 46.3 22.9999H45.7C45.7 23.2782 45.5895 23.5451 45.3928 23.7417L45.8171 24.166ZM44.6512 24.6489C45.0885 24.6489 45.5079 24.4753 45.8171 24.166L45.3928 23.7417C45.1961 23.9384 44.9294 24.0489 44.6512 24.0489V24.6489ZM42.1793 24.6489H44.6512V24.0489H42.1793V24.6489ZM36.7986 36.8C40.1246 33.4744 42.141 29.0617 42.4785 24.3704L41.8801 24.3274C41.5529 28.8748 39.5983 33.1521 36.3744 36.3757L36.7986 36.8ZM24.3689 42.4783C29.06 42.1415 33.4727 40.1256 36.7986 36.7999L36.3744 36.3757C33.1505 39.5993 28.8731 41.5534 24.3259 41.8798L24.3689 42.4783ZM24.6474 44.651V42.179H24.0474V44.651H24.6474ZM24.5231 45.2814C24.6056 45.0813 24.6479 44.8669 24.6474 44.6504L24.0474 44.6517C24.0477 44.7893 24.0209 44.9255 23.9684 45.0527L24.5231 45.2814ZM24.1665 45.8166C24.3194 45.6634 24.4406 45.4816 24.5231 45.2814L23.9684 45.0527C23.916 45.1798 23.839 45.2953 23.7418 45.3928L24.1665 45.8166ZM23.6321 46.1743C23.832 46.0913 24.0136 45.9698 24.1665 45.8166L23.7418 45.3928C23.6447 45.4901 23.5293 45.5673 23.4022 45.6201L23.6321 46.1743ZM23.0014 46.3C23.218 46.3 23.4323 46.2571 23.6321 46.1743L23.4022 45.6201C23.275 45.6728 23.1388 45.7 23.0014 45.7V46.3ZM22.3703 46.1753C22.5705 46.258 22.7852 46.3005 23.0021 46.3L23.0007 45.7C22.8632 45.7003 22.7267 45.6734 22.5994 45.6207L22.3703 46.1753ZM21.8347 45.8178C21.9879 45.971 22.1699 46.0925 22.3703 46.1753L22.5994 45.6207C22.472 45.5681 22.3564 45.4909 22.259 45.3935L21.8347 45.8178ZM21.4772 45.2821C21.56 45.4824 21.6814 45.6645 21.8347 45.8178L22.259 45.3935C22.1616 45.2962 22.0844 45.1804 22.0318 45.0531L21.4772 45.2821ZM21.3526 44.6504C21.3522 44.8671 21.3945 45.0818 21.4772 45.2821L22.0318 45.0531C21.9792 44.9258 21.9523 44.7894 21.9526 44.6517L21.3526 44.6504ZM21.3526 42.179V44.651H21.9526V42.179H21.3526ZM9.20004 36.8013C12.5262 40.1272 16.9396 42.1427 21.6312 42.4783L21.674 41.8798C17.1264 41.5545 12.8484 39.6008 9.62428 36.3771L9.20004 36.8013ZM3.52148 24.3703C3.85783 29.0621 5.87386 33.4755 9.20004 36.8013L9.62428 36.3771C6.40016 33.1533 4.44597 28.8753 4.11995 24.3274L3.52148 24.3703ZM1.34882 24.6489H3.82071V24.0489H1.34882V24.6489ZM0.182916 24.166C0.492159 24.4753 0.911544 24.6489 1.34882 24.6489V24.0489C1.07063 24.0489 0.803882 23.9384 0.607207 23.7417L0.182916 24.166ZM-0.299997 22.9999C-0.299997 23.4373 -0.126299 23.8568 0.182937 24.166L0.607185 23.7417C0.410537 23.5451 0.300003 23.2782 0.300003 22.9999H-0.299997ZM-0.175396 22.3689C-0.258107 22.5692 -0.300444 22.7838 -0.299996 23.0006L0.300002 22.9993C0.299718 22.8616 0.326625 22.7252 0.379193 22.5978L-0.175396 22.3689ZM0.182041 21.8332C0.0288469 21.9865 -0.0926409 22.1685 -0.175386 22.3688L0.379182 22.5979C0.431751 22.4706 0.508961 22.3549 0.606407 22.2574L0.182041 21.8332ZM0.717638 21.4757C0.517323 21.5585 0.335335 21.68 0.1821 21.8332L0.606348 22.2575C0.703752 22.1601 0.819428 22.0828 0.946741 22.0302L0.717638 21.4757ZM1.34941 21.3511C1.13274 21.3507 0.91806 21.393 0.717739 21.4757L0.94664 22.0303C1.07395 21.9777 1.21044 21.9508 1.34823 21.9511L1.34941 21.3511ZM3.82071 21.3511H1.34882V21.9511H3.82071V21.3511ZM9.19981 9.19756C5.8737 12.5239 3.85776 16.9376 3.52148 21.6297L4.11995 21.6726C4.44591 17.1245 6.40001 12.8461 9.62409 9.62181L9.19981 9.19756ZM21.6312 3.51896C16.9394 3.85525 12.5259 5.87125 9.19981 9.19756L9.62409 9.62181C12.8482 6.39755 17.1262 4.4434 21.6741 4.11742L21.6312 3.51896ZM21.3526 1.34898V3.81819H21.9526V1.34898H21.3526ZM21.4763 0.717641C21.3937 0.918301 21.3517 1.1333 21.3526 1.35024L21.9526 1.34771C21.952 1.20994 21.9787 1.07342 22.0312 0.946017L21.4763 0.717641ZM21.8338 0.181428C21.6804 0.334836 21.559 0.516978 21.4763 0.7176L22.0311 0.946059C22.0836 0.818755 22.1607 0.703111 22.2581 0.605621L21.8338 0.181428ZM22.3701 -0.176214C22.1694 -0.0935616 21.9872 0.028067 21.8339 0.181369L22.2581 0.60568C22.3556 0.508222 22.4713 0.431002 22.5986 0.378576L22.3701 -0.176214ZM23.0027 -0.299985C22.7857 -0.300924 22.5707 -0.258837 22.3701 -0.176214L22.5986 0.378576C22.726 0.326122 22.8624 0.299414 23.0001 0.30001L23.0027 -0.299985ZM23.6321 -0.174247C23.4323 -0.257129 23.218 -0.299987 23.0014 -0.299987V0.300013C23.1388 0.300013 23.275 0.327205 23.4022 0.379959L23.6321 -0.174247ZM24.1665 0.183449C24.0136 0.030166 23.832 -0.0913315 23.6321 -0.174247L23.4022 0.379959C23.5293 0.432679 23.6447 0.509891 23.7418 0.607228L24.1665 0.183449ZM24.5231 0.718584C24.4406 0.518455 24.3194 0.336642 24.1665 0.183449L23.7418 0.607228C23.839 0.704654 23.916 0.820208 23.9684 0.947308L24.5231 0.718584ZM24.6474 1.34963C24.6479 1.13318 24.6056 0.918762 24.5231 0.7186L23.9684 0.947291C24.0209 1.0745 24.0477 1.21076 24.0474 1.34833L24.6474 1.34963ZM24.6474 3.8267V1.34898H24.0474V3.8267H24.6474ZM36.7989 9.20747C33.4731 5.88146 29.0603 3.86498 24.3689 3.52748L24.3259 4.12593C28.8733 4.45308 33.1508 6.40771 36.3746 9.63172L36.7989 9.20747ZM42.4785 21.6381C42.1411 16.9465 40.1247 12.5335 36.7989 9.20747L36.3746 9.63172C39.5985 12.8558 41.553 17.1334 41.8801 21.6811L42.4785 21.6381ZM39.4559 21.3596H35.7581V21.9596H39.4559V21.3596ZM34.4474 11.539C37.1666 14.2583 38.835 17.8526 39.157 21.6847L39.7549 21.6345C39.421 17.6611 37.6911 13.9343 34.8717 11.1147L34.4474 11.539ZM24.3023 6.82916C28.1342 7.15115 31.7283 8.81975 34.4474 11.539L34.8717 11.1147C32.0523 8.29525 28.3257 6.56513 24.3525 6.23127L24.3023 6.82916ZM24.6274 10.2282V6.53021H24.0274V10.2282H24.6274ZM32.2756 13.7111C30.1469 11.5822 27.3527 10.2477 24.3591 9.92992L24.2957 10.5266C27.1528 10.8298 29.8196 12.1036 31.8513 14.1353L32.2756 13.7111ZM36.0564 21.628C35.7388 18.6342 34.4042 15.8399 32.2756 13.7111L31.8513 14.1353C33.8829 16.1671 35.1566 18.834 35.4598 21.6913L36.0564 21.628ZM22.9983 32.8624C21.7794 32.8634 20.5711 32.6368 19.4354 32.1943L19.2175 32.7533C20.4229 33.223 21.7052 33.4635 22.9988 33.4624L22.9983 32.8624ZM22.9939 33.4624H22.9986V32.8624H22.9939V33.4624ZM26.5504 32.1942C25.4165 32.6355 24.2105 32.862 22.9938 32.8624L22.994 33.4624C24.285 33.462 25.5648 33.2216 26.768 32.7534L26.5504 32.1942ZM26.3592 29.3016V32.4738H26.9592V29.3016H26.3592ZM26.3018 29.1976C26.336 29.2298 26.3568 29.2739 26.3599 29.321L26.9586 29.2822C26.9457 29.0836 26.858 28.8971 26.7129 28.7606L26.3018 29.1976ZM26.1751 29.1472C26.2225 29.1474 26.2677 29.1655 26.3018 29.1976L26.7129 28.7606C26.5677 28.624 26.3763 28.548 26.1775 28.5472L26.1751 29.1472ZM19.7808 29.1472H26.1763V28.5472H19.7808V29.1472ZM19.6728 29.1929C19.702 29.1639 19.7414 29.1475 19.7827 29.1472L19.7789 28.5472C19.5807 28.5485 19.3907 28.6274 19.2499 28.7672L19.6728 29.1929ZM19.6264 29.3024C19.627 29.2612 19.6436 29.2219 19.6728 29.1929L19.2499 28.7673C19.1092 28.9071 19.029 29.0965 19.0265 29.2949L19.6264 29.3024ZM19.6265 32.4738V29.2986H19.0265V32.4738H19.6265ZM28.6383 26.8498C27.9873 26.2107 27.1115 25.8525 26.1993 25.8522L26.1991 26.4522C26.9542 26.4525 27.6791 26.7489 28.218 27.2779L28.6383 26.8498ZM28.7282 27.0668V27.0639H28.1282V27.0668H28.7282ZM29.4047 27.9744C29.2266 27.5525 28.9656 27.1708 28.6372 26.8516L28.2191 27.2819C28.4899 27.5451 28.7051 27.8599 28.852 28.2077L29.4047 27.9744ZM29.674 29.3075C29.6744 28.8497 29.5828 28.3962 29.4047 27.9743L28.852 28.2077C28.9988 28.5555 29.0743 28.9295 29.074 29.3071L29.674 29.3075ZM29.674 30.9105V29.3073H29.074V30.9105H29.674ZM31.8959 27.2619C31.2595 28.5885 30.3335 29.7554 29.1862 30.6766L29.5618 31.1444C30.7791 30.1671 31.7616 28.929 32.4369 27.5214L31.8959 27.2619ZM32.8633 23.0113C32.8629 24.4827 32.5323 25.9353 31.8959 27.2619L32.4369 27.5214C33.1121 26.1138 33.4628 24.5726 33.4633 23.0115L32.8633 23.0113ZM29.975 16.0451C31.8224 17.8931 32.8611 20.3985 32.8633 23.0116L33.4633 23.0111C33.461 20.2391 32.3591 17.5813 30.3993 15.6209L29.975 16.0451ZM23.0097 13.1546C25.6226 13.1576 28.1276 14.1971 29.975 16.0451L30.3993 15.6209C28.4396 13.6605 25.7822 12.5578 23.0104 12.5546L23.0097 13.1546ZM16.044 16.045C17.8918 14.1971 20.3972 13.1576 23.0104 13.1546L23.0097 12.5546C20.2376 12.5578 17.5799 13.6605 15.6197 15.6207L16.044 16.045ZM13.1538 23.0117C13.1568 20.3983 14.1962 17.8929 16.044 16.045L15.6197 15.6207C13.6595 17.581 12.5569 20.2388 12.5538 23.011L13.1538 23.0117ZM14.1198 27.2617C13.4838 25.9351 13.1537 24.4826 13.1538 23.0114L12.5538 23.0114C12.5537 24.5723 12.904 26.1134 13.5787 27.521L14.1198 27.2617ZM16.8281 30.6766C15.6812 29.7553 14.7557 28.5883 14.1198 27.2617L13.5787 27.521C14.2534 28.9286 15.2354 30.1669 16.4524 31.1444L16.8281 30.6766ZM16.3402 29.3044V30.9105H16.9402V29.3044H16.3402ZM16.6022 27.983C16.4287 28.402 16.3397 28.8512 16.3402 29.3047L16.9402 29.304C16.9398 28.9295 17.0133 28.5586 17.1566 28.2125L16.6022 27.983ZM17.3513 26.863C17.0303 27.1833 16.7758 27.5639 16.6022 27.983L17.1566 28.2125C17.2999 27.8665 17.5101 27.5522 17.7752 27.2876L17.3513 26.863ZM18.4695 26.1148C18.051 26.2883 17.6709 26.5428 17.3509 26.8634L17.7756 27.2872C18.0399 27.0224 18.3538 26.8123 18.6993 26.6691L18.4695 26.1148ZM19.7895 25.8522C19.3365 25.8521 18.8879 25.9413 18.4695 26.1148L18.6993 26.6691C19.0448 26.5258 19.4153 26.4521 19.7893 26.4522L19.7895 25.8522ZM26.1992 25.8522H19.7894V26.4522H26.1992V25.8522ZM21.3612 6.53021V10.2282H21.9612V6.53021H21.3612ZM11.5374 11.5352C14.2571 8.81535 17.853 7.14788 21.686 6.82918L21.6363 6.23125C17.6618 6.5617 13.9332 8.29072 11.1131 11.111L11.5374 11.5352ZM6.83161 21.6845C7.15031 17.8512 8.81767 14.2551 11.5374 11.5352L11.1131 11.111C8.29302 13.9312 6.56413 17.66 6.23368 21.6348L6.83161 21.6845ZM10.2305 21.3596H6.53264V21.9596H10.2305V21.3596ZM13.713 13.7111C11.5843 15.8399 10.2498 18.6342 9.93214 21.628L10.5288 21.6913C10.832 18.834 12.1056 16.1671 14.1373 14.1353L13.713 13.7111ZM21.6295 9.92992C18.6359 10.2477 15.8417 11.5822 13.713 13.7111L14.1373 14.1353C16.1689 12.1036 18.8357 10.8298 21.6928 10.5266L21.6295 9.92992ZM6.53264 24.6574H10.2305V24.0574H6.53264V24.6574ZM6.83264 24.3603V24.3574H6.23265V24.3603H6.83264ZM11.5412 34.481C8.82203 31.7617 7.15356 28.1674 6.83159 24.3352L6.2337 24.3855C6.56754 28.3589 8.29751 32.0857 11.1169 34.9052L11.5412 34.481ZM21.6863 39.1908C17.8544 38.8688 14.2603 37.2003 11.5412 34.481L11.1169 34.9052C13.9362 37.7248 17.6629 39.4548 21.636 39.7887L21.6863 39.1908ZM21.3612 35.7888V39.4897H21.9612V35.7888H21.3612ZM13.713 32.3061C15.8417 34.4349 18.6359 35.7695 21.6295 36.0871L21.6928 35.4905C18.8357 35.1873 16.1689 33.9136 14.1373 31.8818L13.713 32.3061ZM9.93214 24.3891C10.2498 27.3828 11.5843 30.1772 13.713 32.3061L14.1373 31.8818C12.1056 29.8501 10.832 27.183 10.5288 24.3258L9.93214 24.3891ZM24.656 39.487V35.786H24.056V39.487H24.656ZM24.3341 39.1878C24.3438 39.187 24.3515 39.187 24.3558 39.187C24.3597 39.1871 24.3629 39.1872 24.3612 39.1872C24.361 39.1872 24.3559 39.1869 24.3501 39.1869C24.3439 39.1868 24.3343 39.1869 24.3227 39.1878L24.3664 39.7862C24.3567 39.7869 24.349 39.7869 24.3446 39.7869C24.3408 39.7868 24.3376 39.7867 24.3393 39.7868C24.3395 39.7868 24.3446 39.787 24.3504 39.787C24.3566 39.7871 24.3662 39.787 24.3778 39.7862L24.3341 39.1878ZM24.3445 39.787H24.356V39.187H24.3445V39.787ZM34.4833 34.4855C31.761 37.2034 28.1643 38.8698 24.3312 39.188L24.3808 39.7859C28.3553 39.456 32.0847 37.7281 34.9073 34.9101L34.4833 34.4855ZM39.2027 24.3295C38.8804 28.1666 37.2082 31.7651 34.4833 34.4855L34.9073 34.9101C37.7326 32.0894 39.4664 28.3582 39.8006 24.3797L39.2027 24.3295ZM35.7867 24.6546H39.5016V24.0546H35.7867V24.6546ZM32.3041 32.3033C34.4328 30.1745 35.7673 27.38 36.085 24.3863L35.4883 24.323C35.1852 27.1802 33.9115 29.8473 31.8799 31.879L32.3041 32.3033ZM24.3876 36.0843C27.3812 35.7667 30.1754 34.4321 32.3041 32.3033L31.8799 31.879C29.8482 33.9108 27.1814 35.1845 24.3243 35.4877L24.3876 36.0843ZM22.9918 15.5781C21.6797 15.5797 20.4218 16.1017 19.494 17.0296L19.9183 17.4538C20.7338 16.6383 21.8393 16.1795 22.9925 16.1781L22.9918 15.5781ZM26.4938 17.0273C25.5647 16.0994 24.3053 15.5781 22.9922 15.5781V16.1781C24.1463 16.1781 25.2532 16.6362 26.0698 17.4519L26.4938 17.0273ZM27.9473 20.5274C27.9457 19.2142 27.4229 17.9553 26.4938 17.0273L26.0698 17.4519C26.8864 18.2675 27.3459 19.3739 27.3473 20.5282L27.9473 20.5274ZM26.493 24.0274C27.4219 23.0996 27.9449 21.8413 27.9473 20.5283L27.3473 20.5272C27.3452 21.6813 26.8855 22.7874 26.069 23.6029L26.493 24.0274ZM22.9923 25.4775C24.3052 25.4767 25.5641 24.9552 26.493 24.0274L26.069 23.6029C25.2525 24.4184 24.1459 24.8768 22.992 24.8775L22.9923 25.4775ZM19.494 24.0262C20.4218 24.954 21.6797 25.4759 22.9918 25.4775L22.9925 24.8775C21.8393 24.8761 20.7337 24.4174 19.9183 23.6019L19.494 24.0262ZM18.0427 20.5282C18.0443 21.8403 18.5663 23.0983 19.494 24.0262L19.9183 23.6019C19.1029 22.7864 18.6441 21.6807 18.6427 20.5274L18.0427 20.5282ZM19.494 17.0296C18.5663 17.9574 18.0443 19.2153 18.0427 20.5274L18.6427 20.5282C18.6441 19.3749 19.1029 18.2693 19.9183 17.4538L19.494 17.0296ZM22.9926 22.1826C22.5542 22.182 22.134 22.0073 21.8242 21.697L21.3996 22.121C21.8217 22.5437 22.3943 22.7818 22.9917 22.7826L22.9926 22.1826ZM23.2922 22.4969V22.4826H22.6922V22.4969H23.2922ZM23.6287 22.0697C23.4269 22.1536 23.2106 22.1969 22.9922 22.1969V22.7969C23.2898 22.7969 23.5844 22.738 23.8591 22.6237L23.6287 22.0697ZM24.1676 21.708C24.0136 21.8629 23.8304 21.9858 23.6287 22.0697L23.8591 22.6237C24.1338 22.5095 24.3833 22.342 24.5931 22.1309L24.1676 21.708ZM24.5263 21.1669C24.4436 21.3691 24.3217 21.553 24.1676 21.708L24.5931 22.1309C24.8029 21.9199 24.9689 21.6695 25.0816 21.3941L24.5263 21.1669ZM24.6497 20.5295C24.6509 20.748 24.609 20.9647 24.5263 21.1669L25.0816 21.3941C25.1943 21.1186 25.2514 20.8236 25.2496 20.526L24.6497 20.5295ZM24.5242 19.8929C24.6073 20.0941 24.65 20.3097 24.6497 20.5273L25.2497 20.5282C25.2501 20.2316 25.192 19.9379 25.0787 19.6637L24.5242 19.8929ZM24.1651 19.3548C24.3189 19.5087 24.441 19.6916 24.5242 19.8929L25.0787 19.6637C24.9654 19.3896 24.7991 19.1403 24.5893 18.9305L24.1651 19.3548ZM23.6271 18.9957C23.8283 19.0789 24.0111 19.2009 24.1651 19.3548L24.5893 18.9305C24.3795 18.7208 24.1304 18.5545 23.8563 18.4412L23.6271 18.9957ZM22.9926 18.8701C23.2102 18.8698 23.4259 18.9125 23.6271 18.9957L23.8563 18.4412C23.5822 18.3279 23.2884 18.2697 22.9917 18.2701L22.9926 18.8701ZM22.3596 18.9971C22.5603 18.9136 22.7754 18.8704 22.9926 18.8701L22.9917 18.2701C22.6955 18.2705 22.4024 18.3295 22.1291 18.4432L22.3596 18.9971ZM21.8233 19.3566C21.9767 19.2027 22.1589 19.0806 22.3596 18.9971L22.1291 18.4432C21.8558 18.5569 21.6075 18.7233 21.3984 18.9329L21.8233 19.3566ZM21.4654 19.894C21.5483 19.6931 21.6699 19.5104 21.8233 19.3566L21.3984 18.9329C21.1894 19.1426 21.0236 19.3915 20.9107 19.6652L21.4654 19.894ZM21.3404 20.5273C21.34 20.3101 21.3825 20.0948 21.4654 19.894L20.9107 19.6652C20.7978 19.9389 20.7399 20.2321 20.7404 20.5282L21.3404 20.5273ZM21.8242 21.697C21.5144 21.3868 21.3404 20.9662 21.3404 20.5278H20.7404C20.7404 21.1252 20.9775 21.6982 21.3996 22.121L21.8242 21.697Z" fill="#00A19A" mask="url(#path-1-inside-1_803_40245)"/>
</svg>
