<svg width="47" height="47" viewBox="0 0 47 47" fill="none" xmlns="http://www.w3.org/2000/svg">
<g id="Frame 1390">
<g id="Group 1031">
<g id="Union">
<mask id="path-1-inside-1_919_6376" fill="white">
<path fill-rule="evenodd" clip-rule="evenodd" d="M36.2947 26.4007C36.3937 26.4965 36.5064 26.5773 36.6289 26.6403L44.0866 30.3666C44.3337 30.491 44.614 30.534 44.887 30.4892C45.1601 30.4445 45.4119 30.3143 45.6064 30.1175C45.8033 29.9231 45.9335 29.6713 45.9783 29.3983C46.023 29.1252 45.9801 28.8451 45.8555 28.598L42.1253 21.1424C42.0619 21.0158 41.9777 20.9007 41.8761 20.802L23.2366 2.1614C22.8698 1.79328 22.434 1.5012 21.954 1.30189C21.474 1.10259 20.9594 1 20.4397 1C19.92 1 19.4052 1.10259 18.9252 1.30189C18.4453 1.5012 18.0095 1.79328 17.6427 2.1614C17.2744 2.5281 16.9822 2.96386 16.7829 3.4437C16.5835 3.92355 16.4809 4.43805 16.4809 4.95764C16.4809 5.47723 16.5835 5.99168 16.7829 6.47153C16.9822 6.95138 17.2744 7.38718 17.6427 7.75388L36.2853 26.3945L36.2947 26.4007ZM39.0948 21.7382L37.228 23.6013L22.3128 8.69015L24.1763 6.82703L39.0948 21.7382ZM39.4511 25.1051L40.5959 23.9639L41.7372 26.2463L39.4511 25.1051ZM19.5157 4.03079C19.6378 3.90859 19.7829 3.81166 19.9425 3.74552C20.1022 3.67938 20.2732 3.64535 20.446 3.64535C20.6188 3.64535 20.7899 3.67938 20.9495 3.74552C21.1091 3.81166 21.254 3.90859 21.3762 4.03079L22.3222 4.97653L20.4554 6.84281L19.5251 5.89707C19.4007 5.77592 19.3017 5.63126 19.2336 5.47153C19.1656 5.3118 19.13 5.14017 19.1288 4.96657C19.1276 4.79296 19.161 4.62085 19.2269 4.46022C19.2928 4.29958 19.3897 4.15361 19.5125 4.03079H19.5157Z"/>
<path fill-rule="evenodd" clip-rule="evenodd" d="M25.5727 37.9139H10.3894C10.0404 37.9131 9.70591 37.7739 9.4594 37.5269C9.21289 37.2798 9.07447 36.9451 9.07447 36.5962V21.4202C9.07389 21.1599 9.15053 20.9054 9.2948 20.6887C9.43907 20.4721 9.64443 20.3032 9.88482 20.2033C10.1258 20.1035 10.3908 20.0771 10.6467 20.1276C10.9026 20.1781 11.1379 20.3032 11.3228 20.4871L26.503 35.663C26.6871 35.8478 26.8126 36.0827 26.8636 36.3385C26.9147 36.5942 26.8889 36.8593 26.7899 37.1006C26.6905 37.3415 26.5217 37.5474 26.305 37.6922C26.0883 37.8371 25.8334 37.9142 25.5727 37.9139ZM22.4004 35.2784L11.7232 24.601V35.2784H22.4004Z"/>
<path fill-rule="evenodd" clip-rule="evenodd" d="M2.31815 45.9999H44.6834C44.9442 45.9992 45.1989 45.9212 45.4155 45.7759C45.6321 45.6306 45.8009 45.4245 45.9005 45.1835C45.9998 44.9428 46.0255 44.6781 45.9744 44.4228C45.9233 44.1675 45.7977 43.9331 45.6135 43.7491L3.24845 1.3956C3.06439 1.21145 2.82987 1.08593 2.57452 1.03487C2.31917 0.983815 2.05434 1.0095 1.81359 1.10872C1.57285 1.20844 1.36714 1.37728 1.22234 1.59387C1.07753 1.81045 1.0001 2.06506 1 2.32557V44.6822C1 45.0317 1.13897 45.3669 1.38616 45.614C1.63335 45.8611 1.96857 45.9999 2.31815 45.9999ZM41.4985 43.3613H35.4535V41.9585C35.4543 41.7852 35.4209 41.6134 35.3553 41.453C35.2896 41.2926 35.1929 41.1467 35.0707 41.0237C34.9486 40.9007 34.8034 40.803 34.6435 40.7362C34.4835 40.6694 34.312 40.6348 34.1386 40.6344C33.7876 40.6353 33.4511 40.775 33.2029 41.0232C32.9547 41.2713 32.815 41.6076 32.8141 41.9585V43.3613H30.178V41.9585C30.1788 41.7852 30.1454 41.6134 30.0797 41.453C30.0141 41.2926 29.9173 41.1467 29.7952 41.0237C29.6731 40.9007 29.5279 40.803 29.3679 40.7362C29.208 40.6694 29.0364 40.6348 28.8631 40.6344C28.6895 40.6348 28.5177 40.6694 28.3576 40.7362C28.1974 40.8029 28.0521 40.9006 27.9297 41.0236C27.8073 41.1465 27.7102 41.2923 27.6442 41.4527C27.5782 41.6132 27.5445 41.785 27.5449 41.9585V43.3613H24.9088V41.9585C24.9088 41.6084 24.7701 41.2726 24.5231 41.0244C24.276 40.7763 23.9408 40.6361 23.5906 40.6344C23.2399 40.6353 22.9038 40.7751 22.6561 41.0234C22.4084 41.2716 22.2694 41.6079 22.2694 41.9585V43.3613H19.6332V41.9585C19.6336 41.785 19.5998 41.6132 19.5337 41.4527C19.4677 41.2923 19.3708 41.1465 19.2484 41.0236C19.126 40.9006 18.9805 40.8029 18.8204 40.7362C18.6603 40.6694 18.4886 40.6348 18.3151 40.6344C18.1416 40.6348 17.9699 40.6694 17.8097 40.7362C17.6496 40.8029 17.5041 40.9006 17.3817 41.0236C17.2593 41.1465 17.1624 41.2923 17.0964 41.4527C17.0304 41.6132 16.9965 41.785 16.9969 41.9585V43.3613H14.3577V41.9585C14.3585 41.6087 14.2205 41.2728 13.974 41.0246C13.7275 40.7764 13.3925 40.6361 13.0426 40.6344C12.8691 40.6348 12.6974 40.6694 12.5373 40.7362C12.3771 40.8029 12.2318 40.9006 12.1094 41.0236C11.987 41.1465 11.8899 41.2923 11.8239 41.4527C11.7579 41.6132 11.7242 41.785 11.7246 41.9585V43.3613H9.08845V41.9585C9.08845 41.6079 8.94921 41.2716 8.70152 41.0234C8.45383 40.7751 8.11777 40.6353 7.76706 40.6344C7.4169 40.6361 7.08178 40.7763 6.83476 41.0244C6.58775 41.2726 6.44906 41.6084 6.44906 41.9585V43.3613H3.63631V37.9138H5.13091C5.48049 37.9138 5.81571 37.775 6.0629 37.5279C6.31009 37.2808 6.44906 36.9456 6.44906 36.5961C6.44906 36.2466 6.31009 35.9115 6.0629 35.6644C5.81571 35.4172 5.48049 35.2784 5.13091 35.2784H3.63631V30.0074H5.13091C5.48078 30.0066 5.81611 29.8671 6.06321 29.6195C6.31031 29.3718 6.44906 29.0363 6.44906 28.6865C6.44906 28.3371 6.31009 28.0019 6.0629 27.7548C5.81571 27.5076 5.48049 27.3688 5.13091 27.3688H3.63631V22.0979H5.13091C5.48049 22.0979 5.81571 21.959 6.0629 21.7119C6.31009 21.4648 6.44906 21.1296 6.44906 20.7802C6.44906 20.4304 6.31031 20.0949 6.06321 19.8473C5.81611 19.5996 5.48078 19.4601 5.13091 19.4593H3.63631V14.1883H5.13091C5.48049 14.1883 5.81571 14.0495 6.0629 13.8024C6.31009 13.5553 6.44906 13.2201 6.44906 12.8706C6.44906 12.6977 6.41495 12.5265 6.34867 12.3668C6.2824 12.2071 6.18519 12.0621 6.06275 11.94C5.94031 11.8178 5.79507 11.7211 5.63517 11.6552C5.47527 11.5893 5.30386 11.5556 5.13091 11.556H3.63631V5.5096L41.4985 43.3613Z"/>
</mask>
<path fill-rule="evenodd" clip-rule="evenodd" d="M36.2947 26.4007C36.3937 26.4965 36.5064 26.5773 36.6289 26.6403L44.0866 30.3666C44.3337 30.491 44.614 30.534 44.887 30.4892C45.1601 30.4445 45.4119 30.3143 45.6064 30.1175C45.8033 29.9231 45.9335 29.6713 45.9783 29.3983C46.023 29.1252 45.9801 28.8451 45.8555 28.598L42.1253 21.1424C42.0619 21.0158 41.9777 20.9007 41.8761 20.802L23.2366 2.1614C22.8698 1.79328 22.434 1.5012 21.954 1.30189C21.474 1.10259 20.9594 1 20.4397 1C19.92 1 19.4052 1.10259 18.9252 1.30189C18.4453 1.5012 18.0095 1.79328 17.6427 2.1614C17.2744 2.5281 16.9822 2.96386 16.7829 3.4437C16.5835 3.92355 16.4809 4.43805 16.4809 4.95764C16.4809 5.47723 16.5835 5.99168 16.7829 6.47153C16.9822 6.95138 17.2744 7.38718 17.6427 7.75388L36.2853 26.3945L36.2947 26.4007ZM39.0948 21.7382L37.228 23.6013L22.3128 8.69015L24.1763 6.82703L39.0948 21.7382ZM39.4511 25.1051L40.5959 23.9639L41.7372 26.2463L39.4511 25.1051ZM19.5157 4.03079C19.6378 3.90859 19.7829 3.81166 19.9425 3.74552C20.1022 3.67938 20.2732 3.64535 20.446 3.64535C20.6188 3.64535 20.7899 3.67938 20.9495 3.74552C21.1091 3.81166 21.254 3.90859 21.3762 4.03079L22.3222 4.97653L20.4554 6.84281L19.5251 5.89707C19.4007 5.77592 19.3017 5.63126 19.2336 5.47153C19.1656 5.3118 19.13 5.14017 19.1288 4.96657C19.1276 4.79296 19.161 4.62085 19.2269 4.46022C19.2928 4.29958 19.3897 4.15361 19.5125 4.03079H19.5157Z" fill="white"/>
<path fill-rule="evenodd" clip-rule="evenodd" d="M25.5727 37.9139H10.3894C10.0404 37.9131 9.70591 37.7739 9.4594 37.5269C9.21289 37.2798 9.07447 36.9451 9.07447 36.5962V21.4202C9.07389 21.1599 9.15053 20.9054 9.2948 20.6887C9.43907 20.4721 9.64443 20.3032 9.88482 20.2033C10.1258 20.1035 10.3908 20.0771 10.6467 20.1276C10.9026 20.1781 11.1379 20.3032 11.3228 20.4871L26.503 35.663C26.6871 35.8478 26.8126 36.0827 26.8636 36.3385C26.9147 36.5942 26.8889 36.8593 26.7899 37.1006C26.6905 37.3415 26.5217 37.5474 26.305 37.6922C26.0883 37.8371 25.8334 37.9142 25.5727 37.9139ZM22.4004 35.2784L11.7232 24.601V35.2784H22.4004Z" fill="white"/>
<path fill-rule="evenodd" clip-rule="evenodd" d="M2.31815 45.9999H44.6834C44.9442 45.9992 45.1989 45.9212 45.4155 45.7759C45.6321 45.6306 45.8009 45.4245 45.9005 45.1835C45.9998 44.9428 46.0255 44.6781 45.9744 44.4228C45.9233 44.1675 45.7977 43.9331 45.6135 43.7491L3.24845 1.3956C3.06439 1.21145 2.82987 1.08593 2.57452 1.03487C2.31917 0.983815 2.05434 1.0095 1.81359 1.10872C1.57285 1.20844 1.36714 1.37728 1.22234 1.59387C1.07753 1.81045 1.0001 2.06506 1 2.32557V44.6822C1 45.0317 1.13897 45.3669 1.38616 45.614C1.63335 45.8611 1.96857 45.9999 2.31815 45.9999ZM41.4985 43.3613H35.4535V41.9585C35.4543 41.7852 35.4209 41.6134 35.3553 41.453C35.2896 41.2926 35.1929 41.1467 35.0707 41.0237C34.9486 40.9007 34.8034 40.803 34.6435 40.7362C34.4835 40.6694 34.312 40.6348 34.1386 40.6344C33.7876 40.6353 33.4511 40.775 33.2029 41.0232C32.9547 41.2713 32.815 41.6076 32.8141 41.9585V43.3613H30.178V41.9585C30.1788 41.7852 30.1454 41.6134 30.0797 41.453C30.0141 41.2926 29.9173 41.1467 29.7952 41.0237C29.6731 40.9007 29.5279 40.803 29.3679 40.7362C29.208 40.6694 29.0364 40.6348 28.8631 40.6344C28.6895 40.6348 28.5177 40.6694 28.3576 40.7362C28.1974 40.8029 28.0521 40.9006 27.9297 41.0236C27.8073 41.1465 27.7102 41.2923 27.6442 41.4527C27.5782 41.6132 27.5445 41.785 27.5449 41.9585V43.3613H24.9088V41.9585C24.9088 41.6084 24.7701 41.2726 24.5231 41.0244C24.276 40.7763 23.9408 40.6361 23.5906 40.6344C23.2399 40.6353 22.9038 40.7751 22.6561 41.0234C22.4084 41.2716 22.2694 41.6079 22.2694 41.9585V43.3613H19.6332V41.9585C19.6336 41.785 19.5998 41.6132 19.5337 41.4527C19.4677 41.2923 19.3708 41.1465 19.2484 41.0236C19.126 40.9006 18.9805 40.8029 18.8204 40.7362C18.6603 40.6694 18.4886 40.6348 18.3151 40.6344C18.1416 40.6348 17.9699 40.6694 17.8097 40.7362C17.6496 40.8029 17.5041 40.9006 17.3817 41.0236C17.2593 41.1465 17.1624 41.2923 17.0964 41.4527C17.0304 41.6132 16.9965 41.785 16.9969 41.9585V43.3613H14.3577V41.9585C14.3585 41.6087 14.2205 41.2728 13.974 41.0246C13.7275 40.7764 13.3925 40.6361 13.0426 40.6344C12.8691 40.6348 12.6974 40.6694 12.5373 40.7362C12.3771 40.8029 12.2318 40.9006 12.1094 41.0236C11.987 41.1465 11.8899 41.2923 11.8239 41.4527C11.7579 41.6132 11.7242 41.785 11.7246 41.9585V43.3613H9.08845V41.9585C9.08845 41.6079 8.94921 41.2716 8.70152 41.0234C8.45383 40.7751 8.11777 40.6353 7.76706 40.6344C7.4169 40.6361 7.08178 40.7763 6.83476 41.0244C6.58775 41.2726 6.44906 41.6084 6.44906 41.9585V43.3613H3.63631V37.9138H5.13091C5.48049 37.9138 5.81571 37.775 6.0629 37.5279C6.31009 37.2808 6.44906 36.9456 6.44906 36.5961C6.44906 36.2466 6.31009 35.9115 6.0629 35.6644C5.81571 35.4172 5.48049 35.2784 5.13091 35.2784H3.63631V30.0074H5.13091C5.48078 30.0066 5.81611 29.8671 6.06321 29.6195C6.31031 29.3718 6.44906 29.0363 6.44906 28.6865C6.44906 28.3371 6.31009 28.0019 6.0629 27.7548C5.81571 27.5076 5.48049 27.3688 5.13091 27.3688H3.63631V22.0979H5.13091C5.48049 22.0979 5.81571 21.959 6.0629 21.7119C6.31009 21.4648 6.44906 21.1296 6.44906 20.7802C6.44906 20.4304 6.31031 20.0949 6.06321 19.8473C5.81611 19.5996 5.48078 19.4601 5.13091 19.4593H3.63631V14.1883H5.13091C5.48049 14.1883 5.81571 14.0495 6.0629 13.8024C6.31009 13.5553 6.44906 13.2201 6.44906 12.8706C6.44906 12.6977 6.41495 12.5265 6.34867 12.3668C6.2824 12.2071 6.18519 12.0621 6.06275 11.94C5.94031 11.8178 5.79507 11.7211 5.63517 11.6552C5.47527 11.5893 5.30386 11.5556 5.13091 11.556H3.63631V5.5096L41.4985 43.3613Z" fill="white"/>
<path fill-rule="evenodd" clip-rule="evenodd" d="M36.2947 26.4007C36.3937 26.4965 36.5064 26.5773 36.6289 26.6403L44.0866 30.3666C44.3337 30.491 44.614 30.534 44.887 30.4892C45.1601 30.4445 45.4119 30.3143 45.6064 30.1175C45.8033 29.9231 45.9335 29.6713 45.9783 29.3983C46.023 29.1252 45.9801 28.8451 45.8555 28.598L42.1253 21.1424C42.0619 21.0158 41.9777 20.9007 41.8761 20.802L23.2366 2.1614C22.8698 1.79328 22.434 1.5012 21.954 1.30189C21.474 1.10259 20.9594 1 20.4397 1C19.92 1 19.4052 1.10259 18.9252 1.30189C18.4453 1.5012 18.0095 1.79328 17.6427 2.1614C17.2744 2.5281 16.9822 2.96386 16.7829 3.4437C16.5835 3.92355 16.4809 4.43805 16.4809 4.95764C16.4809 5.47723 16.5835 5.99168 16.7829 6.47153C16.9822 6.95138 17.2744 7.38718 17.6427 7.75388L36.2853 26.3945L36.2947 26.4007ZM39.0948 21.7382L37.228 23.6013L22.3128 8.69015L24.1763 6.82703L39.0948 21.7382ZM39.4511 25.1051L40.5959 23.9639L41.7372 26.2463L39.4511 25.1051ZM19.5157 4.03079C19.6378 3.90859 19.7829 3.81166 19.9425 3.74552C20.1022 3.67938 20.2732 3.64535 20.446 3.64535C20.6188 3.64535 20.7899 3.67938 20.9495 3.74552C21.1091 3.81166 21.254 3.90859 21.3762 4.03079L22.3222 4.97653L20.4554 6.84281L19.5251 5.89707C19.4007 5.77592 19.3017 5.63126 19.2336 5.47153C19.1656 5.3118 19.13 5.14017 19.1288 4.96657C19.1276 4.79296 19.161 4.62085 19.2269 4.46022C19.2928 4.29958 19.3897 4.15361 19.5125 4.03079H19.5157Z" stroke="#00A19A" stroke-width="0.8" mask="url(#path-1-inside-1_919_6376)"/>
<path fill-rule="evenodd" clip-rule="evenodd" d="M25.5727 37.9139H10.3894C10.0404 37.9131 9.70591 37.7739 9.4594 37.5269C9.21289 37.2798 9.07447 36.9451 9.07447 36.5962V21.4202C9.07389 21.1599 9.15053 20.9054 9.2948 20.6887C9.43907 20.4721 9.64443 20.3032 9.88482 20.2033C10.1258 20.1035 10.3908 20.0771 10.6467 20.1276C10.9026 20.1781 11.1379 20.3032 11.3228 20.4871L26.503 35.663C26.6871 35.8478 26.8126 36.0827 26.8636 36.3385C26.9147 36.5942 26.8889 36.8593 26.7899 37.1006C26.6905 37.3415 26.5217 37.5474 26.305 37.6922C26.0883 37.8371 25.8334 37.9142 25.5727 37.9139ZM22.4004 35.2784L11.7232 24.601V35.2784H22.4004Z" stroke="#00A19A" stroke-width="0.8" mask="url(#path-1-inside-1_919_6376)"/>
<path fill-rule="evenodd" clip-rule="evenodd" d="M2.31815 45.9999H44.6834C44.9442 45.9992 45.1989 45.9212 45.4155 45.7759C45.6321 45.6306 45.8009 45.4245 45.9005 45.1835C45.9998 44.9428 46.0255 44.6781 45.9744 44.4228C45.9233 44.1675 45.7977 43.9331 45.6135 43.7491L3.24845 1.3956C3.06439 1.21145 2.82987 1.08593 2.57452 1.03487C2.31917 0.983815 2.05434 1.0095 1.81359 1.10872C1.57285 1.20844 1.36714 1.37728 1.22234 1.59387C1.07753 1.81045 1.0001 2.06506 1 2.32557V44.6822C1 45.0317 1.13897 45.3669 1.38616 45.614C1.63335 45.8611 1.96857 45.9999 2.31815 45.9999ZM41.4985 43.3613H35.4535V41.9585C35.4543 41.7852 35.4209 41.6134 35.3553 41.453C35.2896 41.2926 35.1929 41.1467 35.0707 41.0237C34.9486 40.9007 34.8034 40.803 34.6435 40.7362C34.4835 40.6694 34.312 40.6348 34.1386 40.6344C33.7876 40.6353 33.4511 40.775 33.2029 41.0232C32.9547 41.2713 32.815 41.6076 32.8141 41.9585V43.3613H30.178V41.9585C30.1788 41.7852 30.1454 41.6134 30.0797 41.453C30.0141 41.2926 29.9173 41.1467 29.7952 41.0237C29.6731 40.9007 29.5279 40.803 29.3679 40.7362C29.208 40.6694 29.0364 40.6348 28.8631 40.6344C28.6895 40.6348 28.5177 40.6694 28.3576 40.7362C28.1974 40.8029 28.0521 40.9006 27.9297 41.0236C27.8073 41.1465 27.7102 41.2923 27.6442 41.4527C27.5782 41.6132 27.5445 41.785 27.5449 41.9585V43.3613H24.9088V41.9585C24.9088 41.6084 24.7701 41.2726 24.5231 41.0244C24.276 40.7763 23.9408 40.6361 23.5906 40.6344C23.2399 40.6353 22.9038 40.7751 22.6561 41.0234C22.4084 41.2716 22.2694 41.6079 22.2694 41.9585V43.3613H19.6332V41.9585C19.6336 41.785 19.5998 41.6132 19.5337 41.4527C19.4677 41.2923 19.3708 41.1465 19.2484 41.0236C19.126 40.9006 18.9805 40.8029 18.8204 40.7362C18.6603 40.6694 18.4886 40.6348 18.3151 40.6344C18.1416 40.6348 17.9699 40.6694 17.8097 40.7362C17.6496 40.8029 17.5041 40.9006 17.3817 41.0236C17.2593 41.1465 17.1624 41.2923 17.0964 41.4527C17.0304 41.6132 16.9965 41.785 16.9969 41.9585V43.3613H14.3577V41.9585C14.3585 41.6087 14.2205 41.2728 13.974 41.0246C13.7275 40.7764 13.3925 40.6361 13.0426 40.6344C12.8691 40.6348 12.6974 40.6694 12.5373 40.7362C12.3771 40.8029 12.2318 40.9006 12.1094 41.0236C11.987 41.1465 11.8899 41.2923 11.8239 41.4527C11.7579 41.6132 11.7242 41.785 11.7246 41.9585V43.3613H9.08845V41.9585C9.08845 41.6079 8.94921 41.2716 8.70152 41.0234C8.45383 40.7751 8.11777 40.6353 7.76706 40.6344C7.4169 40.6361 7.08178 40.7763 6.83476 41.0244C6.58775 41.2726 6.44906 41.6084 6.44906 41.9585V43.3613H3.63631V37.9138H5.13091C5.48049 37.9138 5.81571 37.775 6.0629 37.5279C6.31009 37.2808 6.44906 36.9456 6.44906 36.5961C6.44906 36.2466 6.31009 35.9115 6.0629 35.6644C5.81571 35.4172 5.48049 35.2784 5.13091 35.2784H3.63631V30.0074H5.13091C5.48078 30.0066 5.81611 29.8671 6.06321 29.6195C6.31031 29.3718 6.44906 29.0363 6.44906 28.6865C6.44906 28.3371 6.31009 28.0019 6.0629 27.7548C5.81571 27.5076 5.48049 27.3688 5.13091 27.3688H3.63631V22.0979H5.13091C5.48049 22.0979 5.81571 21.959 6.0629 21.7119C6.31009 21.4648 6.44906 21.1296 6.44906 20.7802C6.44906 20.4304 6.31031 20.0949 6.06321 19.8473C5.81611 19.5996 5.48078 19.4601 5.13091 19.4593H3.63631V14.1883H5.13091C5.48049 14.1883 5.81571 14.0495 6.0629 13.8024C6.31009 13.5553 6.44906 13.2201 6.44906 12.8706C6.44906 12.6977 6.41495 12.5265 6.34867 12.3668C6.2824 12.2071 6.18519 12.0621 6.06275 11.94C5.94031 11.8178 5.79507 11.7211 5.63517 11.6552C5.47527 11.5893 5.30386 11.5556 5.13091 11.556H3.63631V5.5096L41.4985 43.3613Z" stroke="#00A19A" stroke-width="0.8" mask="url(#path-1-inside-1_919_6376)"/>
</g>
</g>
</g>
</svg>
