<svg width="47" height="47" viewBox="0 0 47 47" fill="none" xmlns="http://www.w3.org/2000/svg">
<g id="Frame 1388">
<g id="Group 1032">
<path id="Vector" d="M24.3988 2.18605C24.399 2.18613 24.3991 2.18621 24.3993 2.18629L43.5262 10.4264C43.5267 10.4266 43.5272 10.4269 43.5278 10.4271C44.4041 10.8099 45 11.7088 45 12.7325V37.2453H44.9233H44.8376H44.752H44.6663H44.5806H44.4949H44.4092H44.3235H44.2378H44.1521H44.0664H43.9807H43.895H43.8093H43.7236H43.6379H43.5522H43.4666H43.3809H43.2952H43.2095H43.1238H43.0381H42.9524H42.8667H42.781H42.6953H42.6096H42.5239H42.4382H42.3525H42.2668H42.1812H42.0955H42.0098H41.9241H41.8384H41.7527H41.667H41.5813H41.4956H41.4099H41.3242H41.2385H41.1528H41.0671H40.9814H40.8958H40.8101H40.7244H40.6387H40.553H40.4673H40.3816H40.2959H40.2102H40.1245H40.0388H39.9531H39.8674H39.7817H39.696H39.6104H39.5247H39.439H39.3533H39.2676H39.1819H39.0962H39.0105H38.9248H38.8391H38.7534H38.6677H38.582H38.4963H38.4106H38.325H38.2393H38.1536H38.0679H37.9822H37.8965H37.8108H37.7251H37.6394H37.5537H37.468H37.3823H37.2966H37.2109H37.1252H37.0396H36.9539H36.8682H36.7825H36.6968H36.6111H36.5254H36.4397H36.354H36.2683H36.1826H36.0969H36.0112H35.9255H35.8398H35.7542H35.6685H35.5828H35.4971H35.4114H35.3257H35.24H35.1543H35.0686H34.9829H34.8972H34.8115H34.7258H34.6401H34.5544H34.4688H34.3831H34.2974H34.2117H34.126H34.0403H33.9546H33.8689H33.7832H33.6975H33.6118H33.5261H33.4404H33.3547H33.269H33.1833H33.0977H33.012H32.9263H32.8406H32.7549H32.6692H32.5835H32.4978H32.4121H32.3264H32.2407H32.155H32.0693H31.9836H31.8979H31.8123H31.7266H31.6409H31.5552H31.4695H31.3838H31.2981H31.2124H31.1267H31.041H30.9553H30.8696H30.7839H30.6982H30.6125H30.5269H30.4412H30.3555H30.2698H30.1841H30.0984H30.0127H29.927H29.8413H29.7556H29.6699H29.5842H29.4985H29.4128H29.3271H29.2415H29.1558H29.0701H28.9844H28.8987H28.813H28.7273H28.6416H28.5559H28.4702H28.3845H28.2988H28.2131H28.1274H28.0417H27.9561H27.8704H27.7847H27.699H27.6133H27.5276H27.4419H27.3562H27.2705H27.1848H27.0991H27.0134H26.9277H26.842H26.7563H26.6707H26.585H26.4993H26.4136H26.3279H26.2422H26.1565H26.0708H25.9851H25.8994H25.8137H25.728H25.6423H25.5566H25.4709H25.3853H25.2996H25.2139H25.1282H25.0425H24.9568H24.8711H24.7854H24.6997H24.614H24.5283H24.4426H24.3569H24.2712H24.1855H24.0999H24.0142H23.9285H23.8428H23.7571H23.6714H23.5857H23.5H23.4143H23.3286H23.2429H23.1572H23.0715H22.9858H22.9001H22.8145H22.7288H22.6431H22.5574H22.4717H22.386H22.3003H22.2146H22.1289H22.0432H21.9575H21.8718H21.7861H21.7004H21.6147H21.5291H21.4434H21.3577H21.272H21.1863H21.1006H21.0149H20.9292H20.8435H20.7578H20.6721H20.5864H20.5007H20.415H20.3293H20.2437H20.158H20.0723H19.9866H19.9009H19.8152H19.7295H19.6438H19.5581H19.4724H19.3867H19.301H19.2153H19.1296H19.0439H18.9583H18.8726H18.7869H18.7012H18.6155H18.5298H18.4441H18.3584H18.2727H18.187H18.1013H18.0156H17.9299H17.8442H17.7585H17.6729H17.5872H17.5015H17.4158H17.3301H17.2444H17.1587H17.073H16.9873H16.9016H16.8159H16.7302H16.6445H16.5588H16.4731H16.3875H16.3018H16.2161H16.1304H16.0447H15.959H15.8733H15.7876H15.7019H15.6162H15.5305H15.4448H15.3591H15.2734H15.1877H15.1021H15.0164H14.9307H14.845H14.7593H14.6736H14.5879H14.5022H14.4165H14.3308H14.2451H14.1594H14.0737H13.988H13.9023H13.8167H13.731H13.6453H13.5596H13.4739H13.3882H13.3025H13.2168H13.1311H13.0454H12.9597H12.874H12.7883H12.7026H12.6169H12.5312H12.4456H12.3599H12.2742H12.1885H12.1028H12.0171H11.9314H11.8457H11.76H11.6743H11.5886H11.5029H11.4172H11.3315H11.2458H11.1602H11.0745H10.9888H10.9031H10.8174H10.7317H10.646H10.5603H10.4746H10.3889H10.3032H10.2175H10.1318H10.0461H9.96045H9.87476H9.78906H9.70337H9.61768H9.53198H9.44629H9.3606H9.2749H9.18921H9.10352H9.01782H8.93213H8.84644H8.76074H8.67505H8.58935H8.50366H8.41797H8.33227H8.24658H8.16089H8.07519H7.9895H7.90381H7.81811H7.73242H7.64673H7.56103H7.47534H7.38965H7.30395H7.21826H7.13257H7.04687H6.96118H6.87549H6.78979H6.7041H6.61841H6.53271H6.44702H6.36133H6.27563H6.18994H6.10425H6.01855H5.93286H5.84717H5.76147H5.67578H5.59009H5.50439H5.4187H5.33301H5.24731H5.16162H5.07593H4.99023H4.90454H4.81885H4.73315H4.64746H4.56177H4.47607H4.39038H4.30469H4.21899H4.1333H4.04761H3.96191H3.87622H3.79053H3.70483H3.61914H3.53345H3.44775H3.36206H3.27637H3.19067H3.10498H3.01929H2.93359H2.8479H2.76221H2.67651H2.59082H2.50513H2.41943H2.33374H2.24805H2.16235H2.07666H2V12.7325C2 11.7088 2.5959 10.81 3.47213 10.4272C3.4727 10.4269 3.47327 10.4267 3.47384 10.4264L22.5936 2.18629C22.5938 2.18622 22.594 2.18614 22.5942 2.18607C22.8813 2.06291 23.1878 2 23.4965 2C23.8052 2 24.1117 2.06291 24.3988 2.18605Z" stroke="white" stroke-width="2"/>
<path id="Rectangle 383" d="M9.20703 16.189H38.0185C38.5708 16.189 39.0185 16.6367 39.0185 17.189V37.2457H8.20703V17.189C8.20703 16.6367 8.65475 16.189 9.20703 16.189Z" stroke="white" stroke-width="2"/>
<path id="Vector_2" d="M17.4901 25.4745C19.083 23.8936 21.2441 23.0028 23.5 23C25.7559 23.0028 27.917 23.8936 29.5099 25.4745C31.1028 27.0554 31.9974 29.1973 32 31.4298C31.9996 35.1119 30.0198 38.4241 27.8777 40.9145C25.9207 43.1897 23.9237 44.6679 23.5 44.9707C23.0763 44.6679 21.0793 43.1897 19.1223 40.9145C16.9801 38.424 15.0002 35.1116 15 31.4292C15.0027 29.1969 15.8973 27.0553 17.4901 25.4745ZM25.9719 27.7445C25.2396 27.2588 24.3794 27.0001 23.5 27.0001C22.321 27.0001 21.1888 27.4648 20.3528 28.2945C19.5166 29.1244 19.0455 30.2517 19.0455 31.4287C19.0455 32.3062 19.3077 33.1635 19.7981 33.892C20.2885 34.6203 20.9847 35.1869 21.7978 35.5212C22.6108 35.8554 23.505 35.9428 24.3676 35.7725C25.2303 35.6022 26.0237 35.1816 26.6472 34.5628C27.2707 33.944 27.6962 33.1546 27.8687 32.2941C28.0411 31.4335 27.9526 30.5416 27.6144 29.7314C27.2764 28.9214 26.7043 28.2302 25.9719 27.7445Z" fill="#00A19A" stroke="white" stroke-width="2"/>
</g>
</g>
</svg>
