<svg width="59" height="59" viewBox="0 0 59 59" fill="none" xmlns="http://www.w3.org/2000/svg">
<path d="M33.8127 37.6606L37.6618 33.8115L47.5386 43.6883C47.9291 44.0788 47.9291 44.712 47.5386 45.1025L45.1037 47.5374C44.7131 47.928 44.08 47.928 43.6894 47.5374L33.8127 37.6606Z" stroke="white" stroke-width="2"/>
<path fill-rule="evenodd" clip-rule="evenodd" d="M35.7214 35.7227C42.1954 29.2487 42.1954 18.7523 35.7214 12.2783C29.2473 5.80426 18.7509 5.80426 12.2769 12.2783C5.8029 18.7523 5.8029 29.2487 12.2769 35.7227C18.7509 42.1967 29.2473 42.1967 35.7214 35.7227ZM32.6356 32.6379C37.4059 27.8676 37.4059 20.1334 32.6356 15.3631C27.8653 10.5927 20.131 10.5927 15.3607 15.3631C10.5904 20.1334 10.5904 27.8676 15.3607 32.6379C20.131 37.4082 27.8653 37.4082 32.6356 32.6379Z" fill="#00A19A" stroke="white" stroke-width="2"/>
<path d="M53.4087 11.2619L53.4086 11.2619L51.4541 12.7973C51.4723 13.027 51.4839 13.2616 51.4839 13.5C51.4839 13.7321 51.4729 13.9574 51.4555 14.1755L53.4156 15.7436L53.4169 15.7447C54.0332 16.2395 54.1552 17.0856 53.8078 17.7332L53.802 17.744L53.796 17.7547L51.5389 21.7255C51.1408 22.4513 50.2932 22.6763 49.6282 22.4304L49.6108 22.424L49.5937 22.4169L47.2997 21.4707C46.9424 21.7199 46.568 21.9466 46.1642 22.1486L45.8203 24.653L45.8186 24.6659L45.8165 24.6787C45.6936 25.4282 45.0468 26 44.2642 26H39.7408C38.9582 26 38.3113 25.4282 38.1885 24.6787L38.1864 24.6659L38.1846 24.653L37.8415 22.1536C37.4339 21.9512 37.0585 21.7206 36.7039 21.4713L34.4113 22.4169L34.3941 22.424L34.3768 22.4304C33.7118 22.6763 32.8642 22.4513 32.4661 21.7255L30.2109 17.7579C29.8121 17.0659 30.0002 16.2167 30.5881 15.7447L30.5894 15.7436L32.5495 14.1755C32.5321 13.9574 32.5211 13.7321 32.5211 13.5C32.5211 13.2616 32.5327 13.027 32.5509 12.7973L30.5963 11.2619L30.588 11.2553L30.5881 11.2553C30.0002 10.7833 29.8121 9.93416 30.2108 9.24217L32.4662 5.27437C32.8463 4.58189 33.689 4.28482 34.4103 4.58265L36.7078 5.52097C37.0603 5.27684 37.4345 5.04801 37.8415 4.84626L38.1846 2.34698L38.1864 2.3341L38.1885 2.32127C38.3113 1.57179 38.9582 1 39.7408 1H44.2632H44.2642V2C44.3994 1.99963 44.5303 2.04793 44.6338 2.13634C44.7373 2.22474 44.8067 2.34755 44.8296 2.483L53.4087 11.2619ZM53.4087 11.2619L53.4169 11.2553C54.0332 10.7605 54.1552 9.91442 53.8078 9.26683L53.802 9.25601L53.796 9.24534L51.5388 5.27439L53.4087 11.2619ZM42.0025 16.525C41.2235 16.525 40.4729 16.2104 39.9168 15.645C39.3601 15.0789 39.0445 14.3076 39.0445 13.5C39.0445 12.6924 39.3601 11.9211 39.9168 11.355C40.4729 10.7896 41.2235 10.475 42.0025 10.475C42.7815 10.475 43.5321 10.7896 44.0882 11.355C44.6448 11.9211 44.9605 12.6924 44.9605 13.5C44.9605 14.3076 44.6448 15.0789 44.0882 15.645C43.5321 16.2104 42.7815 16.525 42.0025 16.525Z" fill="#00A19A" stroke="white" stroke-width="2"/>
</svg>
