<svg width="50" height="51" viewBox="0 0 50 51" fill="none" xmlns="http://www.w3.org/2000/svg">
<path d="M11.1473 27.2401L11.1473 27.24L22.5355 33.815L14.0415 48.5271L10.8271 42.9479C10.4697 42.3276 9.8081 41.9456 9.09226 41.9463L2.65324 41.9521L11.1473 27.2401Z" stroke="white" stroke-width="2"/>
<path d="M39.0246 27.366L39.0246 27.366L27.6364 33.941L36.1304 48.6531L39.3448 43.0738C39.7022 42.4536 40.3638 42.0716 41.0796 42.0722L47.5186 42.0781L39.0246 27.366Z" stroke="white" stroke-width="2"/>
<path d="M23.7028 2.41936C24.4503 1.78233 25.5497 1.78233 26.2972 2.41936L30.0413 5.61004C30.682 6.156 31.4785 6.48595 32.3176 6.55291L37.2212 6.94422C38.2002 7.02235 38.9777 7.79977 39.0558 8.77878L39.4471 13.6824C39.514 14.5215 39.844 15.318 40.39 15.9587L43.5806 19.7028C44.2177 20.4503 44.2177 21.5497 43.5806 22.2972L40.39 26.0413C39.844 26.682 39.514 27.4785 39.4471 28.3176L39.0558 33.2212C38.9777 34.2002 38.2002 34.9777 37.2212 35.0558L32.3176 35.4471C31.4785 35.514 30.682 35.844 30.0413 36.39L26.2972 39.5806C25.5497 40.2177 24.4503 40.2177 23.7028 39.5806L19.9587 36.39C19.318 35.844 18.5215 35.514 17.6824 35.4471L12.7788 35.0558C11.7998 34.9777 11.0223 34.2002 10.9442 33.2212L10.5529 28.3176C10.4859 27.4785 10.156 26.682 9.61004 26.0413L6.41936 22.2972C5.78233 21.5497 5.78233 20.4503 6.41936 19.7028L9.61004 15.9587C10.156 15.318 10.4859 14.5215 10.5529 13.6824L10.9442 8.77879C11.0223 7.79977 11.7998 7.02235 12.7788 6.94422L17.6824 6.55291C18.5215 6.48595 19.318 6.156 19.9587 5.61004L23.7028 2.41936Z" fill="#00A19A" stroke="white" stroke-width="2"/>
<path d="M24.1033 12.0765C24.4701 11.3333 25.5299 11.3333 25.8967 12.0765L27.4585 15.2411C27.8955 16.1265 28.7402 16.7402 29.7173 16.8822L33.2096 17.3897C34.0298 17.5088 34.3573 18.5168 33.7638 19.0953L31.2368 21.5586C30.5297 22.2478 30.2071 23.2408 30.374 24.214L30.9706 27.6921C31.1107 28.5091 30.2532 29.132 29.5196 28.7463L26.396 27.1042C25.5221 26.6447 24.4779 26.6447 23.604 27.1042L20.4804 28.7463C19.7468 29.132 18.8893 28.5091 19.0294 27.6921L19.626 24.214C19.7929 23.2408 19.4703 22.2478 18.7632 21.5586L16.2362 19.0953C15.6427 18.5168 15.9702 17.5088 16.7904 17.3897L20.2827 16.8822C21.2598 16.7402 22.1045 16.1265 22.5415 15.2411L21.6447 14.7985L22.5415 15.2411L24.1033 12.0765Z" stroke="white" stroke-width="2"/>
</svg>
