<svg width="47" height="47" viewBox="0 0 47 47" fill="none" xmlns="http://www.w3.org/2000/svg">
<g id="Frame 1389">
<path id="Vector (Stroke)" fill-rule="evenodd" clip-rule="evenodd" d="M36.6736 5.37877C28.5341 2.04041 19.4659 2.04041 11.3264 5.37877L10.0393 5.90666C9.27659 6.21949 8.78749 7.00903 8.84197 7.86884L10.1376 28.3175C10.3986 32.4363 12.4559 36.2072 15.7261 38.5724L22.9133 43.7708C23.5663 44.2431 24.4337 44.2431 25.0867 43.7708L32.2739 38.5724C35.5441 36.2072 37.6014 32.4363 37.8624 28.3175L39.158 7.86884C39.2125 7.00903 38.7234 6.21949 37.9607 5.90666L36.6736 5.37877ZM10.6409 3.63909C19.2203 0.120303 28.7797 0.120304 37.3591 3.63909L38.6462 4.16698C40.1552 4.78591 41.097 6.33261 40.992 7.98979L39.6964 28.4385C39.4 33.1165 37.063 37.407 33.3368 40.102L26.1496 45.3004C24.8599 46.2332 23.1401 46.2332 21.8504 45.3004L14.6632 40.102C10.937 37.407 8.60004 33.1165 8.30363 28.4385L7.00796 7.98979C6.90296 6.3326 7.84477 4.78591 9.35382 4.16698L10.6409 3.63909ZM27.5553 13.8471C28.6311 12.7507 30.374 12.75 31.4506 13.8457L32.9943 15.4168C34.0735 16.5151 34.0741 18.2985 32.9957 19.3977L24.774 27.7772C23.326 29.253 20.9753 29.2378 19.5457 27.7435L14.9796 22.9704C13.9149 21.8574 13.9376 20.0742 15.0304 18.9899L16.5935 17.4388C17.6836 16.3571 19.4263 16.3802 20.4885 17.4905L22.2124 19.2926L27.5553 13.8471ZM30.1526 15.1732C29.7938 14.8079 29.2128 14.8081 28.8542 15.1736L22.1959 21.9598L19.1732 18.8001C18.8192 18.43 18.2382 18.4223 17.8749 18.7828L16.3118 20.3339C15.9475 20.6954 15.9399 21.2898 16.2948 21.6608L20.8609 26.4338C21.5757 27.181 22.7511 27.1886 23.4751 26.4507L31.6968 18.0712C32.0562 17.7048 32.056 17.1103 31.6963 16.7442L30.1526 15.1732Z" fill="white"/>
</g>
</svg>
