<svg width="46" height="38" viewBox="0 0 46 38" fill="none" xmlns="http://www.w3.org/2000/svg">
<mask id="path-1-inside-1_803_40239" fill="white">
<path fill-rule="evenodd" clip-rule="evenodd" d="M44.6499 1.00007H1.34733C1.17029 0.999725 0.99498 1.03422 0.83135 1.1014C0.66772 1.16858 0.519019 1.26711 0.393833 1.39154C0.268647 1.51598 0.169396 1.66378 0.101808 1.82643C0.0342203 1.98908 -0.000348276 2.16341 2.64516e-06 2.33938V13.0565C-0.000348276 13.2324 0.0342203 13.4068 0.101808 13.5694C0.169396 13.7321 0.268647 13.8797 0.393833 14.0042C0.519019 14.1286 0.66772 14.2273 0.83135 14.2944C0.99498 14.3616 1.17029 14.3961 1.34733 14.3958H6.14039L8.39584 17.3839C8.17841 17.5277 7.97592 17.6927 7.79138 17.8763L5.88477 19.7714C5.12638 20.5253 4.70035 21.5479 4.70035 22.6141C4.70035 23.6803 5.12638 24.7028 5.88477 25.4567C6.58808 26.1568 7.5271 26.5736 8.52099 26.6267C8.57387 27.6135 8.99213 28.5458 9.69526 29.2444C10.398 29.9453 11.3373 30.3621 12.3314 30.4142C12.3833 31.4018 12.8028 32.3349 13.5084 33.032C14.2113 33.7323 15.1507 34.1483 16.1446 34.1993C16.1976 35.1881 16.6168 36.1224 17.3215 36.8223C17.6969 37.1955 18.1426 37.4914 18.633 37.6934C19.1235 37.8954 19.6492 37.9994 20.1801 37.9994C20.711 37.9994 21.2366 37.8954 21.7271 37.6934C22.2176 37.4914 22.6633 37.1955 23.0386 36.8223L24.9452 34.9272C25.273 34.6054 25.5432 34.2303 25.744 33.8181L26.0715 34.1437C26.8303 34.8961 27.8583 35.3186 28.9301 35.3186C30.0018 35.3186 31.0298 34.8961 31.7886 34.1437C32.1483 33.7836 32.4373 33.3598 32.6407 32.8943C33.4114 33.3306 34.3048 33.5037 35.184 33.387C36.0631 33.2704 36.8796 32.8705 37.5083 32.2485C38.2639 31.4936 38.6881 30.4721 38.6881 29.4072C38.6881 28.3423 38.2639 27.3208 37.5083 26.5659L36.3899 25.4567C36.8044 25.2556 37.1824 24.9872 37.5083 24.6627C38.1105 24.0634 38.507 23.2904 38.6414 22.454C38.7758 21.6175 38.6411 20.7603 38.2565 20.0044L40.1392 14.3877H44.6473C44.8247 14.3881 45.0004 14.3536 45.1643 14.2863C45.3283 14.219 45.4772 14.1202 45.6027 13.9955C45.7281 13.8708 45.8276 13.7227 45.8953 13.5597C45.963 13.3967 45.9977 13.2222 45.9973 13.0459V2.3315C45.9973 2.1554 45.9624 1.98095 45.8945 1.81829C45.8266 1.65563 45.7272 1.50793 45.6018 1.38353C45.4764 1.25913 45.3275 1.16053 45.1637 1.09338C44.9999 1.02623 44.8244 0.991842 44.6473 0.99219L44.6499 1.00007ZM7.80464 21.6665L9.70859 19.7714C9.96166 19.5205 10.3044 19.3796 10.6618 19.3796C11.0192 19.3796 11.3621 19.5205 11.6151 19.7714C11.8669 20.0232 12.0081 20.3639 12.0081 20.7189C12.0081 21.074 11.8669 21.4146 11.6151 21.6665L9.70859 23.559C9.58459 23.685 9.4365 23.7853 9.27302 23.8536C9.10955 23.922 8.93401 23.9572 8.75665 23.9572C8.57929 23.9572 8.40368 23.922 8.24021 23.8536C8.07674 23.7853 7.92864 23.685 7.80464 23.559C7.55244 23.3079 7.41081 22.9676 7.41081 22.6128C7.41081 22.258 7.55244 21.9176 7.80464 21.6665ZM11.6151 25.4567L13.5217 23.559C13.7755 23.3094 14.118 23.1694 14.475 23.1694C14.832 23.1694 15.1745 23.3094 15.4283 23.559C15.6789 23.812 15.8193 24.1528 15.8193 24.5079C15.8193 24.8629 15.6789 25.2037 15.4283 25.4567L13.5217 27.3493C13.2683 27.5995 12.9256 27.7399 12.5684 27.7399C12.2113 27.7399 11.8686 27.5995 11.6151 27.3493C11.3629 27.0982 11.2213 26.7578 11.2213 26.403C11.2213 26.0482 11.3629 25.7078 11.6151 25.4567ZM15.4203 31.1395C15.2935 31.0163 15.1927 30.8691 15.1239 30.7066C15.0551 30.5441 15.0197 30.3695 15.0197 30.1932C15.0197 30.0169 15.0551 29.8425 15.1239 29.68C15.1927 29.5175 15.2935 29.3703 15.4203 29.2471L17.3268 27.3519C17.5795 27.1012 17.9219 26.9604 18.2789 26.9604C18.6358 26.9604 18.9782 27.1012 19.2308 27.3519C19.3561 27.4763 19.4555 27.6241 19.5233 27.7867C19.5911 27.9493 19.626 28.1235 19.626 28.2995C19.626 28.4755 19.5911 28.6497 19.5233 28.8123C19.4555 28.9749 19.3561 29.1227 19.2308 29.2471L17.3268 31.1395C17.0734 31.3897 16.7308 31.5302 16.3736 31.5302C16.0164 31.5302 15.6737 31.3897 15.4203 31.1395ZM23.0439 33.0347L21.1373 34.9297C21.0122 35.0543 20.8636 35.1531 20.7 35.2205C20.5364 35.2879 20.3611 35.3226 20.184 35.3226C20.007 35.3226 19.8317 35.2879 19.6681 35.2205C19.5045 35.1531 19.3559 35.0543 19.2308 34.9297C18.9791 34.6778 18.8378 34.3373 18.8378 33.9823C18.8378 33.6272 18.9791 33.2866 19.2308 33.0347L21.1373 31.1395C21.3904 30.8887 21.7332 30.7478 22.0906 30.7478C22.448 30.7478 22.7908 30.8887 23.0439 31.1395C23.2956 31.3914 23.4369 31.7321 23.4369 32.0871C23.4369 32.4422 23.2956 32.7828 23.0439 33.0347ZM29.7142 22.6141L35.5964 28.4609C35.8475 28.7131 35.9883 29.0537 35.9883 29.4085C35.9883 29.7633 35.8475 30.1038 35.5964 30.3561C35.343 30.6063 35.0003 30.7466 34.6431 30.7466C34.2859 30.7466 33.9433 30.6063 33.6898 30.3561L27.805 24.5093C27.5524 24.2586 27.21 24.1177 26.8531 24.1177C26.4961 24.1177 26.1538 24.2586 25.9011 24.5093C25.648 24.7609 25.5057 25.1023 25.5057 25.4582C25.5057 25.8141 25.648 26.1554 25.9011 26.407L29.8767 30.3561C30.002 30.4805 30.1014 30.6281 30.1692 30.7907C30.237 30.9533 30.2719 31.1277 30.2719 31.3037C30.2719 31.4797 30.237 31.6539 30.1692 31.8165C30.1014 31.9791 30.002 32.1269 29.8767 32.2512C29.7527 32.3773 29.6046 32.4774 29.4411 32.5458C29.2777 32.6142 29.1021 32.6494 28.9248 32.6494C28.7474 32.6494 28.5718 32.6142 28.4083 32.5458C28.2448 32.4774 28.0967 32.3773 27.9727 32.2512L24.9505 29.2471C24.2487 28.548 23.3117 28.1314 22.3196 28.0772C22.2659 27.0903 21.8456 26.1584 21.14 25.462C20.4385 24.7574 19.4972 24.3393 18.5012 24.2896C18.452 23.3025 18.0342 22.369 17.3295 21.6718C16.6258 20.9711 15.6854 20.5551 14.6907 20.5045C14.6386 19.516 14.2203 18.5818 13.5164 17.8816C12.9155 17.2817 12.1373 16.8885 11.2956 16.7593L7.90053 12.2597C7.77431 12.0944 7.61116 11.9606 7.42401 11.8687C7.23686 11.7769 7.03081 11.7295 6.82208 11.7303H2.68673V3.69459H22.0773L17.3242 8.4192C16.5671 9.17386 16.142 10.1961 16.142 11.2618C16.142 12.3276 16.5671 13.3499 17.3242 14.1046C18.0829 14.857 19.111 15.2795 20.1827 15.2795C21.2545 15.2795 22.2825 14.857 23.0413 14.1046L25.8985 11.2645L35.5937 20.8963C35.8455 21.1481 35.9867 21.4888 35.9867 21.8438C35.9867 22.1989 35.8455 22.5395 35.5937 22.7914C35.3403 23.0416 34.9976 23.1821 34.6404 23.1821C34.2832 23.1821 33.9406 23.0416 33.6872 22.7914L31.6182 20.7348C31.493 20.6103 31.3444 20.5116 31.1809 20.4442C31.0173 20.3768 30.8419 20.3421 30.6649 20.3421C30.4878 20.3421 30.3125 20.3768 30.1489 20.4442C29.9853 20.5116 29.8367 20.6103 29.7116 20.7348C29.5848 20.8581 29.484 21.0053 29.4153 21.1678C29.3465 21.3303 29.311 21.5048 29.311 21.6811C29.311 21.8574 29.3465 22.0318 29.4153 22.1943C29.484 22.3568 29.5848 22.504 29.7116 22.6273L29.7142 22.6141ZM43.2946 11.7171H39.1592C38.8762 11.7177 38.6006 11.8067 38.3712 11.9715C38.1419 12.1363 37.9704 12.3686 37.8811 12.6355L36.1849 17.6884L30.6649 12.1962C32.1086 11.9952 33.4467 11.3305 34.4754 10.3036C34.7285 10.052 34.8708 9.71067 34.8708 9.35477C34.8708 8.99887 34.7285 8.65755 34.4754 8.40589C34.222 8.15569 33.8792 8.01533 33.5221 8.01533C33.1649 8.01533 32.8222 8.15569 32.5688 8.40589C32.1945 8.78023 31.7493 9.07712 31.2589 9.27929C30.7684 9.48147 30.2425 9.58496 29.7116 9.58378C29.1802 9.58531 28.6538 9.48199 28.1629 9.27981C27.672 9.07763 27.2263 8.78054 26.8517 8.40589C26.5991 8.1552 26.2567 8.01442 25.8998 8.01442C25.5428 8.01442 25.2005 8.1552 24.9478 8.40589L21.1347 12.1962C20.8813 12.4464 20.5386 12.5868 20.1814 12.5868C19.8242 12.5868 19.4815 12.4464 19.2281 12.1962C18.9759 11.9451 18.8342 11.6048 18.8342 11.2499C18.8342 10.8951 18.9759 10.5547 19.2281 10.3036L25.8851 3.68658H43.2892L43.2946 11.7171Z"/>
</mask>
<path fill-rule="evenodd" clip-rule="evenodd" d="M44.6499 1.00007H1.34733C1.17029 0.999725 0.99498 1.03422 0.83135 1.1014C0.66772 1.16858 0.519019 1.26711 0.393833 1.39154C0.268647 1.51598 0.169396 1.66378 0.101808 1.82643C0.0342203 1.98908 -0.000348276 2.16341 2.64516e-06 2.33938V13.0565C-0.000348276 13.2324 0.0342203 13.4068 0.101808 13.5694C0.169396 13.7321 0.268647 13.8797 0.393833 14.0042C0.519019 14.1286 0.66772 14.2273 0.83135 14.2944C0.99498 14.3616 1.17029 14.3961 1.34733 14.3958H6.14039L8.39584 17.3839C8.17841 17.5277 7.97592 17.6927 7.79138 17.8763L5.88477 19.7714C5.12638 20.5253 4.70035 21.5479 4.70035 22.6141C4.70035 23.6803 5.12638 24.7028 5.88477 25.4567C6.58808 26.1568 7.5271 26.5736 8.52099 26.6267C8.57387 27.6135 8.99213 28.5458 9.69526 29.2444C10.398 29.9453 11.3373 30.3621 12.3314 30.4142C12.3833 31.4018 12.8028 32.3349 13.5084 33.032C14.2113 33.7323 15.1507 34.1483 16.1446 34.1993C16.1976 35.1881 16.6168 36.1224 17.3215 36.8223C17.6969 37.1955 18.1426 37.4914 18.633 37.6934C19.1235 37.8954 19.6492 37.9994 20.1801 37.9994C20.711 37.9994 21.2366 37.8954 21.7271 37.6934C22.2176 37.4914 22.6633 37.1955 23.0386 36.8223L24.9452 34.9272C25.273 34.6054 25.5432 34.2303 25.744 33.8181L26.0715 34.1437C26.8303 34.8961 27.8583 35.3186 28.9301 35.3186C30.0018 35.3186 31.0298 34.8961 31.7886 34.1437C32.1483 33.7836 32.4373 33.3598 32.6407 32.8943C33.4114 33.3306 34.3048 33.5037 35.184 33.387C36.0631 33.2704 36.8796 32.8705 37.5083 32.2485C38.2639 31.4936 38.6881 30.4721 38.6881 29.4072C38.6881 28.3423 38.2639 27.3208 37.5083 26.5659L36.3899 25.4567C36.8044 25.2556 37.1824 24.9872 37.5083 24.6627C38.1105 24.0634 38.507 23.2904 38.6414 22.454C38.7758 21.6175 38.6411 20.7603 38.2565 20.0044L40.1392 14.3877H44.6473C44.8247 14.3881 45.0004 14.3536 45.1643 14.2863C45.3283 14.219 45.4772 14.1202 45.6027 13.9955C45.7281 13.8708 45.8276 13.7227 45.8953 13.5597C45.963 13.3967 45.9977 13.2222 45.9973 13.0459V2.3315C45.9973 2.1554 45.9624 1.98095 45.8945 1.81829C45.8266 1.65563 45.7272 1.50793 45.6018 1.38353C45.4764 1.25913 45.3275 1.16053 45.1637 1.09338C44.9999 1.02623 44.8244 0.991842 44.6473 0.99219L44.6499 1.00007ZM7.80464 21.6665L9.70859 19.7714C9.96166 19.5205 10.3044 19.3796 10.6618 19.3796C11.0192 19.3796 11.3621 19.5205 11.6151 19.7714C11.8669 20.0232 12.0081 20.3639 12.0081 20.7189C12.0081 21.074 11.8669 21.4146 11.6151 21.6665L9.70859 23.559C9.58459 23.685 9.4365 23.7853 9.27302 23.8536C9.10955 23.922 8.93401 23.9572 8.75665 23.9572C8.57929 23.9572 8.40368 23.922 8.24021 23.8536C8.07674 23.7853 7.92864 23.685 7.80464 23.559C7.55244 23.3079 7.41081 22.9676 7.41081 22.6128C7.41081 22.258 7.55244 21.9176 7.80464 21.6665ZM11.6151 25.4567L13.5217 23.559C13.7755 23.3094 14.118 23.1694 14.475 23.1694C14.832 23.1694 15.1745 23.3094 15.4283 23.559C15.6789 23.812 15.8193 24.1528 15.8193 24.5079C15.8193 24.8629 15.6789 25.2037 15.4283 25.4567L13.5217 27.3493C13.2683 27.5995 12.9256 27.7399 12.5684 27.7399C12.2113 27.7399 11.8686 27.5995 11.6151 27.3493C11.3629 27.0982 11.2213 26.7578 11.2213 26.403C11.2213 26.0482 11.3629 25.7078 11.6151 25.4567ZM15.4203 31.1395C15.2935 31.0163 15.1927 30.8691 15.1239 30.7066C15.0551 30.5441 15.0197 30.3695 15.0197 30.1932C15.0197 30.0169 15.0551 29.8425 15.1239 29.68C15.1927 29.5175 15.2935 29.3703 15.4203 29.2471L17.3268 27.3519C17.5795 27.1012 17.9219 26.9604 18.2789 26.9604C18.6358 26.9604 18.9782 27.1012 19.2308 27.3519C19.3561 27.4763 19.4555 27.6241 19.5233 27.7867C19.5911 27.9493 19.626 28.1235 19.626 28.2995C19.626 28.4755 19.5911 28.6497 19.5233 28.8123C19.4555 28.9749 19.3561 29.1227 19.2308 29.2471L17.3268 31.1395C17.0734 31.3897 16.7308 31.5302 16.3736 31.5302C16.0164 31.5302 15.6737 31.3897 15.4203 31.1395ZM23.0439 33.0347L21.1373 34.9297C21.0122 35.0543 20.8636 35.1531 20.7 35.2205C20.5364 35.2879 20.3611 35.3226 20.184 35.3226C20.007 35.3226 19.8317 35.2879 19.6681 35.2205C19.5045 35.1531 19.3559 35.0543 19.2308 34.9297C18.9791 34.6778 18.8378 34.3373 18.8378 33.9823C18.8378 33.6272 18.9791 33.2866 19.2308 33.0347L21.1373 31.1395C21.3904 30.8887 21.7332 30.7478 22.0906 30.7478C22.448 30.7478 22.7908 30.8887 23.0439 31.1395C23.2956 31.3914 23.4369 31.7321 23.4369 32.0871C23.4369 32.4422 23.2956 32.7828 23.0439 33.0347ZM29.7142 22.6141L35.5964 28.4609C35.8475 28.7131 35.9883 29.0537 35.9883 29.4085C35.9883 29.7633 35.8475 30.1038 35.5964 30.3561C35.343 30.6063 35.0003 30.7466 34.6431 30.7466C34.2859 30.7466 33.9433 30.6063 33.6898 30.3561L27.805 24.5093C27.5524 24.2586 27.21 24.1177 26.8531 24.1177C26.4961 24.1177 26.1538 24.2586 25.9011 24.5093C25.648 24.7609 25.5057 25.1023 25.5057 25.4582C25.5057 25.8141 25.648 26.1554 25.9011 26.407L29.8767 30.3561C30.002 30.4805 30.1014 30.6281 30.1692 30.7907C30.237 30.9533 30.2719 31.1277 30.2719 31.3037C30.2719 31.4797 30.237 31.6539 30.1692 31.8165C30.1014 31.9791 30.002 32.1269 29.8767 32.2512C29.7527 32.3773 29.6046 32.4774 29.4411 32.5458C29.2777 32.6142 29.1021 32.6494 28.9248 32.6494C28.7474 32.6494 28.5718 32.6142 28.4083 32.5458C28.2448 32.4774 28.0967 32.3773 27.9727 32.2512L24.9505 29.2471C24.2487 28.548 23.3117 28.1314 22.3196 28.0772C22.2659 27.0903 21.8456 26.1584 21.14 25.462C20.4385 24.7574 19.4972 24.3393 18.5012 24.2896C18.452 23.3025 18.0342 22.369 17.3295 21.6718C16.6258 20.9711 15.6854 20.5551 14.6907 20.5045C14.6386 19.516 14.2203 18.5818 13.5164 17.8816C12.9155 17.2817 12.1373 16.8885 11.2956 16.7593L7.90053 12.2597C7.77431 12.0944 7.61116 11.9606 7.42401 11.8687C7.23686 11.7769 7.03081 11.7295 6.82208 11.7303H2.68673V3.69459H22.0773L17.3242 8.4192C16.5671 9.17386 16.142 10.1961 16.142 11.2618C16.142 12.3276 16.5671 13.3499 17.3242 14.1046C18.0829 14.857 19.111 15.2795 20.1827 15.2795C21.2545 15.2795 22.2825 14.857 23.0413 14.1046L25.8985 11.2645L35.5937 20.8963C35.8455 21.1481 35.9867 21.4888 35.9867 21.8438C35.9867 22.1989 35.8455 22.5395 35.5937 22.7914C35.3403 23.0416 34.9976 23.1821 34.6404 23.1821C34.2832 23.1821 33.9406 23.0416 33.6872 22.7914L31.6182 20.7348C31.493 20.6103 31.3444 20.5116 31.1809 20.4442C31.0173 20.3768 30.8419 20.3421 30.6649 20.3421C30.4878 20.3421 30.3125 20.3768 30.1489 20.4442C29.9853 20.5116 29.8367 20.6103 29.7116 20.7348C29.5848 20.8581 29.484 21.0053 29.4153 21.1678C29.3465 21.3303 29.311 21.5048 29.311 21.6811C29.311 21.8574 29.3465 22.0318 29.4153 22.1943C29.484 22.3568 29.5848 22.504 29.7116 22.6273L29.7142 22.6141ZM43.2946 11.7171H39.1592C38.8762 11.7177 38.6006 11.8067 38.3712 11.9715C38.1419 12.1363 37.9704 12.3686 37.8811 12.6355L36.1849 17.6884L30.6649 12.1962C32.1086 11.9952 33.4467 11.3305 34.4754 10.3036C34.7285 10.052 34.8708 9.71067 34.8708 9.35477C34.8708 8.99887 34.7285 8.65755 34.4754 8.40589C34.222 8.15569 33.8792 8.01533 33.5221 8.01533C33.1649 8.01533 32.8222 8.15569 32.5688 8.40589C32.1945 8.78023 31.7493 9.07712 31.2589 9.27929C30.7684 9.48147 30.2425 9.58496 29.7116 9.58378C29.1802 9.58531 28.6538 9.48199 28.1629 9.27981C27.672 9.07763 27.2263 8.78054 26.8517 8.40589C26.5991 8.1552 26.2567 8.01442 25.8998 8.01442C25.5428 8.01442 25.2005 8.1552 24.9478 8.40589L21.1347 12.1962C20.8813 12.4464 20.5386 12.5868 20.1814 12.5868C19.8242 12.5868 19.4815 12.4464 19.2281 12.1962C18.9759 11.9451 18.8342 11.6048 18.8342 11.2499C18.8342 10.8951 18.9759 10.5547 19.2281 10.3036L25.8851 3.68658H43.2892L43.2946 11.7171Z" fill="white" stroke="#00A19A" stroke-width="0.6" mask="url(#path-1-inside-1_803_40239)"/>
</svg>
