<svg width="44" height="45" viewBox="0 0 44 45" fill="none" xmlns="http://www.w3.org/2000/svg">
<g id="Frame 717">
<g id="Group 992" opacity="0.5">
<path id="Rectangle 311" d="M29.6484 2C29.6484 1.44772 29.2007 1 28.6484 1H15.3595C14.8073 1 14.3595 1.44772 14.3595 2V5.77778H29.6484V2Z" fill="#FEFDFC" stroke="#AA9F8E" stroke-width="2"/>
<path id="Rectangle 272" d="M35.3828 6.77734C35.3828 6.22506 34.9351 5.77734 34.3828 5.77734H9.62726C9.07497 5.77734 8.62726 6.22506 8.62726 6.77734V42.9996C8.62726 43.5518 9.07497 43.9996 9.62726 43.9996H34.3828C34.9351 43.9996 35.3828 43.5518 35.3828 42.9996V6.77734Z" fill="#FEFDFC" stroke="#AA9F8E" stroke-width="2"/>
<path id="Rectangle 312" d="M32.5156 35.4443C32.5156 34.8921 32.0679 34.4443 31.5156 34.4443H12.4934C11.9411 34.4443 11.4934 34.8921 11.4934 35.4443V40.1332C11.4934 40.6855 11.9411 41.1332 12.4934 41.1332H31.5156C32.0679 41.1332 32.5156 40.6855 32.5156 40.1332V35.4443Z" fill="#AA9F8E"/>
<path id="Rectangle 313" d="M32.5156 26.8447C32.5156 26.2924 32.0679 25.8447 31.5156 25.8447H12.4934C11.9411 25.8447 11.4934 26.2924 11.4934 26.8447V31.5336C11.4934 32.0859 11.9411 32.5336 12.4934 32.5336H31.5156C32.0679 32.5336 32.5156 32.0859 32.5156 31.5336V26.8447Z" fill="#AA9F8E"/>
<path id="Rectangle 314" d="M32.5156 18.2441C32.5156 17.6919 32.0679 17.2441 31.5156 17.2441H12.4934C11.9411 17.2441 11.4934 17.6919 11.4934 18.2441V22.933C11.4934 23.4853 11.9411 23.933 12.4934 23.933H31.5156C32.0679 23.933 32.5156 23.4853 32.5156 22.933V18.2441Z" fill="#AA9F8E"/>
<path id="Rectangle 315" d="M32.5156 9.64453C32.5156 9.09225 32.0679 8.64453 31.5156 8.64453H12.4934C11.9411 8.64453 11.4934 9.09225 11.4934 9.64453V14.3334C11.4934 14.8857 11.9411 15.3334 12.4934 15.3334H31.5156C32.0679 15.3334 32.5156 14.8857 32.5156 14.3334V9.64453Z" fill="#AA9F8E"/>
</g>
</g>
</svg>
