<svg width="45" height="45" viewBox="0 0 45 45" fill="none" xmlns="http://www.w3.org/2000/svg">
<g id="Frame 716">
<g id="Group 993" opacity="0.5">
<g id="Group 993_2">
<g id="Rectangle 312">
<path d="M29.2578 14.7432C29.2578 15.2954 29.7055 15.7432 30.2578 15.7432H43.0007C43.553 15.7432 44.0007 15.2954 44.0007 14.7432V2.00031C44.0007 1.44802 43.553 1.00031 43.0007 1.00031H30.2578C29.7055 1.00031 29.2578 1.44802 29.2578 2.00031V14.7432Z" fill="#FEFDFC"/>
<path d="M29.2578 15.7432H44.0007H29.2578ZM45.0007 2.00031C45.0007 0.895738 44.1052 0.000307083 43.0007 0.000307083H31.2578C30.1532 0.000307083 29.2578 0.895738 29.2578 2.00031C29.2578 2.00031 29.7055 2.00031 30.2578 2.00031H43.0007H45.0007ZM29.2578 1.00031V15.7432V1.00031ZM43.0007 15.7432C44.1052 15.7432 45.0007 14.8477 45.0007 13.7432V2.00031C45.0007 0.895738 44.1052 0.000307083 43.0007 0.000307083V2.00031V14.7432C43.0007 15.2954 43.0007 15.7432 43.0007 15.7432Z" fill="#AA9F8E"/>
</g>
<g id="Rectangle 314">
<path d="M15.7422 30.2568C15.7422 29.7046 15.2945 29.2568 14.7422 29.2568L1.99933 29.2568C1.44705 29.2568 0.99933 29.7045 0.99933 30.2568L0.999329 42.9997C0.999329 43.552 1.44704 43.9997 1.99933 43.9997L14.7422 43.9997C15.2945 43.9997 15.7422 43.552 15.7422 42.9997L15.7422 30.2568Z" fill="#FEFDFC"/>
<path d="M15.7422 29.2568L0.999331 29.2568L15.7422 29.2568ZM-0.000670681 42.9997C-0.000670777 44.1043 0.89476 44.9997 1.99933 44.9997L13.7422 44.9997C14.8468 44.9997 15.7422 44.1043 15.7422 42.9997C15.7422 42.9997 15.2945 42.9997 14.7422 42.9997L1.99933 42.9997L-0.000670681 42.9997ZM15.7422 43.9997L15.7422 29.2568L15.7422 43.9997ZM1.99933 29.2568C0.894761 29.2568 -0.000669558 30.1523 -0.000669654 31.2568L-0.000670681 42.9997C-0.000670777 44.1043 0.89476 44.9997 1.99933 44.9997L1.99933 42.9997L1.99933 30.2568C1.99933 29.7045 1.99933 29.2568 1.99933 29.2568Z" fill="#AA9F8E"/>
</g>
<g id="Rectangle 313">
<path d="M14.7422 15.7432C15.2945 15.7432 15.7422 15.2954 15.7422 14.7432L15.7422 2.00031C15.7422 1.44802 15.2945 1.00031 14.7422 1.00031L1.99933 1.00031C1.44704 1.00031 0.99933 1.44802 0.99933 2.00031L0.99933 14.7432C0.999331 15.2954 1.44705 15.7432 1.99933 15.7432L14.7422 15.7432Z" fill="#FEFDFC"/>
<path d="M15.7422 15.7432L15.7422 1.00031L15.7422 15.7432ZM1.99933 0.000307684C0.89476 0.000307732 -0.000670128 0.895738 -0.00067008 2.00031L-0.000669567 13.7432C-0.000669519 14.8477 0.894761 15.7432 1.99933 15.7432C1.99933 15.7432 1.99933 15.2954 1.99933 14.7432L1.99933 2.00031L1.99933 0.000307684ZM0.999331 15.7432L15.7422 15.7432L0.999331 15.7432ZM15.7422 2.00031C15.7422 0.895738 14.8468 0.000307122 13.7422 0.000307171L1.99933 0.000307684C0.89476 0.000307732 -0.000670128 0.895738 -0.00067008 2.00031L1.99933 2.00031L14.7422 2.00031C15.2945 2.00031 15.7422 2.00031 15.7422 2.00031Z" fill="#AA9F8E"/>
</g>
<g id="Rectangle 315">
<path d="M30.2578 29.2568C29.7055 29.2568 29.2578 29.7046 29.2578 30.2568L29.2578 42.9997C29.2578 43.552 29.7055 43.9997 30.2578 43.9997L43.0007 43.9997C43.553 43.9997 44.0007 43.552 44.0007 42.9997L44.0007 30.2568C44.0007 29.7046 43.553 29.2568 43.0007 29.2568L30.2578 29.2568Z" fill="#FEFDFC"/>
<path d="M29.2578 29.2568L29.2578 43.9997L29.2578 29.2568ZM43.0007 44.9997C44.1052 44.9997 45.0007 44.1043 45.0007 42.9997L45.0007 31.2568C45.0007 30.1523 44.1052 29.2568 43.0007 29.2568C43.0007 29.2568 43.0007 29.7046 43.0007 30.2568L43.0007 42.9997L43.0007 44.9997ZM44.0007 29.2568L29.2578 29.2568L44.0007 29.2568ZM29.2578 42.9997C29.2578 44.1043 30.1532 44.9997 31.2578 44.9997L43.0007 44.9997C44.1052 44.9997 45.0007 44.1043 45.0007 42.9997L43.0007 42.9997L30.2578 42.9997C29.7055 42.9997 29.2578 42.9997 29.2578 42.9997Z" fill="#AA9F8E"/>
</g>
<path id="Rectangle 311" d="M9.60156 34.1337C9.60156 34.8333 10.1687 35.4004 10.8682 35.4004H34.1349C34.8345 35.4004 35.4016 34.8333 35.4016 34.1337V10.8671C35.4016 10.1675 34.8345 9.60039 34.1349 9.60039H10.8682C10.1687 9.60039 9.60156 10.1675 9.60156 10.8671V34.1337Z" fill="#AA9F8E" stroke="#AA9F8E" stroke-width="2.53333"/>
<path id="Vector 215" d="M1.61719 1.61426L44.0029 44" stroke="#AA9F8E" stroke-width="2"/>
<path id="Vector 216" d="M44 1.61426L1.61428 44" stroke="#AA9F8E" stroke-width="2"/>
<g id="m2">
<path d="M27.6113 21.4545V25.8441H25.8667V21.9025C25.8667 21.0663 25.5178 20.6184 24.6986 20.6184C24.0463 20.6184 23.5305 20.932 23.2878 21.3948C23.2878 21.4993 23.303 21.7382 23.303 21.8875V25.8441H21.5584V21.783C21.5584 21.0813 21.1639 20.6184 20.4206 20.6184C19.7986 20.6184 19.298 20.8872 18.9946 21.3351V25.8441H17.25V19.1254H18.9946V19.8719C19.48 19.3344 20.2841 19.0059 21.1336 19.0059C22.1804 19.0059 22.8782 19.4688 23.1209 20.0809C23.6064 19.4538 24.3649 19.0059 25.4268 19.0059C26.6708 19.0059 27.6113 19.6181 27.6113 21.4545Z" fill="white"/>
<path d="M28.8675 20.6184V19.5285C30.0356 18.8417 31.6285 17.9459 31.6285 17.1844C31.6285 16.8261 31.3706 16.6021 30.9762 16.6021C30.5514 16.6021 30.2177 16.9903 30.157 17.3486L28.8978 16.9156C29.0647 15.9452 29.8839 15.333 31.1279 15.333C32.5235 15.333 33.2517 16.0198 33.2517 16.9903C33.2517 18.2893 31.5678 19.0507 30.8396 19.3493H33.4944V20.6184H28.8675Z" fill="white"/>
</g>
</g>
</g>
</g>
</svg>
