<svg width="90" height="90" viewBox="0 0 90 90" fill="none" xmlns="http://www.w3.org/2000/svg">
<mask id="path-1-inside-1_3_6348" fill="white">
<rect x="36" width="44" height="34" rx="2"/>
</mask>
<rect x="36" width="44" height="34" rx="2" stroke="white" stroke-width="7.4" mask="url(#path-1-inside-1_3_6348)"/>
<mask id="path-2-inside-2_3_6348" fill="white">
<rect x="72" y="45" width="18" height="36" rx="2"/>
</mask>
<rect x="72" y="45" width="18" height="36" rx="2" stroke="white" stroke-width="7.4" mask="url(#path-2-inside-2_3_6348)"/>
<path fill-rule="evenodd" clip-rule="evenodd" d="M55.248 23.9883C53.6971 23.9913 52.2106 24.6039 51.1143 25.6918C50.0179 26.7796 49.4013 28.254 49.3992 29.792V39.7909C48.7732 39.5707 48.1138 39.4584 47.4496 39.4587C46.1561 39.4601 44.8994 39.8864 43.8761 40.6709C42.8527 41.4555 42.1204 42.5541 41.7934 43.7951C41.1117 43.5265 40.3847 43.389 39.6511 43.3901C38.3679 43.391 37.1204 43.8099 36.1006 44.5824C35.0807 45.3548 34.345 46.4382 34.0064 47.6657C33.3216 47.3935 32.5904 47.2546 31.8527 47.2567C30.3011 47.2567 28.813 47.8678 27.7155 48.9554C26.618 50.043 26.001 51.5181 26 53.0567V59.9035C26.0126 65.7267 27.3465 71.4725 29.903 76.7149V88.0627C29.903 88.3169 29.9536 88.5685 30.0519 88.8033C30.1501 89.0381 30.294 89.2515 30.4754 89.4311C30.6569 89.6107 30.8723 89.753 31.1093 89.8499C31.3462 89.9469 31.6002 89.9963 31.8565 89.9958H55.2519C55.5082 89.9963 55.7622 89.9469 55.9992 89.8499C56.2361 89.753 56.4515 89.6107 56.633 89.4311C56.8144 89.2515 56.9584 89.0381 57.0566 88.8033C57.1548 88.5685 57.2054 88.3169 57.2054 88.0627V77.0358L58.9816 75.2555C60.8976 73.3524 62.4159 71.0929 63.4493 68.6066C64.4827 66.1203 65.011 63.4561 65.0038 60.7669C65.0006 59.2679 64.6467 57.7902 63.9701 56.4497C63.2936 55.1092 62.3127 53.9425 61.1046 53.0414C61.1046 46.164 61.1046 29.9679 61.1046 29.7959C61.1025 28.258 60.4858 26.7834 59.3894 25.6955C58.2931 24.6076 56.8067 23.995 55.2558 23.992L55.248 23.9883ZM61.1007 60.7632C61.1063 62.9467 60.6774 65.1097 59.8383 67.1285C58.9993 69.1472 57.7667 70.9819 56.2113 72.5274C55.5524 73.1884 54.9629 73.773 54.5429 74.2047C53.6143 75.137 53.2984 75.4579 53.2984 76.2603V86.1254H33.8023V76.2603C33.8007 75.9604 33.7295 75.6648 33.5942 75.3967C31.1762 70.5834 29.9129 65.281 29.903 59.9035V53.0834C29.9091 52.574 30.1177 52.0876 30.4835 51.7299C30.8493 51.3722 31.3428 51.172 31.8565 51.173C32.3696 51.173 32.862 51.3736 33.227 51.7312C33.592 52.0888 33.8 52.5746 33.8061 53.0834C33.8061 53.5962 34.0115 54.088 34.3772 54.4505C34.7428 54.8131 35.2386 55.0167 35.7557 55.0167C36.2725 55.0157 36.7678 54.8118 37.1332 54.4494C37.4986 54.0871 37.7043 53.5958 37.7053 53.0834V49.2054C37.7053 48.9515 37.7558 48.7 37.8538 48.4655C37.9518 48.2309 38.0953 48.0178 38.2763 47.8382C38.4574 47.6587 38.6723 47.5164 38.9088 47.4192C39.1454 47.3221 39.399 47.272 39.655 47.272C40.1717 47.273 40.667 47.477 41.0324 47.8394C41.3978 48.2017 41.6036 48.6929 41.6046 49.2054V53.072C41.6046 53.3262 41.6551 53.5779 41.7533 53.8127C41.8516 54.0475 41.9955 54.2609 42.1769 54.4405C42.3584 54.62 42.5738 54.7624 42.8108 54.8593C43.0477 54.9562 43.3017 55.0059 43.558 55.0054C44.0744 55.0044 44.5693 54.8001 44.9341 54.4377C45.2989 54.0752 45.5038 53.5841 45.5038 53.072V45.27C45.5048 44.7576 45.7105 44.2664 46.0759 43.904C46.4413 43.5417 46.9367 43.3377 47.4534 43.3367C47.9702 43.3377 48.4655 43.5417 48.8309 43.904C49.1963 44.2664 49.4021 44.7576 49.4031 45.27V53.0261C49.4041 53.5386 49.6098 54.0298 49.9752 54.3921C50.3406 54.7545 50.8359 54.9585 51.3526 54.9595C51.6086 54.9595 51.8622 54.9094 52.0988 54.8123C52.3353 54.7151 52.5502 54.5728 52.7313 54.3933C52.9123 54.2137 53.0558 54.0006 53.1538 53.766C53.2518 53.5315 53.3023 53.28 53.3023 53.0261V29.8226C53.3023 29.3095 53.5075 28.8174 53.8731 28.4542C54.2386 28.091 54.7345 27.8866 55.2519 27.8855C55.7707 27.8855 56.2683 28.0893 56.6359 28.4523C57.0035 28.8154 57.211 29.3081 57.213 29.8226C57.213 30.0022 57.213 48.0247 57.213 54.1035C57.2138 54.4417 57.3039 54.7738 57.4742 55.0667C57.6446 55.3597 57.8893 55.6032 58.184 55.7733C59.0688 56.282 59.8045 57.0111 60.3181 57.8883C60.8317 58.7655 61.1054 59.7603 61.1123 60.7746L61.1007 60.7632Z" fill="white"/>
<path d="M61.1007 60.7632C61.1063 62.9467 60.6774 65.1097 59.8383 67.1285C58.9993 69.1472 57.7667 70.9819 56.2113 72.5274C55.5524 73.1884 54.9629 73.773 54.5429 74.2047C53.6143 75.137 53.2984 75.4579 53.2984 76.2603V86.1254H33.8023V76.2603C33.8007 75.9604 33.7295 75.6648 33.5942 75.3967C31.1762 70.5834 29.9129 65.281 29.903 59.9035V53.0834C29.9091 52.574 30.1177 52.0876 30.4835 51.7299C30.8493 51.3722 31.3428 51.172 31.8565 51.173C32.3696 51.173 32.862 51.3736 33.227 51.7312C33.592 52.0888 33.8 52.5747 33.8061 53.0834C33.8061 53.5962 34.0115 54.088 34.3772 54.4505C34.7428 54.8131 35.2386 55.0167 35.7557 55.0167C36.2725 55.0157 36.7678 54.8118 37.1332 54.4494C37.4986 54.0871 37.7043 53.5959 37.7053 53.0834V49.2054C37.7053 48.9515 37.7558 48.7 37.8538 48.4655C37.9518 48.2309 38.0953 48.0178 38.2763 47.8382C38.4574 47.6587 38.6723 47.5164 38.9088 47.4192C39.1454 47.3221 39.399 47.272 39.655 47.272C40.1717 47.273 40.667 47.477 41.0324 47.8394C41.3978 48.2017 41.6036 48.6929 41.6046 49.2054V53.072C41.6046 53.3262 41.6551 53.5779 41.7533 53.8127C41.8516 54.0475 41.9955 54.2609 42.1769 54.4405C42.3584 54.62 42.5738 54.7624 42.8108 54.8593C43.0477 54.9562 43.3017 55.0059 43.558 55.0054C44.0744 55.0044 44.5693 54.8001 44.9341 54.4377C45.2989 54.0752 45.5038 53.5841 45.5038 53.072V45.2701C45.5048 44.7576 45.7105 44.2664 46.0759 43.9041C46.4413 43.5417 46.9367 43.3377 47.4534 43.3367C47.9702 43.3377 48.4655 43.5417 48.8309 43.9041C49.1963 44.2664 49.4021 44.7576 49.4031 45.2701V53.0261C49.4041 53.5386 49.6098 54.0298 49.9752 54.3921C50.3406 54.7545 50.8359 54.9585 51.3526 54.9595C51.6087 54.9595 51.8622 54.9094 52.0988 54.8123C52.3353 54.7151 52.5502 54.5728 52.7313 54.3933C52.9123 54.2137 53.0558 54.0006 53.1538 53.766C53.2518 53.5315 53.3023 53.28 53.3023 53.0261V29.8226C53.3023 29.3095 53.5075 28.8174 53.8731 28.4542C54.2386 28.091 54.7345 27.8866 55.2519 27.8855C55.7707 27.8855 56.2683 28.0893 56.6359 28.4523C57.0035 28.8154 57.211 29.3081 57.213 29.8226V54.1035C57.2138 54.4417 57.3039 54.7738 57.4742 55.0667C57.6446 55.3597 57.8893 55.6032 58.184 55.7733C59.0688 56.282 59.8045 57.0111 60.3181 57.8883C60.8317 58.7655 61.1054 59.7603 61.1123 60.7746L61.1007 60.7632Z" fill="#00A19A"/>
<rect x="1.85" y="16.85" width="25.3" height="25.3" rx="12.65" stroke="white" stroke-width="3.7"/>
<path d="M16.3059 66.6272C16.3397 66.6061 16.3523 66.5878 16.3593 66.5746C16.3687 66.5571 16.3764 66.5314 16.3764 66.5C16.3764 66.4686 16.3687 66.4429 16.3593 66.4254C16.3523 66.4122 16.3397 66.3939 16.3059 66.3728L2.0795 57.4813C2.04126 57.4574 2.01878 57.4554 2.00533 57.4553C1.98572 57.4551 1.95757 57.4605 1.92728 57.4773C1.897 57.4941 1.87753 57.5151 1.86727 57.5318C1.86023 57.5433 1.85 57.5634 1.85 57.6085L1.85 75.3915C1.85 75.4366 1.86023 75.4567 1.86727 75.4682C1.87753 75.4849 1.897 75.5059 1.92728 75.5227C1.95757 75.5395 1.98572 75.5449 2.00533 75.5447C2.01878 75.5446 2.04126 75.5426 2.0795 75.5187L16.3059 66.6272Z" fill="#00A19A" stroke="white" stroke-width="3.7"/>
</svg>
