<svg width="92" height="90" viewBox="0 0 92 90" fill="none" xmlns="http://www.w3.org/2000/svg">
<mask id="path-1-inside-1_803_40275" fill="white">
<rect width="67" height="90" rx="2"/>
</mask>
<rect width="67" height="90" rx="2" stroke="white" stroke-width="7.4" mask="url(#path-1-inside-1_803_40275)"/>
<line x1="12.5" y1="15.5" x2="13.5" y2="15.5" stroke="white" stroke-width="3" stroke-linecap="round"/>
<line x1="12.5" y1="29.5" x2="13.5" y2="29.5" stroke="white" stroke-width="3" stroke-linecap="round"/>
<line x1="12.5" y1="43.5" x2="13.5" y2="43.5" stroke="white" stroke-width="3" stroke-linecap="round"/>
<line x1="12.5" y1="57.5" x2="13.5" y2="57.5" stroke="white" stroke-width="3" stroke-linecap="round"/>
<line x1="12.5" y1="71.5" x2="13.5" y2="71.5" stroke="white" stroke-width="3" stroke-linecap="round"/>
<line x1="21.5" y1="15.5" x2="54.5" y2="15.5" stroke="white" stroke-width="3" stroke-linecap="round"/>
<line x1="21.5" y1="29.5" x2="54.5" y2="29.5" stroke="white" stroke-width="3" stroke-linecap="round"/>
<line x1="21.5" y1="43.5" x2="54.5" y2="43.5" stroke="white" stroke-width="3" stroke-linecap="round"/>
<line x1="21.5" y1="57.5" x2="54.5" y2="57.5" stroke="white" stroke-width="3" stroke-linecap="round"/>
<line x1="21.5" y1="71.5" x2="54.5" y2="71.5" stroke="white" stroke-width="3" stroke-linecap="round"/>
<path d="M72.0041 67.975C70.2864 67.975 68.639 67.2928 67.4243 66.0785C66.2097 64.8642 65.5274 63.2173 65.5274 61.5C65.5274 59.7827 66.2097 58.1358 67.4243 56.9215C68.639 55.7072 70.2864 55.025 72.0041 55.025C73.7218 55.025 75.3692 55.7072 76.5838 56.9215C77.7985 58.1358 78.4808 59.7827 78.4808 61.5C78.4808 63.2173 77.7985 64.8642 76.5838 66.0785C75.3692 67.2928 73.7218 67.975 72.0041 67.975ZM85.7533 63.2945C85.8273 62.7025 85.8828 62.1105 85.8828 61.5C85.8828 60.8895 85.8273 60.279 85.7533 59.65L89.6578 56.6345C90.0094 56.357 90.1019 55.8575 89.8799 55.4505L86.1789 49.0495C85.9568 48.6425 85.4572 48.476 85.0501 48.6425L80.4423 50.4925C79.4801 49.771 78.4808 49.142 77.315 48.6795L76.6303 43.777C76.5927 43.5591 76.4792 43.3615 76.3099 43.2193C76.1405 43.0771 75.9263 42.9994 75.7051 43H68.3031C67.8405 43 67.4519 43.333 67.3778 43.777L66.6932 48.6795C65.5274 49.142 64.5281 49.771 63.5658 50.4925L58.9581 48.6425C58.551 48.476 58.0513 48.6425 57.8293 49.0495L54.1283 55.4505C53.8877 55.8575 53.9988 56.357 54.3504 56.6345L58.2549 59.65C58.1809 60.279 58.1254 60.8895 58.1254 61.5C58.1254 62.1105 58.1809 62.7025 58.2549 63.2945L54.3504 66.3655C53.9988 66.643 53.8877 67.1425 54.1283 67.5495L57.8293 73.9505C58.0513 74.3575 58.551 74.5055 58.9581 74.3575L63.5658 72.489C64.5281 73.229 65.5274 73.858 66.6932 74.3205L67.3778 79.223C67.4519 79.667 67.8405 80 68.3031 80H75.7051C76.1677 80 76.5563 79.667 76.6303 79.223L77.315 74.3205C78.4808 73.8395 79.4801 73.229 80.4423 72.489L85.0501 74.3575C85.4572 74.5055 85.9568 74.3575 86.1789 73.9505L89.8799 67.5495C90.1019 67.1425 90.0094 66.643 89.6578 66.3655L85.7533 63.2945Z" fill="#57B8B2" stroke="white" stroke-width="3.7"/>
</svg>
