<svg width="90" height="84" viewBox="0 0 90 84" fill="none" xmlns="http://www.w3.org/2000/svg">
<mask id="path-1-inside-1_803_40283" fill="white">
<path fill-rule="evenodd" clip-rule="evenodd" d="M86.8399 14.1419L69.9731 1.60749C68.9098 0.803091 67.6603 0.281354 66.3411 0.0908509C65.022 -0.0996525 63.6763 0.0474941 62.4292 0.518221L47.4249 6.15408C46.5032 6.5006 45.6548 7.01775 44.9241 7.67839C44.194 7.01705 43.3455 6.49981 42.4234 6.15408L27.4243 0.518221C26.1819 0.0444983 24.8401 -0.10786 23.5233 0.0752498C22.2065 0.258359 20.9571 0.771022 19.8907 1.5658L2.99248 14.1368C1.45909 15.2947 0.396145 16.9692 0 18.8509V82.3131C0.193963 82.8106 0.533531 83.238 0.974162 83.5389C1.41479 83.8399 1.93592 84.0005 2.46932 83.9998H18.4991C18.8449 83.9998 19.1872 83.9313 19.5062 83.798C19.8253 83.6648 20.1148 83.4696 20.358 83.2236C20.6013 82.9776 20.7934 82.6858 20.9234 82.365C21.0533 82.0442 21.1184 81.7006 21.1149 81.3545V61.8538C25.4363 60.0258 31.1126 60.1096 34.2777 63.8495C34.9302 64.6199 35.7414 65.2399 36.6557 65.6669C37.57 66.0939 38.5658 66.3177 39.5746 66.3232C40.5834 66.3287 41.5815 66.1156 42.5004 65.6986C43.4193 65.2816 44.2371 64.6705 44.8979 63.9073C45.5587 64.6705 46.3766 65.2816 47.2955 65.6986C48.2143 66.1156 49.2124 66.3287 50.2213 66.3232C51.2301 66.3177 52.2259 66.0939 53.1402 65.6669C54.0545 65.2399 54.8657 64.6199 55.5182 63.8495C58.6572 60.1096 64.3648 60.0258 68.6809 61.8538V81.3545C68.6774 81.7033 68.7436 82.0493 68.8755 82.3722C69.0073 82.695 69.2022 82.9884 69.4488 83.2348C69.6954 83.4812 69.9886 83.6756 70.3114 83.807C70.6341 83.9383 70.9798 84.004 71.3282 83.9998H87.3526C87.701 84.004 88.0467 83.9383 88.3694 83.807C88.6922 83.6756 88.9854 83.4812 89.232 83.2348C89.4786 82.9884 89.6736 82.695 89.8055 82.3722C89.9373 82.0493 90.0034 81.7033 89.9999 81.3545V20.5008C89.9972 19.2662 89.708 18.049 89.1551 16.9455C88.6022 15.8419 87.8007 14.8821 86.8139 14.1419H86.8399ZM44.9241 54.2747C41.3045 47.0907 35.1534 41.5051 27.6597 38.5976C22.088 36.4239 18.4886 31.448 18.4886 25.922V25.3195C18.4877 24.2383 18.7379 23.172 19.2195 22.2044C19.7011 21.2367 20.4008 20.3943 21.2635 19.744C22.1261 19.0937 23.1281 18.6532 24.1901 18.4573C25.252 18.2613 26.3449 18.3153 27.3824 18.6151L31.7142 19.8565V23.1512C31.7184 26.6576 33.1115 30.0192 35.5879 32.4986C38.0643 34.978 41.4219 36.3727 44.9241 36.3769C48.4263 36.3727 51.7839 34.978 54.2603 32.4986C56.7368 30.0192 58.1299 26.6576 58.134 23.1512V19.8565L62.4658 18.6151C63.5037 18.3163 64.5967 18.2631 65.6586 18.4598C66.7205 18.6565 67.7223 19.0976 68.5848 19.7483C69.4472 20.399 70.1468 21.2414 70.6284 22.2092C71.1099 23.177 71.3603 24.2436 71.3596 25.3248V25.922C71.3596 31.448 67.755 36.3977 62.1833 38.5976C54.6915 41.5081 48.5413 47.0929 44.9189 54.2747H44.9241ZM40.8434 60.5339C40.6758 60.7004 40.4756 60.8305 40.2554 60.9157C40.0351 61.0009 39.7996 61.0396 39.5637 61.0293C39.3279 61.0189 39.0967 60.9598 38.8848 60.8556C38.6728 60.7514 38.4847 60.6044 38.3322 60.4239C35.8603 57.5625 32.363 55.7901 28.5962 55.4898C24.6887 55.1409 20.7652 55.9534 17.3168 57.8259C16.8767 58.043 16.5064 58.3798 16.2483 58.7975C15.9902 59.2152 15.8547 59.6972 15.8571 60.1883V78.7044H5.11132V20.5008C5.11528 20.0949 5.21165 19.6952 5.39295 19.3322C5.57425 18.9692 5.83572 18.6523 6.15765 18.4056L23.0506 5.83464C23.4052 5.56601 23.8224 5.39235 24.2627 5.33003C24.703 5.26771 25.152 5.31869 25.5671 5.47837L40.5661 11.104C41.0693 11.2957 41.5027 11.6355 41.809 12.0787C42.1154 12.5219 42.2803 13.0476 42.2821 13.5866V30.6308C40.7384 30.0819 39.4019 29.0685 38.456 27.7295C37.51 26.3904 37.0008 24.7913 36.9981 23.1512V17.8555C36.9984 17.2798 36.8111 16.7197 36.4646 16.2603C36.1181 15.8009 35.6313 15.4672 35.0782 15.3099L28.8368 13.5237C27.0127 13.0014 25.0923 12.9103 23.227 13.2577C21.3617 13.6051 19.6024 14.3817 18.0878 15.5258C16.5733 16.6699 15.3449 18.1504 14.4993 19.8509C13.6537 21.5514 13.2141 23.4253 13.2151 25.3248V25.922C13.2151 33.6479 18.1381 40.5567 25.771 43.5265C32.0841 45.9812 37.2579 50.7016 40.2836 56.7678L41.1834 58.5645C41.3424 58.885 41.3971 59.2474 41.3399 59.6006C41.2827 59.9538 41.1164 60.2801 40.8644 60.5339H40.8434ZM84.742 78.7044H73.9911V60.1883C73.9911 58.156 72.0711 57.648 71.8985 57.4909C68.6117 55.8413 64.9285 55.1479 61.2678 55.4898C57.5022 55.7945 54.0064 57.5661 51.5316 60.4239C51.3801 60.6041 51.193 60.751 50.9819 60.8551C50.7708 60.9591 50.5405 61.0182 50.3055 61.0285C50.0704 61.0388 49.8358 61.0003 49.6164 60.9152C49.397 60.8301 49.1976 60.7001 49.0309 60.5339C48.7775 60.281 48.6102 59.9545 48.5529 59.6009C48.4956 59.2473 48.5513 58.8847 48.7118 58.5645L49.6117 56.7678C52.6328 50.7001 57.8057 45.9788 64.119 43.5265C71.7362 40.5567 76.6749 33.6479 76.6749 25.922V25.3195C76.6751 23.4203 76.235 21.5471 75.3891 19.8473C74.5432 18.1475 73.3146 16.6675 71.8001 15.524C70.2857 14.3805 68.5268 13.6046 66.6619 13.2575C64.797 12.9104 62.877 13.0015 61.0533 13.5237L54.8066 15.3099C54.2539 15.468 53.7677 15.8018 53.4213 16.2611C53.0749 16.7203 52.8873 17.28 52.8867 17.8555V23.1512C52.8855 24.7917 52.3769 26.3914 51.4307 27.7307C50.4846 29.0701 49.1472 30.0832 47.6027 30.6308V13.5866C47.6045 13.0476 47.7695 12.5219 48.0759 12.0787C48.3822 11.6355 48.8155 11.2957 49.3186 11.104L64.3231 5.47837C64.7395 5.32088 65.1891 5.27237 65.6295 5.33745C66.0698 5.40252 66.4862 5.57901 66.8394 5.85024L83.7219 18.3846C84.0441 18.6311 84.3059 18.9479 84.4872 19.311C84.6686 19.6741 84.7646 20.0738 84.7682 20.4798L84.742 78.7044Z"/>
</mask>
<path fill-rule="evenodd" clip-rule="evenodd" d="M86.8399 14.1419L69.9731 1.60749C68.9098 0.803091 67.6603 0.281354 66.3411 0.0908509C65.022 -0.0996525 63.6763 0.0474941 62.4292 0.518221L47.4249 6.15408C46.5032 6.5006 45.6548 7.01775 44.9241 7.67839C44.194 7.01705 43.3455 6.49981 42.4234 6.15408L27.4243 0.518221C26.1819 0.0444983 24.8401 -0.10786 23.5233 0.0752498C22.2065 0.258359 20.9571 0.771022 19.8907 1.5658L2.99248 14.1368C1.45909 15.2947 0.396145 16.9692 0 18.8509V82.3131C0.193963 82.8106 0.533531 83.238 0.974162 83.5389C1.41479 83.8399 1.93592 84.0005 2.46932 83.9998H18.4991C18.8449 83.9998 19.1872 83.9313 19.5062 83.798C19.8253 83.6648 20.1148 83.4696 20.358 83.2236C20.6013 82.9776 20.7934 82.6858 20.9234 82.365C21.0533 82.0442 21.1184 81.7006 21.1149 81.3545V61.8538C25.4363 60.0258 31.1126 60.1096 34.2777 63.8495C34.9302 64.6199 35.7414 65.2399 36.6557 65.6669C37.57 66.0939 38.5658 66.3177 39.5746 66.3232C40.5834 66.3287 41.5815 66.1156 42.5004 65.6986C43.4193 65.2816 44.2371 64.6705 44.8979 63.9073C45.5587 64.6705 46.3766 65.2816 47.2955 65.6986C48.2143 66.1156 49.2124 66.3287 50.2213 66.3232C51.2301 66.3177 52.2259 66.0939 53.1402 65.6669C54.0545 65.2399 54.8657 64.6199 55.5182 63.8495C58.6572 60.1096 64.3648 60.0258 68.6809 61.8538V81.3545C68.6774 81.7033 68.7436 82.0493 68.8755 82.3722C69.0073 82.695 69.2022 82.9884 69.4488 83.2348C69.6954 83.4812 69.9886 83.6756 70.3114 83.807C70.6341 83.9383 70.9798 84.004 71.3282 83.9998H87.3526C87.701 84.004 88.0467 83.9383 88.3694 83.807C88.6922 83.6756 88.9854 83.4812 89.232 83.2348C89.4786 82.9884 89.6736 82.695 89.8055 82.3722C89.9373 82.0493 90.0034 81.7033 89.9999 81.3545V20.5008C89.9972 19.2662 89.708 18.049 89.1551 16.9455C88.6022 15.8419 87.8007 14.8821 86.8139 14.1419H86.8399ZM44.9241 54.2747C41.3045 47.0907 35.1534 41.5051 27.6597 38.5976C22.088 36.4239 18.4886 31.448 18.4886 25.922V25.3195C18.4877 24.2383 18.7379 23.172 19.2195 22.2044C19.7011 21.2367 20.4008 20.3943 21.2635 19.744C22.1261 19.0937 23.1281 18.6532 24.1901 18.4573C25.252 18.2613 26.3449 18.3153 27.3824 18.6151L31.7142 19.8565V23.1512C31.7184 26.6576 33.1115 30.0192 35.5879 32.4986C38.0643 34.978 41.4219 36.3727 44.9241 36.3769C48.4263 36.3727 51.7839 34.978 54.2603 32.4986C56.7368 30.0192 58.1299 26.6576 58.134 23.1512V19.8565L62.4658 18.6151C63.5037 18.3163 64.5967 18.2631 65.6586 18.4598C66.7205 18.6565 67.7223 19.0976 68.5848 19.7483C69.4472 20.399 70.1468 21.2414 70.6284 22.2092C71.1099 23.177 71.3603 24.2436 71.3596 25.3248V25.922C71.3596 31.448 67.755 36.3977 62.1833 38.5976C54.6915 41.5081 48.5413 47.0929 44.9189 54.2747H44.9241ZM40.8434 60.5339C40.6758 60.7004 40.4756 60.8305 40.2554 60.9157C40.0351 61.0009 39.7996 61.0396 39.5637 61.0293C39.3279 61.0189 39.0967 60.9598 38.8848 60.8556C38.6728 60.7514 38.4847 60.6044 38.3322 60.4239C35.8603 57.5625 32.363 55.7901 28.5962 55.4898C24.6887 55.1409 20.7652 55.9534 17.3168 57.8259C16.8767 58.043 16.5064 58.3798 16.2483 58.7975C15.9902 59.2152 15.8547 59.6972 15.8571 60.1883V78.7044H5.11132V20.5008C5.11528 20.0949 5.21165 19.6952 5.39295 19.3322C5.57425 18.9692 5.83572 18.6523 6.15765 18.4056L23.0506 5.83464C23.4052 5.56601 23.8224 5.39235 24.2627 5.33003C24.703 5.26771 25.152 5.31869 25.5671 5.47837L40.5661 11.104C41.0693 11.2957 41.5027 11.6355 41.809 12.0787C42.1154 12.5219 42.2803 13.0476 42.2821 13.5866V30.6308C40.7384 30.0819 39.4019 29.0685 38.456 27.7295C37.51 26.3904 37.0008 24.7913 36.9981 23.1512V17.8555C36.9984 17.2798 36.8111 16.7197 36.4646 16.2603C36.1181 15.8009 35.6313 15.4672 35.0782 15.3099L28.8368 13.5237C27.0127 13.0014 25.0923 12.9103 23.227 13.2577C21.3617 13.6051 19.6024 14.3817 18.0878 15.5258C16.5733 16.6699 15.3449 18.1504 14.4993 19.8509C13.6537 21.5514 13.2141 23.4253 13.2151 25.3248V25.922C13.2151 33.6479 18.1381 40.5567 25.771 43.5265C32.0841 45.9812 37.2579 50.7016 40.2836 56.7678L41.1834 58.5645C41.3424 58.885 41.3971 59.2474 41.3399 59.6006C41.2827 59.9538 41.1164 60.2801 40.8644 60.5339H40.8434ZM84.742 78.7044H73.9911V60.1883C73.9911 58.156 72.0711 57.648 71.8985 57.4909C68.6117 55.8413 64.9285 55.1479 61.2678 55.4898C57.5022 55.7945 54.0064 57.5661 51.5316 60.4239C51.3801 60.6041 51.193 60.751 50.9819 60.8551C50.7708 60.9591 50.5405 61.0182 50.3055 61.0285C50.0704 61.0388 49.8358 61.0003 49.6164 60.9152C49.397 60.8301 49.1976 60.7001 49.0309 60.5339C48.7775 60.281 48.6102 59.9545 48.5529 59.6009C48.4956 59.2473 48.5513 58.8847 48.7118 58.5645L49.6117 56.7678C52.6328 50.7001 57.8057 45.9788 64.119 43.5265C71.7362 40.5567 76.6749 33.6479 76.6749 25.922V25.3195C76.6751 23.4203 76.235 21.5471 75.3891 19.8473C74.5432 18.1475 73.3146 16.6675 71.8001 15.524C70.2857 14.3805 68.5268 13.6046 66.6619 13.2575C64.797 12.9104 62.877 13.0015 61.0533 13.5237L54.8066 15.3099C54.2539 15.468 53.7677 15.8018 53.4213 16.2611C53.0749 16.7203 52.8873 17.28 52.8867 17.8555V23.1512C52.8855 24.7917 52.3769 26.3914 51.4307 27.7307C50.4846 29.0701 49.1472 30.0832 47.6027 30.6308V13.5866C47.6045 13.0476 47.7695 12.5219 48.0759 12.0787C48.3822 11.6355 48.8155 11.2957 49.3186 11.104L64.3231 5.47837C64.7395 5.32088 65.1891 5.27237 65.6295 5.33745C66.0698 5.40252 66.4862 5.57901 66.8394 5.85024L83.7219 18.3846C84.0441 18.6311 84.3059 18.9479 84.4872 19.311C84.6686 19.6741 84.7646 20.0738 84.7682 20.4798L84.742 78.7044Z" fill="white" stroke="#00A69F" stroke-width="1.4" stroke-linejoin="round" mask="url(#path-1-inside-1_803_40283)"/>
</svg>
