<svg width="226" height="661" viewBox="0 0 226 661" fill="none" xmlns="http://www.w3.org/2000/svg">
<g style="mix-blend-mode:multiply" opacity="0.22">
<path d="M113 661C49.6326 661 -2.04726e-06 614.164 -5.11127e-06 544.068C-8.03788e-06 477.115 43.3895 427.136 113 427.136C179.177 427.136 226 477.115 226 544.068C226 611.021 182.611 661 113 661ZM113 607.563C150.459 607.563 179.177 579.273 179.177 544.068C179.177 502.261 149.834 480.572 113 480.572C73.0442 480.572 46.8232 508.548 46.8232 544.068C46.8232 580.531 73.0442 607.563 113 607.563Z" fill="#E2DBD0"/>
<path d="M162.32 310.135C129.544 310.135 133.602 401.92 63.0552 401.92C29.3425 401.92 -1.25064e-05 374.887 -1.443e-05 330.881C-1.56666e-05 302.591 9.36462 279.959 24.0359 266.128L61.4945 293.161C52.442 302.905 46.8232 310.135 46.8232 326.48C46.8232 340.311 53.0663 348.483 63.0552 348.483C99.2652 348.483 90.5249 256.698 161.696 256.698C199.779 256.698 226 289.703 226 332.138C226 361.685 213.514 395.948 190.102 406.635L156.077 378.031C171.997 365.457 179.177 346.283 179.177 330.881C179.177 317.679 172.622 310.135 162.32 310.135Z" fill="#E2DBD0"/>
<path d="M113 236.379C49.6326 236.379 -2.0608e-05 189.543 -2.3672e-05 119.447C-2.65987e-05 52.4938 43.3895 2.51468 113 2.51468C142.655 2.51468 168.564 12.5734 187.917 29.8617L222.254 1.7392e-05L222.254 58.1518L214.45 65.0671C221.942 81.0981 226 99.6438 226 119.447C226 186.4 182.611 236.379 113 236.379ZM113 182.942C150.459 182.942 179.177 154.652 179.177 119.447C179.177 111.589 178.24 104.673 176.367 98.0722L156.39 115.361L127.047 82.3555L148.273 64.1241C138.285 58.7804 126.11 55.9514 113 55.9514C73.0442 55.9514 46.8232 83.9272 46.8232 119.447C46.8232 155.91 73.0442 182.942 113 182.942Z" fill="#E2DBD0"/>
</g>
</svg>
