<svg width="884" height="304" viewBox="0 0 884 304" fill="none" xmlns="http://www.w3.org/2000/svg">
<g style="mix-blend-mode:multiply" opacity="0.2">
<path d="M0 152C0 66.7624 62.6366 0 156.381 0C245.922 0 312.763 58.3646 312.763 152C312.763 241.017 245.922 304 156.381 304C66.8404 304 0 245.635 0 152ZM71.4646 152C71.4646 202.387 109.299 241.017 156.381 241.017C212.292 241.017 241.298 201.547 241.298 152C241.298 98.2542 203.884 62.9834 156.381 62.9834C107.617 62.9834 71.4646 98.2542 71.4646 152Z" fill="#E2DBD0"/>
<path d="M469.236 218.343C469.236 174.254 346.485 179.713 346.485 84.8177C346.485 39.4696 382.638 0 441.491 0C479.325 0 509.592 12.5967 528.089 32.3315L491.937 82.7182C478.905 70.5414 469.236 62.9834 447.376 62.9834C428.88 62.9834 417.95 71.3812 417.95 84.8177C417.95 133.525 540.701 121.768 540.701 217.503C540.701 268.729 496.561 304 439.809 304C400.294 304 354.472 287.204 340.179 255.713L378.434 209.945C395.249 231.359 420.892 241.017 441.491 241.017C459.147 241.017 469.236 232.199 469.236 218.343Z" fill="#E2DBD0"/>
<path d="M567.874 152C567.874 66.7624 630.511 0 724.256 0C813.797 0 880.637 58.3646 880.637 152C880.637 191.89 867.185 226.74 844.064 252.773L884 298.961H806.23L796.981 288.464C775.542 298.541 750.74 304 724.256 304C634.715 304 567.874 245.635 567.874 152ZM639.339 152C639.339 202.387 677.173 241.017 724.256 241.017C734.765 241.017 744.013 239.757 752.841 237.238L729.721 210.365L773.86 170.895L798.242 199.448C805.389 186.011 809.172 169.635 809.172 152C809.172 98.2542 771.759 62.9834 724.256 62.9834C675.492 62.9834 639.339 98.2542 639.339 152Z" fill="#E2DBD0"/>
</g>
</svg>
