<svg width="122" height="70" viewBox="0 0 122 70" fill="none" xmlns="http://www.w3.org/2000/svg">
<path d="M27.5 2C20.4742 2.00792 13.7385 4.78363 8.77047 9.71819C3.80249 14.6527 1.00797 21.3432 1 28.3217C1 50.8447 25.0909 67.8551 26.1178 68.567C26.5229 68.8488 27.0054 69 27.5 69C27.9946 69 28.4771 68.8488 28.8822 68.567C29.9091 67.8551 54 50.8447 54 28.3217C53.992 21.3432 51.1975 14.6527 46.2295 9.71819C41.2615 4.78363 34.5258 2.00792 27.5 2ZM27.5 18.7502C29.4059 18.7502 31.269 19.3115 32.8537 20.3633C34.4384 21.415 35.6735 22.9099 36.4028 24.6588C37.1322 26.4078 37.323 28.3323 36.9512 30.189C36.5794 32.0457 35.6616 33.7512 34.3139 35.0898C32.9663 36.4284 31.2492 37.34 29.38 37.7093C27.5107 38.0786 25.5731 37.8891 23.8123 37.1646C22.0515 36.4402 20.5465 35.2134 19.4877 33.6393C18.4288 32.0653 17.8636 30.2148 17.8636 28.3217C17.8636 25.7832 18.8789 23.3486 20.6861 21.5536C22.4932 19.7586 24.9443 18.7502 27.5 18.7502Z" fill="#00A19A"/>
<path d="M121 69L0.999994 69" stroke="#00A19A" stroke-width="2" stroke-linecap="round"/>
<path d="M110 41C110 40.4477 109.552 40 109 40H86C85.4477 40 85 40.4477 85 41V69H110V41Z" fill="#FEFDFC" stroke="#00A19A" stroke-width="2"/>
<path d="M103.594 57.5853C103.594 56.8522 102.999 56.2578 102.266 56.2578H93.6375C92.9044 56.2578 92.31 56.8522 92.31 57.5853V69.0018H103.594V57.5853Z" fill="#00A19A"/>
<path d="M101.636 10.9531C101.611 10.4196 101.171 10 100.637 10H95.3626C94.8286 10 94.3887 10.4196 94.3637 10.9531L93 40H103L101.636 10.9531Z" fill="#FEFDFC" stroke="#00A19A" stroke-width="2"/>
<path d="M86 32C86 31.4477 85.5523 31 85 31H49C48.4477 31 48 31.4477 48 32V69H86V32Z" fill="#FEFDFC" stroke="#00A19A" stroke-width="2"/>
<path d="M60 44.4414C59.4477 44.4414 59 43.9937 59 43.4414L59 39.9987C59 39.4464 59.4477 38.9987 60 38.9987L85.6827 38.9987L85.6827 44.4414L60 44.4414Z" fill="#00A19A"/>
<path d="M60 53.0703C59.4477 53.0703 59 52.6226 59 52.0703L59 48.6276C59 48.0753 59.4477 47.6276 60 47.6276L85.6827 47.6276L85.6827 53.0703L60 53.0703Z" fill="#00A19A"/>
<path d="M60 61.6992C59.4477 61.6992 59 61.2515 59 60.6992L59 57.2565C59 56.7042 59.4477 56.2565 60 56.2565L85.6827 56.2565L85.6827 61.6992L60 61.6992Z" fill="#00A19A"/>
<path d="M101.469 16.0352H94.1675" stroke="#00A19A" stroke-width="2"/>
<rect width="13.9209" height="4" transform="matrix(-1 0 0 1 104.812 46.9141)" fill="#FEFDFC"/>
<path d="M104.812 46.9141H99.5497" stroke="#00A19A" stroke-width="2" stroke-linecap="round"/>
<path d="M96.1562 46.9141H90.8935" stroke="#00A19A" stroke-width="2" stroke-linecap="round"/>
<path d="M104.812 50.9141H99.5497" stroke="#00A19A" stroke-width="2" stroke-linecap="round"/>
<path d="M96.1562 50.9141H90.8935" stroke="#00A19A" stroke-width="2" stroke-linecap="round"/>
<path d="M101.469 21.4141H94.1675" stroke="#00A19A" stroke-width="2"/>
<path d="M69.3637 1.9531C69.3887 1.41964 69.8286 1 70.3626 1H75.6374C76.1714 1 76.6113 1.41964 76.6363 1.9531L78 31H68L69.3637 1.9531Z" stroke="#00A19A" stroke-width="2"/>
</svg>
