<svg width="90" height="52" viewBox="0 0 90 52" fill="none" xmlns="http://www.w3.org/2000/svg">
<path d="M88.7656 50.7334L1.00018 50.7334" stroke="#AA9F8E" stroke-width="1.46276" stroke-linecap="round"/>
<path d="M80.7188 30.2548C80.7188 29.8509 80.3913 29.5234 79.9874 29.5234H63.1657C62.7617 29.5234 62.4343 29.8509 62.4343 30.2548V50.7334H80.7188V30.2548Z" fill="#E5E1DB" stroke="#AA9F8E" stroke-width="1.46276"/>
<path d="M76.0312 42.385C76.0312 41.8488 75.5966 41.4141 75.0603 41.4141H68.7495C68.2133 41.4141 67.7786 41.8488 67.7786 42.385V50.7347H76.0312V42.385Z" fill="#AA9F8E"/>
<path d="M74.6042 8.27911C74.5859 7.88895 74.2642 7.58203 73.8736 7.58203H70.0157C69.6251 7.58203 69.3035 7.88895 69.2852 8.27911L68.2878 29.5234H75.6016L74.6042 8.27911Z" fill="#E5E1DB" stroke="#AA9F8E" stroke-width="1.46276"/>
<path d="M63.1641 23.6728C63.1641 23.2689 62.8366 22.9414 62.4327 22.9414H36.103C35.6991 22.9414 35.3717 23.2689 35.3717 23.6728V50.7338H63.1641V23.6728Z" fill="#E5E1DB" stroke="#AA9F8E" stroke-width="1.46276"/>
<path d="M44.1533 32.7725C43.7493 32.7725 43.4219 32.445 43.4219 32.0411L43.4219 29.5231C43.4219 29.1192 43.7493 28.7918 44.1533 28.7918L62.937 28.7918L62.937 32.7725L44.1533 32.7725Z" fill="#AA9F8E"/>
<path d="M44.1533 39.083C43.7493 39.083 43.4219 38.7556 43.4219 38.3516L43.4219 35.8337C43.4219 35.4298 43.7493 35.1023 44.1533 35.1023L62.937 35.1023L62.937 39.083L44.1533 39.083Z" fill="#AA9F8E"/>
<path d="M44.1533 45.3945C43.7493 45.3945 43.4219 45.0671 43.4219 44.6632L43.4219 42.1452C43.4219 41.7413 43.7493 41.4138 44.1533 41.4138L62.937 41.4138L62.937 45.3945L44.1533 45.3945Z" fill="#AA9F8E"/>
<path d="M74.4766 11.9961H69.1366" stroke="#AA9F8E" stroke-width="1.46276"/>
<path d="M74.4766 15.9307H69.1366" stroke="#AA9F8E" stroke-width="1.46276"/>
<path d="M50.9974 1.69708C51.0157 1.30692 51.3374 1 51.728 1H55.5858C55.9764 1 56.2981 1.30692 56.3164 1.69708L57.3138 22.9414H50L50.9974 1.69708Z" stroke="#AA9F8E" stroke-width="1.46276"/>
<rect width="10.1815" height="2.92551" transform="matrix(-1 0 0 1 76.9297 34.5811)" fill="#E5E1DB"/>
<path d="M76.9297 34.5811H73.0806" stroke="#AA9F8E" stroke-width="1.46276" stroke-linecap="round"/>
<path d="M70.5977 34.5811H66.7486" stroke="#AA9F8E" stroke-width="1.46276" stroke-linecap="round"/>
<path d="M76.9297 37.5063H73.0806" stroke="#AA9F8E" stroke-width="1.46276" stroke-linecap="round"/>
<path d="M70.5977 37.5063H66.7486" stroke="#AA9F8E" stroke-width="1.46276" stroke-linecap="round"/>
</svg>
