<svg width="23" height="24" viewBox="0 0 23 24" fill="none" xmlns="http://www.w3.org/2000/svg">
<path d="M11.5 0.5C5.15292 0.5 0 5.65292 0 12C0 18.3471 5.15292 23.5 11.5 23.5C17.8356 23.5 22.9795 18.3655 22.9982 12.034C22.9993 12.0227 22.9999 12.0114 23 12C23 11.9898 22.9995 11.9796 22.9986 11.9694C22.9821 5.63636 17.837 0.5 11.5 0.5ZM11.5 1.19C12.665 1.19 13.7857 1.3763 14.8368 1.7167C14.9123 1.79214 14.985 1.87264 15.0524 1.96142C15.675 1.69761 15.8206 2.93616 15.1952 2.41544C14.4327 2.35886 14.3844 1.33536 13.7604 1.82204C14.0889 2.01754 13.3303 2.62014 14.1705 2.55873C14.4698 1.88253 14.3081 3.05921 14.9999 2.78183C14.5712 2.91477 14.9086 3.12315 15.2 3.20963C16.1759 3.85225 14.9217 3.49253 14.4976 3.69654C14.7 4.26372 14.7975 4.86724 15.4307 5.0241C14.9932 5.43051 15.1761 6.21941 14.5843 6.48805L14.3313 6.72173C14.2927 7.10813 13.363 8.02813 14.0272 8.03963C13.6379 8.1406 14.0203 8.62475 14.0484 8.97412C13.7075 9.62433 13.8242 10.6582 14.5937 10.925C15.0434 11.5934 15.8468 12.5617 16.7842 12.195C17.6019 12.6201 18.4676 11.0736 18.9467 12.1065C19.8111 12.0681 19.702 12.7898 19.5567 13.4824C20.0749 14.2374 20.2828 15.3649 19.72 16.174C19.1953 17.3008 19.5201 18.6323 18.8595 19.7234C18.9276 19.7358 18.995 19.7338 19.0617 19.7248C17.1127 21.6324 14.4456 22.81 11.5 22.81C9.54766 22.8129 7.63129 22.2848 5.95608 21.2821C5.92848 21.0183 6.32408 20.7941 6.25968 20.5675C6.49474 20.5542 7.24178 19.682 7.07779 19.0559C7.81954 18.7098 8.78531 18.6787 8.65904 17.5331C8.33704 16.482 9.71888 16.0814 9.54684 15.0852C9.15906 14.2696 8.01803 14.0341 7.19785 13.7981C6.68863 13.3294 5.8466 13.4009 5.68537 12.5152C5.58141 11.4827 4.16346 11.7941 3.87366 10.8746C4.03259 10.0517 3.82789 10.5947 3.32695 10.3341C3.14525 10.2895 3.25795 10.5742 2.76345 10.4376C2.92376 10.014 2.45893 9.89251 2.39315 10.0813C1.96742 9.90424 1.33952 11.2463 1.10009 10.3757C1.35677 9.74278 1.08491 9.27404 1.16564 8.81818C1.19002 8.73883 1.21785 8.66086 1.24384 8.58243C1.39334 8.34162 1.43773 8.17671 1.4191 8.0946C1.62817 7.55456 1.8791 7.03614 2.16844 6.54233C2.23491 6.66745 2.16568 6.96691 2.04654 7.32939C2.14498 7.51109 2.65604 6.63502 2.21904 7.61965C2.63396 7.02625 2.28689 7.91405 2.52908 7.9198C2.82578 8.49273 1.6767 7.08835 1.54537 8.00858C2.04194 7.90347 1.81677 8.6558 2.39085 8.5132C1.91199 9.16042 3.05394 8.79702 3.43045 8.92053C3.94266 8.58565 2.91755 8.83911 2.94561 8.44121C2.32093 8.34944 2.83705 8.05872 2.77265 7.90623C2.44191 7.73741 2.84763 6.79027 2.40741 6.91746C2.67651 5.78977 3.79017 5.20235 4.52364 4.39965C5.2394 3.74139 5.74839 3.91688 6.58053 3.38857C6.21092 3.28162 6.24496 3.06312 6.75257 2.90603C7.70569 2.55643 6.50026 3.09601 6.8977 3.24528C7.83817 3.56038 7.43015 2.80069 7.76618 2.46903C7.62726 2.35058 7.74525 2.02306 7.71489 1.87149C8.1895 1.69488 8.67602 1.55208 9.17079 1.44415C9.16228 1.65874 9.33409 1.84849 9.68346 1.69094C10.0436 1.44254 10.4563 1.30753 10.876 1.20886C11.0838 1.19666 11.2919 1.19037 11.5 1.19ZM16.9144 3.7637C16.9341 3.7614 16.9539 3.76218 16.9733 3.766C17.2875 3.83086 17.1856 4.73821 17.6548 4.5319C17.1488 3.91251 17.5074 4.02176 17.9961 4.3755C18.7696 4.6285 17.7015 4.63448 18.2229 4.91094C18.7956 5.8291 18.3423 4.01808 18.9463 4.83964C19.3147 5.44914 19.711 5.30056 20.091 5.43764C20.2509 5.64707 20.4031 5.86226 20.5473 6.08279C20.2609 6.05059 19.3152 5.4036 19.5254 5.97929C19.4361 6.1465 18.3234 5.51699 18.15 5.1184C17.6534 4.32421 16.456 5.19384 15.7394 5.0264C16.4583 5.07976 16.232 4.01624 16.6773 3.87939C16.7739 3.80556 16.8512 3.7706 16.9144 3.7637ZM13.5771 6.36914C13.0329 6.43331 13.6733 6.70333 14.1107 6.66193L14.1068 6.38202C13.9461 6.41859 13.766 6.45539 13.5771 6.36914ZM3.84974 8.77862C3.83939 8.77586 3.82881 8.77862 3.81846 8.78805C3.59306 8.93456 4.03834 9.88124 3.67632 10.3297C4.14644 10.1421 4.00568 8.82094 3.84974 8.77862ZM0.83513 10.2382C0.874 10.6343 0.93587 11.0563 1.13643 11.2003C1.45682 10.6869 1.41197 11.7946 1.30939 12.1536C0.91264 13.0092 1.08744 14.0622 1.48695 14.8948C1.72822 15.8359 2.41799 16.5225 2.9693 17.2739C3.29843 18.1548 3.6156 19.0815 4.11079 19.8897C2.00629 17.9179 0.69 15.1147 0.69 12C0.69 11.3997 0.74152 10.8116 0.83513 10.2382Z" fill="#00A19A"/>
</svg>
