<svg width="23" height="24" viewBox="0 0 23 24" fill="none" xmlns="http://www.w3.org/2000/svg">
<path d="M1.37555 10.5927L1.37555 10.5918C1.40777 5.67592 5.41872 1.84602 10.17 1.87586M1.37555 10.5927L10.17 1.87586M1.37555 10.5927C1.35287 15.3403 5.17981 19.3425 10.0753 19.3801M1.37555 10.5927L10.0753 19.3801M10.17 1.87586C15.0893 1.9063 18.9139 5.93187 18.8811 10.675C18.8471 15.5865 14.8218 19.417 10.0753 19.3801M10.17 1.87586L10.0753 19.3801M10.0753 19.3801C10.0752 19.3801 10.0752 19.3801 10.0752 19.3801L10.0791 18.8801L10.0753 19.3801ZM16.2398 3.19138C20.1319 6.35662 21.1267 12.4549 17.5222 16.8097L17.1964 17.2034L17.597 17.5206C17.6567 17.5678 17.6882 17.5902 17.7091 17.6052C17.7314 17.621 17.7418 17.6284 17.7614 17.6481L17.7618 17.6484C17.9967 17.8829 18.2317 18.1173 18.4666 18.3517C19.6997 19.5818 20.9317 20.8107 22.155 22.0477C22.218 22.1115 22.279 22.1929 22.3513 22.3016C22.3715 22.3319 22.3955 22.369 22.4215 22.4092C22.4462 22.4475 22.4729 22.4887 22.5 22.5299V22.5305V22.5313V22.5321V22.5329V22.5337V22.5344V22.5352V22.536V22.5368V22.5376V22.5384V22.5392V22.54V22.5408V22.5415V22.5423V22.5431V22.5439V22.5447V22.5455V22.5463V22.5471V22.5479V22.5487V22.5494V22.5502V22.551V22.5518V22.5526V22.5534V22.5542V22.555V22.5558V22.5566V22.5573V22.5581V22.5589V22.5597V22.5605V22.5613V22.5621V22.5629V22.5637V22.5644V22.5652V22.566V22.5668V22.5676V22.5684V22.5692V22.57V22.5708V22.5716V22.5723V22.5731V22.5739V22.5747V22.5755V22.5763V22.5771V22.5779V22.5787V22.5794V22.5802V22.581V22.5818V22.5826V22.5834V22.5842V22.585V22.5858V22.5866V22.5873V22.5881V22.5889V22.5897V22.5905V22.5913V22.5921V22.5929V22.5937V22.5945V22.5952V22.596V22.5968V22.5976V22.5984V22.5992V22.6V22.6008V22.6016V22.6023V22.6031V22.6039V22.6047V22.6055V22.6063V22.6071V22.6079V22.6087V22.6095V22.6102V22.611V22.6118V22.6126V22.6134V22.6142V22.615V22.6158V22.6166V22.6173V22.6181V22.6189V22.6197V22.6205V22.6213V22.6221V22.6229V22.6237V22.6245V22.6252V22.626V22.6268V22.6276V22.6284V22.6292V22.63V22.6308V22.6316V22.6324V22.6331V22.6339V22.6347V22.6355V22.6363V22.6371V22.6379V22.6387V22.6395V22.6403V22.641V22.6418V22.6426V22.6434V22.6442V22.645V22.6458V22.6466V22.6474V22.6481V22.6489V22.6497V22.6505V22.6513V22.6521V22.6529V22.6537V22.6545V22.6553V22.656V22.6568V22.6576V22.6584V22.6592V22.66V22.6608V22.6616V22.6624V22.6632V22.6639V22.6647V22.6655V22.6663V22.6671V22.6679V22.6687V22.6695V22.6703V22.6711V22.6718V22.6726V22.6734V22.6742V22.675V22.6758V22.6766V22.6774V22.6776C22.4282 22.8229 22.3245 22.9266 22.1776 22.9997C22.1287 22.9996 22.0798 22.9995 22.0308 22.9995C21.9899 22.9725 21.9489 22.9461 21.9108 22.9215C21.87 22.8952 21.8326 22.871 21.8021 22.8507C21.6935 22.7784 21.6121 22.7175 21.5483 22.6545C20.312 21.4313 19.0836 20.2 17.8539 18.9673C17.6137 18.7266 17.3735 18.4858 17.1331 18.245L17.1328 18.2447C17.1328 18.2446 17.1307 18.2425 17.1261 18.2369C17.1212 18.2309 17.1149 18.2226 17.106 18.2102C17.0991 18.2007 17.0929 18.192 17.0851 18.1809C17.0817 18.1761 17.078 18.1709 17.0739 18.165C17.0615 18.1476 17.0457 18.1253 17.0281 18.1023L16.7125 17.6891L16.3119 18.0205C11.9579 21.6236 5.86005 20.635 2.69163 16.7394C-0.456427 12.8686 -0.18482 7.33256 3.32403 3.82377L16.2398 3.19138ZM10.1669 2.37585C5.68812 2.34772 1.90593 5.95881 1.87554 10.5951L10.1669 2.37585Z" fill="#00A19A" stroke="#00A19A"/>
</svg>
