<svg width="1410" height="520" viewBox="0 0 1410 520" fill="none" xmlns="http://www.w3.org/2000/svg">
<g opacity="0.6">
<path d="M-3.24001 83.9408C-3.24001 37.2925 30.9577 1.27844 78.7241 1.27844V-0.967799C29.6718 -0.967799 -5.48625 36.0977 -5.48625 83.9408H-3.24001ZM78.7241 1.27844C125.358 1.27844 160.688 34.9963 160.688 83.9408H162.935C162.935 33.7391 126.582 -0.967799 78.7241 -0.967799V1.27844ZM160.688 83.9408C160.688 131.732 125.348 166.603 78.7241 166.603V168.849C126.592 168.849 162.935 132.968 162.935 83.9408H160.688ZM78.7241 166.603C32.0904 166.603 -3.24001 132.885 -3.24001 83.9408H-5.48625C-5.48625 134.142 30.8665 168.849 78.7241 168.849V166.603ZM15.4601 83.9408C15.4601 121.52 43.1479 150.23 78.7241 150.23V147.984C44.4792 147.984 17.7064 120.372 17.7064 83.9408H15.4601ZM78.7241 150.23C116.657 150.23 141.988 121.256 141.988 83.9408H139.742C139.742 120.171 115.267 147.984 78.7241 147.984V150.23ZM141.988 83.9408C141.988 45.4199 114.29 17.6512 78.7241 17.6512V19.8974C112.98 19.8974 139.742 46.5894 139.742 83.9408H141.988ZM78.7241 17.6512C42.6874 17.6512 15.4601 45.4255 15.4601 83.9408H17.7064C17.7064 46.5837 44.0087 19.8974 78.7241 19.8974V17.6512ZM194.5 165.399V166.522H195.623V165.399H194.5ZM174.717 165.399H173.594V166.522H174.717V165.399ZM174.717 2.48269V1.35957H173.594V2.48269H174.717ZM241.048 96.5086L240.765 95.4216L239.103 95.8535L240.165 97.2033L241.048 96.5086ZM295.275 165.399V166.522H297.589L296.158 164.704L295.275 165.399ZM271.071 165.399L270.18 166.083L270.517 166.522H271.071V165.399ZM221.032 100.232L221.923 99.5484L221.586 99.1093H221.032V100.232ZM194.5 100.232V99.1093H193.377V100.232H194.5ZM194.5 21.1017L194.466 19.9791L193.377 20.0121V21.1017H194.5ZM194.5 81.6134H193.377V82.7366H194.5V81.6134ZM194.5 164.276H174.717V166.522H194.5V164.276ZM175.841 165.399V2.48269H173.594V165.399H175.841ZM174.717 3.60582C179.265 3.60582 189.049 3.48931 198.267 3.37299C207.497 3.25653 216.154 3.14035 218.472 3.14035V0.894104C216.135 0.894104 207.453 1.01066 198.239 1.12693C189.013 1.24334 179.247 1.35957 174.717 1.35957V3.60582ZM218.472 3.14035C240.527 3.14035 254.682 8.62456 263.329 17.159C271.974 25.6912 275.301 37.457 275.301 50.4266H277.547C277.547 37.0969 274.124 24.658 264.907 15.5603C255.691 6.46492 240.87 0.894104 218.472 0.894104V3.14035ZM275.301 50.4266C275.301 75.1985 258.278 90.8728 240.765 95.4216L241.33 97.5957C259.659 92.835 277.547 76.3915 277.547 50.4266H275.301ZM240.165 97.2033L294.393 166.094L296.158 164.704L241.93 95.814L240.165 97.2033ZM295.275 164.276H271.071V166.522H295.275V164.276ZM271.962 164.715L221.923 99.5484L220.141 100.916L270.18 166.083L271.962 164.715ZM221.032 99.1093H194.5V101.356H221.032V99.1093ZM193.377 100.232V165.399H195.623V100.232H193.377ZM217.308 19.5131C212.17 19.5131 202.147 19.7463 194.466 19.9791L194.534 22.2243C202.214 21.9916 212.207 21.7593 217.308 21.7593V19.5131ZM193.377 21.1017V81.6134H195.623V21.1017H193.377ZM194.5 82.7366H218.472V80.4903H194.5V82.7366ZM218.472 82.7366C237.657 82.7366 256.6 70.8496 256.6 50.6594H254.354C254.354 69.1035 236.991 80.4903 218.472 80.4903V82.7366ZM256.6 50.6594C256.6 42.0762 254.211 34.2228 247.972 28.5339C241.751 22.8624 231.889 19.5131 217.308 19.5131V21.7593C231.587 21.7593 240.809 25.043 246.458 30.1938C252.089 35.3273 254.354 42.4855 254.354 50.6594H256.6ZM305.65 165.399H304.527V166.522H305.65V165.399ZM305.65 2.48269V1.35957H304.527V2.48269H305.65ZM325.433 2.48269H326.556V1.35957H325.433V2.48269ZM325.433 165.399V166.522H326.556V165.399H325.433ZM306.774 165.399V2.48269H304.527V165.399H306.774ZM305.65 3.60582H325.433V1.35957H305.65V3.60582ZM324.31 2.48269V165.399H326.556V2.48269H324.31ZM325.433 164.276H305.65V166.522H325.433V164.276ZM423.872 101.163H422.749V102.287H423.872V101.163ZM423.872 82.5444V81.4213H422.749V82.5444H423.872ZM486.478 82.5444H487.601V81.4213H486.478V82.5444ZM486.478 145.151L487.273 145.945L487.601 145.616V145.151H486.478ZM474.143 15.9815L475.13 16.5183L475.582 15.6866L474.839 15.1L474.143 15.9815ZM465.532 31.8076L464.78 32.6414L465.837 33.5961L466.519 32.3444L465.532 31.8076ZM467.859 134.678L468.643 135.483L468.982 135.152V134.678H467.859ZM467.859 101.163H468.982V100.04H467.859V101.163ZM424.995 101.163V82.5444H422.749V101.163H424.995ZM423.872 83.6675H486.478V81.4213H423.872V83.6675ZM485.355 82.5444V145.151H487.601V82.5444H485.355ZM485.684 144.357C478.624 151.417 468.606 156.986 457.799 160.79C446.998 164.592 435.487 166.603 425.501 166.603V168.849C435.763 168.849 447.526 166.788 458.545 162.909C469.556 159.033 479.903 153.315 487.273 145.945L485.684 144.357ZM425.501 166.603C400.383 166.603 380.034 158.428 365.966 144.074C351.895 129.717 344.002 109.072 344.002 83.9408H341.756C341.756 109.546 349.806 130.794 364.362 145.646C378.92 160.5 399.883 168.849 425.501 168.849V166.603ZM344.002 83.9408C344.002 37.6944 375.002 1.27844 422.941 1.27844V-0.967799C373.595 -0.967799 341.756 36.6268 341.756 83.9408H344.002ZM422.941 1.27844C444.845 1.27844 460.413 6.57277 473.447 16.863L474.839 15.1C461.341 4.4438 445.257 -0.967799 422.941 -0.967799V1.27844ZM473.157 15.4447L464.545 31.2708L466.519 32.3444L475.13 16.5183L473.157 15.4447ZM466.284 30.9738C456.468 22.1153 441.033 17.6512 425.268 17.6512V19.8974C440.691 19.8974 455.511 24.2774 464.78 32.6414L466.284 30.9738ZM425.268 17.6512C406.838 17.6512 391.173 24.2142 380.118 35.8337C369.067 47.449 362.703 64.033 362.703 83.9408H364.949C364.949 64.516 371.152 48.5167 381.746 37.382C392.335 26.2513 407.391 19.8974 425.268 19.8974V17.6512ZM362.703 83.9408C362.703 103.964 369.067 120.551 380.21 132.14C391.356 143.732 407.196 150.23 425.967 150.23V147.984C407.732 147.984 392.502 141.682 381.829 130.583C371.153 119.479 364.949 103.483 364.949 83.9408H362.703ZM425.967 150.23C433.784 150.23 442.227 148.693 449.808 146.097C457.375 143.506 464.176 139.829 468.643 135.483L467.076 133.873C462.932 137.905 456.467 141.443 449.08 143.972C441.707 146.496 433.51 147.984 425.967 147.984V150.23ZM468.982 134.678V101.163H466.736V134.678H468.982ZM467.859 100.04H423.872V102.287H467.859V100.04ZM506.159 165.399H505.036V166.522H506.159V165.399ZM506.159 2.48269V1.35957H505.036V2.48269H506.159ZM525.942 2.48269H527.065V1.35957H525.942V2.48269ZM525.942 165.399V166.522H527.065V165.399H525.942ZM507.282 165.399V2.48269H505.036V165.399H507.282ZM506.159 3.60582H525.942V1.35957H506.159V3.60582ZM524.819 2.48269V165.399H527.065V2.48269H524.819ZM525.942 164.276H506.159V166.522H525.942V164.276ZM692.34 165.399V166.522H693.463V165.399H692.34ZM676.514 165.399L675.635 166.098L675.972 166.522H676.514V165.399ZM574.808 37.3933L575.687 36.6946L573.685 34.1744V37.3933H574.808ZM574.808 165.399V166.522H575.931V165.399H574.808ZM556.189 165.399H555.066V166.522H556.189V165.399ZM556.189 2.48269V1.35957H555.066V2.48269H556.189ZM572.015 2.48269L572.895 1.78557L572.558 1.35957H572.015V2.48269ZM673.721 130.954L672.841 131.651L674.844 134.182V130.954H673.721ZM673.721 2.48269V1.35957H672.598V2.48269H673.721ZM692.34 2.48269H693.463V1.35957H692.34V2.48269ZM692.34 164.276H676.514V166.522H692.34V164.276ZM677.393 164.7L575.687 36.6946L573.928 38.092L675.635 166.098L677.393 164.7ZM573.685 37.3933V165.399H575.931V37.3933H573.685ZM574.808 164.276H556.189V166.522H574.808V164.276ZM557.312 165.399V2.48269H555.066V165.399H557.312ZM556.189 3.60582H572.015V1.35957H556.189V3.60582ZM571.134 3.17982L672.841 131.651L674.602 130.257L572.895 1.78557L571.134 3.17982ZM674.844 130.954V2.48269H672.598V130.954H674.844ZM673.721 3.60582H692.34V1.35957H673.721V3.60582ZM691.217 2.48269V165.399H693.463V2.48269H691.217ZM696.977 165.399L695.944 164.957L695.275 166.522H696.977V165.399ZM767.031 1.55174V0.428622H766.289L765.998 1.11021L767.031 1.55174ZM784.02 1.55174L785.053 1.11021L784.762 0.428622H784.02V1.55174ZM854.074 165.399V166.522H855.776L855.107 164.957L854.074 165.399ZM832.895 165.399L831.862 165.838L832.152 166.522H832.895V165.399ZM811.949 116.059L812.983 115.62L812.692 114.935H811.949V116.059ZM737.706 116.059V114.935H736.959L736.67 115.624L737.706 116.059ZM716.992 165.399V166.522H717.739L718.028 165.834L716.992 165.399ZM774.944 27.8511L775.979 27.4149L774.944 24.9589L773.909 27.4149L774.944 27.8511ZM745.619 97.4396L744.584 97.0034L743.927 98.5627H745.619V97.4396ZM804.269 97.4396V98.5627H805.961L805.304 97.0034L804.269 97.4396ZM698.009 165.84L768.063 1.99328L765.998 1.11021L695.944 164.957L698.009 165.84ZM767.031 2.67486H784.02V0.428622H767.031V2.67486ZM782.988 1.99328L853.042 165.84L855.107 164.957L785.053 1.11021L782.988 1.99328ZM854.074 164.276H832.895V166.522H854.074V164.276ZM833.929 164.96L812.983 115.62L810.915 116.497L831.862 165.838L833.929 164.96ZM811.949 114.935H737.706V117.182H811.949V114.935ZM736.67 115.624L715.956 164.964L718.028 165.834L738.741 116.493L736.67 115.624ZM716.992 164.276H696.977V166.522H716.992V164.276ZM773.909 27.4149L744.584 97.0034L746.654 97.8757L775.979 28.2872L773.909 27.4149ZM745.619 98.5627H804.269V96.3165H745.619V98.5627ZM805.304 97.0034L775.979 27.4149L773.909 28.2872L803.234 97.8757L805.304 97.0034ZM858.747 165.399H857.624V166.522H858.747V165.399ZM858.747 2.48269V1.35957H857.624V2.48269H858.747ZM878.53 2.48269H879.653V1.35957H878.53V2.48269ZM878.53 146.78H877.407V147.903H878.53V146.78ZM958.824 146.78H959.948V145.657H958.824V146.78ZM958.824 165.399V166.522H959.948V165.399H958.824ZM859.87 165.399V2.48269H857.624V165.399H859.87ZM858.747 3.60582H878.53V1.35957H858.747V3.60582ZM877.407 2.48269V146.78H879.653V2.48269H877.407ZM878.53 147.903H958.824V145.657H878.53V147.903ZM957.701 146.78V165.399H959.948V146.78H957.701ZM958.824 164.276H858.747V166.522H958.824V164.276Z" fill="white"/>
<path d="M344.912 196.94L345.824 197.596L346.355 196.857L345.743 196.185L344.912 196.94ZM334.206 211.835L333.412 212.63L334.347 213.564L335.118 212.491L334.206 211.835ZM246.93 323.084L246.072 322.359L245.582 322.939L245.938 323.61L246.93 323.084ZM258.334 309.585L259.228 308.906L258.381 307.789L257.476 308.86L258.334 309.585ZM331.606 303.534C331.606 293.11 326.351 286.142 318.691 280.763C311.105 275.436 301 271.558 291.127 267.329C281.174 263.066 271.395 258.425 264.093 251.561C256.844 244.747 252.01 235.714 252.01 222.541H249.763C249.763 236.366 254.878 245.982 262.554 253.197C270.176 260.363 280.296 265.133 290.242 269.394C300.268 273.689 310.062 277.448 317.4 282.601C324.664 287.702 329.359 294.059 329.359 303.534H331.606ZM252.01 222.541C252.01 211.088 256.427 200.745 264.591 193.259C272.759 185.769 284.75 181.073 299.994 181.073V178.827C284.284 178.827 271.721 183.674 263.073 191.603C254.423 199.535 249.763 210.488 249.763 222.541H252.01ZM299.994 181.073C318.614 181.073 335.036 187.746 344.081 197.696L345.743 196.185C336.17 185.654 319.077 178.827 299.994 178.827V181.073ZM344 196.285L333.294 211.18L335.118 212.491L345.824 197.596L344 196.285ZM335.001 211.041C326.178 202.219 315.652 197.446 301.158 197.446V199.692C315.057 199.692 325.012 204.229 333.412 212.63L335.001 211.041ZM301.158 197.446C291.894 197.446 284.286 199.881 278.972 204.279C273.636 208.695 270.71 215.013 270.71 222.541H272.956C272.956 215.64 275.615 209.972 280.404 206.009C285.214 202.029 292.268 199.692 301.158 199.692V197.446ZM270.71 222.541C270.71 233.081 275.964 239.994 283.635 245.251C291.223 250.45 301.335 254.131 311.203 258.199C321.153 262.302 330.925 266.819 338.222 273.695C345.463 280.521 350.306 289.711 350.306 303.301H352.552C352.552 289.079 347.445 279.302 339.762 272.061C332.134 264.871 322.008 260.224 312.059 256.123C302.027 251.987 292.24 248.424 284.904 243.398C277.651 238.428 272.956 232.133 272.956 222.541H270.71ZM350.306 303.301C350.306 329.231 327.541 346.398 298.365 346.398V348.644C328.304 348.644 352.552 330.901 352.552 303.301H350.306ZM298.365 346.398C288.514 346.398 277.848 344.162 268.656 340.038C259.449 335.908 251.836 329.939 247.922 322.558L245.938 323.61C250.169 331.589 258.266 337.839 267.737 342.088C277.221 346.342 288.2 348.644 298.365 348.644V346.398ZM247.788 323.809L259.192 310.31L257.476 308.86L246.072 322.359L247.788 323.809ZM257.439 310.264C267.227 323.155 284.573 330.025 298.598 330.025V327.779C285.159 327.779 268.526 321.151 259.228 308.906L257.439 310.264ZM298.598 330.025C307.271 330.025 315.491 327.77 321.574 323.321C327.69 318.849 331.606 312.18 331.606 303.534H329.359C329.359 311.412 325.828 317.428 320.248 321.508C314.636 325.612 306.914 327.779 298.598 327.779V330.025ZM492.428 182.278H493.551V181.155H492.428V182.278ZM361.862 182.278V181.155H360.739V182.278H361.862ZM381.645 182.278H382.768V181.155H381.645V182.278ZM472.645 182.278V181.155H471.522V182.278H472.645ZM491.305 182.278V277.235H493.551V182.278H491.305ZM491.305 277.235C491.305 301.908 483.932 319.104 472.589 330.134C461.237 341.173 445.775 346.165 429.356 346.165V348.412C446.218 348.412 462.292 343.28 474.155 331.744C486.029 320.198 493.551 302.367 493.551 277.235H491.305ZM429.356 346.165C410.035 346.165 393.471 340.246 381.74 328.544C370.012 316.844 362.985 299.236 362.985 275.605H360.739C360.739 299.686 367.909 317.92 380.153 330.134C392.394 342.345 409.578 348.412 429.356 348.412V346.165ZM362.985 275.605V182.278H360.739V275.605H362.985ZM361.862 183.401H381.645V181.155H361.862V183.401ZM380.522 182.278V271.882H382.768V182.278H380.522ZM380.522 271.882C380.522 289.737 384.867 304.22 393.203 314.259C401.564 324.328 413.828 329.793 429.356 329.793V327.546C414.395 327.546 402.804 322.306 394.931 312.824C387.034 303.314 382.768 289.403 382.768 271.882H380.522ZM429.356 329.793C443.015 329.793 454.184 325.088 461.91 315.558C469.607 306.064 473.768 291.928 473.768 273.278H471.522C471.522 291.634 467.421 305.193 460.165 314.144C452.938 323.058 442.462 327.546 429.356 327.546V329.793ZM473.768 273.278V182.278H471.522V273.278H473.768ZM472.645 183.401H492.428V181.155H472.645V183.401ZM535.479 345.194V346.317H536.602V345.194H535.479ZM515.696 345.194H514.573V346.317H515.696V345.194ZM515.696 182.278V181.155H514.573V182.278H515.696ZM535.479 282.588L535.575 281.469L534.356 281.364V282.588H535.479ZM535.479 200.897L535.445 199.774L534.356 199.807V200.897H535.479ZM535.479 263.736H534.356V264.764L535.38 264.855L535.479 263.736ZM535.479 344.071H515.696V346.317H535.479V344.071ZM516.819 345.194V182.278H514.573V345.194H516.819ZM515.696 183.401C520.245 183.401 528.343 183.284 536.571 183.168C544.808 183.052 553.177 182.935 558.287 182.935V180.689C553.157 180.689 544.769 180.806 536.539 180.922C528.301 181.038 520.224 181.155 515.696 181.155V183.401ZM558.287 182.935C581.363 182.935 596.103 189.162 605.079 198.337C614.063 207.518 617.443 219.823 617.443 232.316H619.689C619.689 219.442 616.204 206.494 606.685 196.766C597.159 187.03 581.758 180.689 558.287 180.689V182.935ZM617.443 232.316C617.443 245.316 612.827 257.815 603.38 267.064C593.938 276.307 579.577 282.395 559.916 282.395V284.642C580.054 284.642 595.017 278.395 604.951 268.67C614.879 258.95 619.689 245.848 619.689 232.316H617.443ZM559.916 282.395C553.417 282.395 543.677 282.163 535.575 281.469L535.383 283.707C543.572 284.409 553.382 284.642 559.916 284.642V282.395ZM534.356 282.588V345.194H536.602V282.588H534.356ZM560.149 199.308C553.615 199.308 543.128 199.541 535.445 199.774L535.513 202.019C543.19 201.787 553.65 201.554 560.149 201.554V199.308ZM534.356 200.897V263.736H536.602V200.897H534.356ZM535.38 264.855C543.313 265.555 551.029 266.023 559.218 266.023V263.776C551.116 263.776 543.47 263.314 535.578 262.617L535.38 264.855ZM559.218 266.023C571.385 266.023 581.274 262.892 588.138 257.026C595.025 251.14 598.743 242.606 598.743 232.084H596.497C596.497 242.042 593 249.916 586.679 255.318C580.335 260.739 571.023 263.776 559.218 263.776V266.023ZM598.743 232.084C598.743 222.196 595.757 213.942 589.321 208.177C582.905 202.43 573.228 199.308 560.149 199.308V201.554C572.904 201.554 581.962 204.6 587.823 209.85C593.664 215.082 596.497 222.654 596.497 232.084H598.743ZM631.292 345.194H630.169V346.317H631.292V345.194ZM631.292 182.278V181.155H630.169V182.278H631.292ZM723.223 182.278H724.347V181.155H723.223V182.278ZM723.223 200.897V202.02H724.347V200.897H723.223ZM651.075 200.897V199.774H649.952V200.897H651.075ZM651.075 253.495H649.952V254.619H651.075V253.495ZM716.241 253.495H717.364V252.372H716.241V253.495ZM716.241 272.114V273.238H717.364V272.114H716.241ZM651.075 272.114V270.991H649.952V272.114H651.075ZM651.075 326.575H649.952V327.698H651.075V326.575ZM725.551 326.575H726.674V325.452H725.551V326.575ZM725.551 345.194V346.317H726.674V345.194H725.551ZM632.415 345.194V182.278H630.169V345.194H632.415ZM631.292 183.401H723.223V181.155H631.292V183.401ZM722.1 182.278V200.897H724.347V182.278H722.1ZM723.223 199.774H651.075V202.02H723.223V199.774ZM649.952 200.897V253.495H652.198V200.897H649.952ZM651.075 254.619H716.241V252.372H651.075V254.619ZM715.118 253.495V272.114H717.364V253.495H715.118ZM716.241 270.991H651.075V273.238H716.241V270.991ZM649.952 272.114V326.575H652.198V272.114H649.952ZM651.075 327.698H725.551V325.452H651.075V327.698ZM724.428 326.575V345.194H726.674V326.575H724.428ZM725.551 344.071H631.292V346.317H725.551V344.071ZM761.671 345.194V346.317H762.794V345.194H761.671ZM741.888 345.194H740.765V346.317H741.888V345.194ZM741.888 182.278V181.155H740.765V182.278H741.888ZM808.218 276.304L807.936 275.217L806.273 275.649L807.336 276.998L808.218 276.304ZM862.446 345.194V346.317H864.759L863.328 344.499L862.446 345.194ZM838.241 345.194L837.35 345.878L837.688 346.317H838.241V345.194ZM788.203 280.027L789.093 279.343L788.756 278.904H788.203V280.027ZM761.671 280.027V278.904H760.547V280.027H761.671ZM761.671 200.897L761.637 199.774L760.547 199.807V200.897H761.671ZM761.671 261.408H760.547V262.532H761.671V261.408ZM761.671 344.071H741.888V346.317H761.671V344.071ZM743.011 345.194V182.278H740.765V345.194H743.011ZM741.888 183.401C746.435 183.401 756.219 183.284 765.438 183.168C774.668 183.052 783.325 182.935 785.643 182.935V180.689C783.306 180.689 774.624 180.806 765.409 180.922C756.183 181.038 746.417 181.155 741.888 181.155V183.401ZM785.643 182.935C807.697 182.935 821.852 188.42 830.499 196.954C839.144 205.486 842.471 217.252 842.471 230.222H844.717C844.717 216.892 841.295 204.453 832.077 195.355C822.862 186.26 808.041 180.689 785.643 180.689V182.935ZM842.471 230.222C842.471 254.994 825.449 270.668 807.936 275.217L808.5 277.391C826.829 272.63 844.717 256.187 844.717 230.222H842.471ZM807.336 276.998L861.563 345.889L863.328 344.499L809.101 275.609L807.336 276.998ZM862.446 344.071H838.241V346.317H862.446V344.071ZM839.132 344.51L789.093 279.343L787.312 280.711L837.35 345.878L839.132 344.51ZM788.203 278.904H761.671V281.151H788.203V278.904ZM760.547 280.027V345.194H762.794V280.027H760.547ZM784.479 199.308C779.34 199.308 769.317 199.541 761.637 199.774L761.705 202.019C769.385 201.787 779.377 201.554 784.479 201.554V199.308ZM760.547 200.897V261.408H762.794V200.897H760.547ZM761.671 262.532H785.643V260.285H761.671V262.532ZM785.643 262.532C804.827 262.532 823.771 250.645 823.771 230.454H821.525C821.525 248.899 804.161 260.285 785.643 260.285V262.532ZM823.771 230.454C823.771 221.871 821.382 214.018 815.142 208.329C808.922 202.657 799.06 199.308 784.479 199.308V201.554C798.757 201.554 807.98 204.838 813.629 209.989C819.259 215.122 821.525 222.281 821.525 230.454H823.771ZM872.821 345.194H871.698V346.317H872.821V345.194ZM872.821 182.278V181.155H871.698V182.278H872.821ZM892.604 182.278H893.727V181.155H892.604V182.278ZM892.604 345.194V346.317H893.727V345.194H892.604ZM873.944 345.194V182.278H871.698V345.194H873.944ZM872.821 183.401H892.604V181.155H872.821V183.401ZM891.48 182.278V345.194H893.727V182.278H891.48ZM892.604 344.071H872.821V346.317H892.604V344.071ZM911.173 263.736C911.173 217.088 945.371 181.073 993.137 181.073V178.827C944.085 178.827 908.927 215.893 908.927 263.736H911.173ZM993.137 181.073C1039.77 181.073 1075.1 214.791 1075.1 263.736H1077.35C1077.35 213.534 1040.99 178.827 993.137 178.827V181.073ZM1075.1 263.736C1075.1 311.527 1039.76 346.398 993.137 346.398V348.644C1041.01 348.644 1077.35 312.763 1077.35 263.736H1075.1ZM993.137 346.398C946.503 346.398 911.173 312.68 911.173 263.736H908.927C908.927 313.938 945.279 348.644 993.137 348.644V346.398ZM929.873 263.736C929.873 301.315 957.561 330.025 993.137 330.025V327.779C958.892 327.779 932.119 300.167 932.119 263.736H929.873ZM993.137 330.025C1031.07 330.025 1056.4 301.051 1056.4 263.736H1054.15C1054.15 299.966 1029.68 327.779 993.137 327.779V330.025ZM1056.4 263.736C1056.4 225.215 1028.7 197.446 993.137 197.446V199.692C1027.39 199.692 1054.15 226.384 1054.15 263.736H1056.4ZM993.137 197.446C957.1 197.446 929.873 225.221 929.873 263.736H932.119C932.119 226.379 958.422 199.692 993.137 199.692V197.446ZM1108.91 345.194V346.317H1110.04V345.194H1108.91ZM1089.13 345.194H1088.01V346.317H1089.13V345.194ZM1089.13 182.278V181.155H1088.01V182.278H1089.13ZM1155.46 276.304L1155.18 275.217L1153.52 275.649L1154.58 276.998L1155.46 276.304ZM1209.69 345.194V346.317H1212L1210.57 344.499L1209.69 345.194ZM1185.48 345.194L1184.59 345.878L1184.93 346.317H1185.48V345.194ZM1135.45 280.027L1136.34 279.343L1136 278.904H1135.45V280.027ZM1108.91 280.027V278.904H1107.79V280.027H1108.91ZM1108.91 200.897L1108.88 199.774L1107.79 199.807V200.897H1108.91ZM1108.91 261.408H1107.79V262.532H1108.91V261.408ZM1108.91 344.071H1089.13V346.317H1108.91V344.071ZM1090.25 345.194V182.278H1088.01V345.194H1090.25ZM1089.13 183.401C1093.68 183.401 1103.46 183.284 1112.68 183.168C1121.91 183.052 1130.57 182.935 1132.89 182.935V180.689C1130.55 180.689 1121.87 180.806 1112.65 180.922C1103.43 181.038 1093.66 181.155 1089.13 181.155V183.401ZM1132.89 182.935C1154.94 182.935 1169.09 188.42 1177.74 196.954C1186.39 205.486 1189.71 217.252 1189.71 230.222H1191.96C1191.96 216.892 1188.54 204.453 1179.32 195.355C1170.1 186.26 1155.28 180.689 1132.89 180.689V182.935ZM1189.71 230.222C1189.71 254.994 1172.69 270.668 1155.18 275.217L1155.74 277.391C1174.07 272.63 1191.96 256.187 1191.96 230.222H1189.71ZM1154.58 276.998L1208.81 345.889L1210.57 344.499L1156.34 275.609L1154.58 276.998ZM1209.69 344.071H1185.48V346.317H1209.69V344.071ZM1186.37 344.51L1136.34 279.343L1134.55 280.711L1184.59 345.878L1186.37 344.51ZM1135.45 278.904H1108.91V281.151H1135.45V278.904ZM1107.79 280.027V345.194H1110.04V280.027H1107.79ZM1131.72 199.308C1126.58 199.308 1116.56 199.541 1108.88 199.774L1108.95 202.019C1116.63 201.787 1126.62 201.554 1131.72 201.554V199.308ZM1107.79 200.897V261.408H1110.04V200.897H1107.79ZM1108.91 262.532H1132.89V260.285H1108.91V262.532ZM1132.89 262.532C1152.07 262.532 1171.01 250.645 1171.01 230.454H1168.77C1168.77 248.899 1151.4 260.285 1132.89 260.285V262.532ZM1171.01 230.454C1171.01 221.871 1168.62 214.018 1162.38 208.329C1156.16 202.657 1146.3 199.308 1131.72 199.308V201.554C1146 201.554 1155.22 204.838 1160.87 209.989C1166.5 215.122 1168.77 222.281 1168.77 230.454H1171.01Z" fill="white"/>
<path d="M694.634 496.683L693.846 495.882L693.1 496.617L693.78 497.413L694.634 496.683ZM712.555 517.629V518.752H714.994L713.408 516.899L712.555 517.629ZM689.281 517.629L688.429 518.361L688.766 518.752H689.281V517.629ZM680.67 507.621L681.521 506.889L680.895 506.161L680.079 506.666L680.67 507.621ZM668.102 492.959L668.672 493.926L669.812 493.254L668.964 492.239L668.102 492.959ZM653.905 475.969L653.148 475.139L652.353 475.863L653.043 476.689L653.905 475.969ZM666.938 464.099L667.792 463.37L667.039 462.488L666.182 463.269L666.938 464.099ZM681.833 481.555L680.979 482.284L681.82 483.27L682.676 482.297L681.833 481.555ZM554.02 436.171C554.02 389.522 588.217 353.508 635.984 353.508V351.262C586.932 351.262 551.774 388.328 551.774 436.171H554.02ZM635.984 353.508C682.618 353.508 717.948 387.226 717.948 436.171H720.194C720.194 385.969 683.842 351.262 635.984 351.262V353.508ZM717.948 436.171C717.948 460.315 708.754 481.204 693.846 495.882L695.422 497.483C710.77 482.371 720.194 460.901 720.194 436.171H717.948ZM693.78 497.413L711.701 518.359L713.408 516.899L695.487 495.952L693.78 497.413ZM712.555 516.506H689.281V518.752H712.555V516.506ZM690.132 516.896L681.521 506.889L679.818 508.354L688.429 518.361L690.132 516.896ZM680.079 506.666C667.461 514.466 652.538 518.833 635.984 518.833V521.079C652.944 521.079 668.277 516.602 681.26 508.577L680.079 506.666ZM635.984 518.833C589.35 518.833 554.02 485.115 554.02 436.171H551.774C551.774 486.372 588.126 521.079 635.984 521.079V518.833ZM572.72 436.171C572.72 473.75 600.408 502.46 635.984 502.46V500.214C601.739 500.214 574.966 472.602 574.966 436.171H572.72ZM635.984 502.46C648.275 502.46 659.413 499.387 668.672 493.926L667.531 491.991C658.637 497.237 647.897 500.214 635.984 500.214V502.46ZM668.964 492.239L654.767 475.249L653.043 476.689L667.24 493.679L668.964 492.239ZM654.661 476.799L667.694 464.93L666.182 463.269L653.148 475.139L654.661 476.799ZM666.084 464.828L680.979 482.284L682.688 480.826L667.792 463.37L666.084 464.828ZM682.676 482.297C693.109 470.442 699.248 454.347 699.248 436.171H697.002C697.002 453.836 691.039 469.394 680.99 480.813L682.676 482.297ZM699.248 436.171C699.248 397.65 671.55 369.881 635.984 369.881V372.127C670.239 372.127 697.002 398.819 697.002 436.171H699.248ZM635.984 369.881C599.947 369.881 572.72 397.655 572.72 436.171H574.966C574.966 398.814 601.268 372.127 635.984 372.127V369.881ZM860.216 354.713H861.339V353.59H860.216V354.713ZM729.65 354.713V353.59H728.527V354.713H729.65ZM749.433 354.713H750.556V353.59H749.433V354.713ZM840.433 354.713V353.59H839.31V354.713H840.433ZM859.092 354.713V449.67H861.339V354.713H859.092ZM859.092 449.67C859.092 474.343 851.72 491.539 840.377 502.569C829.025 513.608 813.563 518.6 797.144 518.6V520.847C814.006 520.847 830.08 515.715 841.943 504.179C853.816 492.633 861.339 474.802 861.339 449.67H859.092ZM797.144 518.6C777.822 518.6 761.259 512.681 749.528 500.979C737.799 489.279 730.773 471.671 730.773 448.04H728.527C728.527 472.121 735.697 490.355 747.941 502.569C760.182 514.78 777.365 520.847 797.144 520.847V518.6ZM730.773 448.04V354.713H728.527V448.04H730.773ZM729.65 355.836H749.433V353.59H729.65V355.836ZM748.309 354.713V444.317H750.556V354.713H748.309ZM748.309 444.317C748.309 462.172 752.655 476.655 760.991 486.694C769.351 496.763 781.616 502.228 797.144 502.228V499.981C782.183 499.981 770.592 494.741 762.719 485.259C754.822 475.748 750.556 461.838 750.556 444.317H748.309ZM797.144 502.228C810.803 502.228 821.971 497.523 829.698 487.993C837.395 478.499 841.556 464.363 841.556 445.713H839.31C839.31 464.069 835.209 477.628 827.953 486.578C820.725 495.493 810.249 499.981 797.144 499.981V502.228ZM841.556 445.713V354.713H839.31V445.713H841.556ZM840.433 355.836H860.216V353.59H840.433V355.836ZM862.537 517.629L861.505 517.187L860.836 518.752H862.537V517.629ZM932.591 353.782V352.659H931.85L931.559 353.34L932.591 353.782ZM949.581 353.782L950.614 353.34L950.323 352.659H949.581V353.782ZM1019.64 517.629V518.752H1021.34L1020.67 517.187L1019.64 517.629ZM998.456 517.629L997.422 518.068L997.713 518.752H998.456V517.629ZM977.51 468.289L978.544 467.85L978.253 467.165H977.51V468.289ZM903.267 468.289V467.165H902.52L902.231 467.854L903.267 468.289ZM882.553 517.629V518.752H883.299L883.588 518.064L882.553 517.629ZM940.505 380.081L941.54 379.645L940.505 377.189L939.47 379.645L940.505 380.081ZM911.18 449.67L910.145 449.233L909.488 450.793H911.18V449.67ZM969.829 449.67V450.793H971.522L970.864 449.233L969.829 449.67ZM863.57 518.07L933.624 354.223L931.559 353.34L861.505 517.187L863.57 518.07ZM932.591 354.905H949.581V352.659H932.591V354.905ZM948.549 354.223L1018.6 518.07L1020.67 517.187L950.614 353.34L948.549 354.223ZM1019.64 516.506H998.456V518.752H1019.64V516.506ZM999.49 517.19L978.544 467.85L976.476 468.727L997.422 518.068L999.49 517.19ZM977.51 467.165H903.267V469.412H977.51V467.165ZM902.231 467.854L881.517 517.194L883.588 518.064L904.302 468.723L902.231 467.854ZM882.553 516.506H862.537V518.752H882.553V516.506ZM939.47 379.645L910.145 449.233L912.215 450.106L941.54 380.517L939.47 379.645ZM911.18 450.793H969.829V448.546H911.18V450.793ZM970.864 449.233L941.54 379.645L939.47 380.517L968.794 450.106L970.864 449.233ZM1024.31 517.629H1023.19V518.752H1024.31V517.629ZM1024.31 354.713V353.59H1023.19V354.713H1024.31ZM1044.09 354.713H1045.21V353.59H1044.09V354.713ZM1044.09 499.01H1042.97V500.133H1044.09V499.01ZM1124.39 499.01H1125.51V497.887H1124.39V499.01ZM1124.39 517.629V518.752H1125.51V517.629H1124.39ZM1025.43 517.629V354.713H1023.19V517.629H1025.43ZM1024.31 355.836H1044.09V353.59H1024.31V355.836ZM1042.97 354.713V499.01H1045.21V354.713H1042.97ZM1044.09 500.133H1124.39V497.887H1044.09V500.133ZM1123.26 499.01V517.629H1125.51V499.01H1123.26ZM1124.39 516.506H1024.31V518.752H1124.39V516.506ZM1133.65 517.629H1132.53V518.752H1133.65V517.629ZM1133.65 354.713V353.59H1132.53V354.713H1133.65ZM1153.43 354.713H1154.56V353.59H1153.43V354.713ZM1153.43 517.629V518.752H1154.56V517.629H1153.43ZM1134.77 517.629V354.713H1132.53V517.629H1134.77ZM1133.65 355.836H1153.43V353.59H1133.65V355.836ZM1152.31 354.713V517.629H1154.56V354.713H1152.31ZM1153.43 516.506H1133.65V518.752H1153.43V516.506ZM1161.57 373.332H1160.45V374.455H1161.57V373.332ZM1161.57 354.713V353.59H1160.45V354.713H1161.57ZM1295.39 354.713H1296.52V353.59H1295.39V354.713ZM1295.39 373.332V374.455H1296.52V373.332H1295.39ZM1238.37 373.332V372.209H1237.25V373.332H1238.37ZM1238.37 517.629V518.752H1239.5V517.629H1238.37ZM1218.59 517.629H1217.47V518.752H1218.59V517.629ZM1218.59 373.332H1219.71V372.209H1218.59V373.332ZM1162.69 373.332V354.713H1160.45V373.332H1162.69ZM1161.57 355.836H1295.39V353.59H1161.57V355.836ZM1294.27 354.713V373.332H1296.52V354.713H1294.27ZM1295.39 372.209H1238.37V374.455H1295.39V372.209ZM1237.25 373.332V517.629H1239.5V373.332H1237.25ZM1238.37 516.506H1218.59V518.752H1238.37V516.506ZM1219.71 517.629V373.332H1217.47V517.629H1219.71ZM1218.59 372.209H1161.57V374.455H1218.59V372.209ZM1412.63 354.713L1413.58 355.31L1414.66 353.59H1412.63V354.713ZM1354.21 447.808L1353.26 447.211L1353.09 447.484V447.808H1354.21ZM1354.21 517.629V518.752H1355.33V517.629H1354.21ZM1334.43 517.629H1333.31V518.752H1334.43V517.629ZM1334.43 447.808H1335.55V447.488L1335.38 447.216L1334.43 447.808ZM1276.71 354.713V353.59H1274.69L1275.76 355.304L1276.71 354.713ZM1299.52 354.713L1300.48 354.126L1300.15 353.59H1299.52V354.713ZM1345.13 429.189L1344.18 429.775L1345.13 431.335L1346.09 429.777L1345.13 429.189ZM1390.98 354.713V353.59H1390.36L1390.03 354.124L1390.98 354.713ZM1411.68 354.116L1353.26 447.211L1355.16 448.405L1413.58 355.31L1411.68 354.116ZM1353.09 447.808V517.629H1355.33V447.808H1353.09ZM1354.21 516.506H1334.43V518.752H1354.21V516.506ZM1335.55 517.629V447.808H1333.31V517.629H1335.55ZM1335.38 447.216L1277.66 354.121L1275.76 355.304L1333.47 448.399L1335.38 447.216ZM1276.71 355.836H1299.52V353.59H1276.71V355.836ZM1298.56 355.299L1344.18 429.775L1346.09 428.602L1300.48 354.126L1298.56 355.299ZM1346.09 429.777L1391.94 355.301L1390.03 354.124L1344.18 428.6L1346.09 429.777ZM1390.98 355.836H1412.63V353.59H1390.98V355.836Z" fill="white"/>
</g>
</svg>
