<svg width="15" height="14" viewBox="0 0 15 14" fill="none" xmlns="http://www.w3.org/2000/svg">
<path id="Vector" d="M14.9337 5.73441C14.9308 5.93581 14.7698 6.19427 14.5295 6.42193C13.7264 7.18248 12.9303 7.95045 12.1249 8.70872C11.9115 8.90956 11.8257 9.11211 11.8846 9.41621C12.0952 10.5066 12.2731 11.6032 12.4649 12.6969C12.5425 13.1374 12.4282 13.514 12.0561 13.7838C11.6864 14.0514 11.2886 14.0651 10.8804 13.8552C9.86732 13.3342 8.8502 12.8207 7.84125 12.2918C7.58405 12.1566 7.36185 12.1515 7.1029 12.2867C6.12019 12.8025 5.12757 13.3006 4.14311 13.8135C3.71328 14.0377 3.28928 14.0771 2.88454 13.7873C2.4792 13.4963 2.39755 13.0935 2.4862 12.6193C2.69499 11.509 2.89328 10.3964 3.0595 9.27985C3.08458 9.11268 2.95919 8.87361 2.82621 8.74182C2.01963 7.94418 1.19031 7.16879 0.369729 6.38484C0.0442974 6.07446 -0.0857587 5.70816 0.0582944 5.27111C0.194183 4.8586 0.499785 4.63266 0.920864 4.55449C1.21597 4.50029 1.51574 4.47119 1.81318 4.42954C2.66758 4.30972 3.52082 4.18306 4.37639 4.07123C4.67791 4.03186 4.85287 3.8818 4.98293 3.61478C5.47224 2.61402 5.9773 1.62011 6.48528 0.627912C6.74306 0.12411 7.21196 -0.0921315 7.73743 0.036244C8.08036 0.120116 8.30782 0.33921 8.46178 0.64617C8.9511 1.62639 9.45383 2.59976 9.93323 3.58454C10.0773 3.88009 10.2738 4.03757 10.6092 4.08093C11.7243 4.22528 12.8364 4.39074 13.9504 4.54479C14.5377 4.62581 14.9354 5.04917 14.9337 5.73441Z" fill="#AA9F8E"/>
</svg>
