<svg width="330" height="375" viewBox="0 0 330 375" fill="none" xmlns="http://www.w3.org/2000/svg">
<path opacity="0.8" fill-rule="evenodd" clip-rule="evenodd" d="M302 2.00005L295.214 2.00006C294.661 2.00006 294.214 1.55235 294.214 1.00006C294.214 0.447776 294.661 6.05802e-05 295.214 6.00211e-05L302 5.28034e-05C303.869 5.08055e-05 305.696 0.183253 307.463 0.532979C308.005 0.64016 308.358 1.16625 308.25 1.70804C308.143 2.24982 307.617 2.60214 307.075 2.49496C305.435 2.17038 303.738 2.00005 302 2.00005ZM28 2.00001C26.2623 2.00001 24.5654 2.17034 22.9247 2.49491C22.3829 2.60209 21.8569 2.24978 21.7497 1.70799C21.6425 1.16621 21.9948 0.640117 22.5366 0.532937C24.3044 0.183211 26.1313 1.10063e-05 28 1.43132e-05L34.874 2.64228e-05C35.4263 2.74134e-05 35.874 0.447743 35.874 1.00003C35.874 1.55231 35.4263 2.00003 34.874 2.00003L28 2.00001ZM281.641 2.00007L268.068 2.00009C267.516 2.00009 267.068 1.55237 267.068 1.00009C267.068 0.447805 267.516 8.94509e-05 268.068 8.88323e-05L281.641 7.44565e-05C282.193 7.38378e-05 282.641 0.447789 282.641 1.00007C282.641 1.55236 282.193 2.00007 281.641 2.00007ZM47.622 1.00005C47.622 0.447764 48.0697 4.97108e-05 48.622 5.06418e-05L62.37 7.48609e-05C62.9223 7.58516e-05 63.37 0.447792 63.37 1.00008C63.37 1.55236 62.9223 2.00008 62.37 2.00007L48.622 2.00005C48.0697 2.00005 47.622 1.55233 47.622 1.00005ZM254.496 2.0001L240.923 2.00012C240.371 2.00012 239.923 1.5524 239.923 1.00012C239.923 0.447834 240.371 0.000118322 240.923 0.000117703L254.496 0.000103268C255.048 0.000102709 255.496 0.447817 255.496 1.0001C255.496 1.55239 255.048 2.0001 254.496 2.0001ZM75.1179 1.0001C75.1179 0.447813 75.5657 9.8149e-05 76.1179 9.91396e-05L89.8659 0.000123359C90.4182 0.00012429 90.8659 0.44784 90.8659 1.00013C90.8659 1.55241 90.4182 2.00012 89.8659 2.00012L76.1179 2.0001C75.5657 2.0001 75.1179 1.55238 75.1179 1.0001ZM227.35 2.00013L215.06 2.00014C214.508 2.00014 214.06 1.55243 214.06 1.00014C214.06 0.447856 214.508 0.000140503 215.06 0.000140361L227.35 0.000132138C227.903 0.000131579 228.35 0.447846 228.35 1.00013C228.35 1.55242 227.903 2.00013 227.35 2.00013ZM204.053 2.00014L193.045 2.00014C192.493 2.00014 192.045 1.55243 192.045 1.00014C192.045 0.44786 192.493 0.000144521 193.045 0.000144439L204.053 0.00014243C204.605 0.000142288 205.053 0.447857 205.053 1.00014C205.053 1.55243 204.605 2.00014 204.053 2.00014ZM182.037 2.00015L171.03 2.00015C170.478 2.00015 170.03 1.55243 170.03 1.00015C170.03 0.447864 170.478 0.000148599 171.03 0.000148517L182.037 0.000146448C182.59 0.000146366 183.037 0.447862 183.037 1.00015C183.037 1.55243 182.59 2.00015 182.037 2.00015ZM160.022 2.00015L149.015 2.00015C148.462 2.00015 148.015 1.55244 148.015 1.00015C148.015 0.447868 148.462 0.000152677 149.015 0.000152595L160.022 0.000150526C160.574 0.000150444 161.022 0.447866 161.022 1.00015C161.022 1.55244 160.574 2.00015 160.022 2.00015ZM102.614 1.00015C102.614 0.447861 103.062 0.000146587 103.614 0.000147578L115.992 0.000158683C116.544 0.000158541 116.992 0.447874 116.992 1.00016C116.992 1.55244 116.544 2.00016 115.992 2.00016L103.614 2.00015C103.062 2.00015 102.614 1.55243 102.614 1.00015ZM138.007 2.00015L126.999 2.00016C126.447 2.00016 125.999 1.55244 125.999 1.00016C125.999 0.447872 126.447 0.000156756 126.999 0.000156614L138.007 0.000154604C138.559 0.000154522 139.007 0.44787 139.007 1.00015C139.007 1.55244 138.559 2.00015 138.007 2.00015ZM13.8294 4.99141C14.1366 5.45034 14.0137 6.07145 13.5547 6.37869C10.7189 8.27719 8.27721 10.7189 6.37871 13.5547C6.07146 14.0136 5.45035 14.1366 4.99142 13.8293C4.53249 13.5221 4.40953 12.901 4.71677 12.442C6.76072 9.38904 9.38907 6.76069 12.4421 4.71676C12.901 4.40951 13.5221 4.53247 13.8294 4.99141ZM316.171 4.99146C316.478 4.53253 317.099 4.40956 317.558 4.71681C320.611 6.76075 323.239 9.3891 325.283 12.4421C325.59 12.901 325.467 13.5221 325.009 13.8294C324.55 14.1366 323.929 14.0137 323.621 13.5547C321.723 10.719 319.281 8.27725 316.445 6.37875C315.986 6.0715 315.863 5.45039 316.171 4.99146ZM1.70799 21.7496C2.24977 21.8568 2.60209 22.3829 2.49491 22.9247C2.17033 24.5654 2 26.2623 2 28L2 34.1347C2 34.687 1.55228 35.1347 0.999996 35.1347C0.447712 35.1347 -3.65485e-06 34.687 -3.59571e-06 34.1347L-2.93878e-06 28C-2.73867e-06 26.1313 0.183201 24.3044 0.53293 22.5366C0.640111 21.9948 1.1662 21.6425 1.70799 21.7496ZM328.292 21.7497C328.834 21.6425 329.36 21.9948 329.467 22.5366C329.817 24.3044 330 26.1313 330 28.0001L330 34.1347C330 34.687 329.552 35.1347 329 35.1347C328.448 35.1347 328 34.687 328 34.1347L328 28.0001C328 26.2624 327.83 24.5654 327.505 22.9247C327.398 22.383 327.75 21.8569 328.292 21.7497ZM329 45.4039C329.552 45.4039 330 45.8516 330 46.4039L330 58.6731C330 59.2254 329.552 59.6731 329 59.6731C328.448 59.6731 328 59.2254 328 58.6731L328 46.4039C328 45.8516 328.448 45.4039 329 45.4039ZM0.999995 45.4039C1.55228 45.4039 2 45.8516 2 46.4039L1.99999 58.6731C1.99999 59.2254 1.55228 59.6731 0.999994 59.6731C0.447709 59.6731 -6.28255e-06 59.2254 -6.22341e-06 58.6731L-4.90956e-06 46.4039C-4.85042e-06 45.8516 0.44771 45.4039 0.999995 45.4039ZM329 69.9424C329.552 69.9424 330 70.3901 330 70.9424L330 83.2116C330 83.7639 329.552 84.2116 329 84.2116C328.448 84.2116 328 83.7639 328 83.2116L328 70.9424C328 70.3901 328.448 69.9424 329 69.9424ZM0.999993 69.9424C1.55228 69.9424 1.99999 70.3901 1.99999 70.9424L1.99999 83.2116C1.99999 83.7639 1.55228 84.2116 0.999991 84.2116C0.447706 84.2116 -8.91025e-06 83.7639 -8.85111e-06 83.2116L-7.53726e-06 70.9424C-7.47812e-06 70.3901 0.447708 69.9424 0.999993 69.9424ZM329 94.4808C329.552 94.4808 330 94.9285 330 95.4808L330 107.75C330 108.302 329.552 108.75 329 108.75C328.448 108.75 328 108.302 328 107.75L328 95.4808C328 94.9285 328.448 94.4808 329 94.4808ZM0.99999 94.4808C1.55227 94.4808 1.99999 94.9285 1.99999 95.4808L1.99999 107.75C1.99999 108.302 1.55227 108.75 0.999988 108.75C0.447704 108.75 -1.1538e-05 108.302 -1.14788e-05 107.75L-1.0165e-05 95.4808C-1.01058e-05 94.9285 0.447705 94.4808 0.99999 94.4808ZM329 119.019C329.552 119.019 330 119.467 330 120.019L330 132.289C330 132.841 329.552 133.289 329 133.289C328.448 133.289 328 132.841 328 132.289L328 120.019C328 119.467 328.448 119.019 329 119.019ZM0.999987 119.019C1.55227 119.019 1.99999 119.467 1.99999 120.019L1.99999 132.288C1.99999 132.841 1.55227 133.288 0.999986 133.288C0.447701 133.288 -1.41657e-05 132.841 -1.41065e-05 132.288L-1.27927e-05 120.019C-1.27335e-05 119.467 0.447703 119.019 0.999987 119.019ZM329 143.558C329.552 143.558 330 144.005 330 144.558L330 156.827C330 157.379 329.552 157.827 329 157.827C328.448 157.827 328 157.379 328 156.827L328 144.558C328 144.005 328.448 143.558 329 143.558ZM0.999985 143.558C1.55227 143.558 1.99998 144.005 1.99998 144.558L1.99998 156.827C1.99998 157.379 1.55227 157.827 0.999983 157.827C0.447698 157.827 -1.67934e-05 157.379 -1.67342e-05 156.827L-1.54204e-05 144.558C-1.53612e-05 144.005 0.4477 143.558 0.999985 143.558ZM329 168.096C329.552 168.096 330 168.544 330 169.096L330 181.365C330 181.918 329.552 182.365 329 182.365C328.448 182.365 328 181.918 328 181.365L328 169.096C328 168.544 328.448 168.096 329 168.096ZM0.999982 168.096C1.55227 168.096 1.99998 168.544 1.99998 169.096L1.99998 181.365C1.99998 181.918 1.55227 182.365 0.99998 182.365C0.447696 182.365 -1.94211e-05 181.918 -1.93619e-05 181.365L-1.80481e-05 169.096C-1.79889e-05 168.544 0.447697 168.096 0.999982 168.096ZM329 192.635C329.552 192.635 330 193.082 330 193.635L330 205.904C330 206.456 329.552 206.904 329 206.904C328.448 206.904 328 206.456 328 205.904L328 193.635C328 193.082 328.448 192.635 329 192.635ZM0.999979 192.635C1.55226 192.635 1.99998 193.082 1.99998 193.635L1.99998 205.904C1.99998 206.456 1.55226 206.904 0.999978 206.904C0.447693 206.904 -2.21084e-05 206.456 -2.20492e-05 205.904L-2.07354e-05 193.635C-2.06762e-05 193.082 0.447695 192.635 0.999979 192.635ZM329 217.173C329.552 217.173 330 217.621 330 218.173L330 230.442C330 230.995 329.552 231.442 329 231.442C328.448 231.442 328 230.995 328 230.442L328 218.173C328 217.621 328.448 217.173 329 217.173ZM0.999977 217.173C1.55226 217.173 1.99998 217.621 1.99998 218.173L1.99998 230.442C1.99998 230.995 1.55226 231.442 0.999975 231.442C0.44769 231.442 -2.47361e-05 230.995 -2.46769e-05 230.442L-2.33631e-05 218.173C-2.33039e-05 217.621 0.447692 217.173 0.999977 217.173ZM329 241.712C329.552 241.712 330 242.159 330 242.712L330 254.981C330 255.533 329.552 255.981 329 255.981C328.448 255.981 328 255.533 328 254.981L328 242.712C328 242.159 328.448 241.712 329 241.712ZM0.999974 241.712C1.55226 241.712 1.99997 242.159 1.99997 242.712L1.99997 254.981C1.99997 255.533 1.55226 255.981 0.999973 255.981C0.447688 255.981 -2.73638e-05 255.533 -2.73046e-05 254.981L-2.59908e-05 242.712C-2.59316e-05 242.159 0.447689 241.712 0.999974 241.712ZM329 266.25C329.552 266.25 330 266.698 330 267.25L330 279.519C330 280.071 329.552 280.519 329 280.519C328.448 280.519 328 280.071 328 279.519L328 267.25C328 266.698 328.448 266.25 329 266.25ZM0.999971 266.25C1.55226 266.25 1.99997 266.698 1.99997 267.25L1.99997 279.519C1.99997 280.071 1.55225 280.519 0.99997 280.519C0.447685 280.519 -2.99915e-05 280.071 -2.99323e-05 279.519L-2.86185e-05 267.25C-2.85593e-05 266.698 0.447687 266.25 0.999971 266.25ZM329 290.788C329.552 290.788 330 291.236 330 291.788L330 304.058C330 304.61 329.552 305.058 329 305.058C328.448 305.058 328 304.61 328 304.058L328 291.788C328 291.236 328.448 290.788 329 290.788ZM0.999969 290.788C1.55225 290.788 1.99997 291.236 1.99997 291.788L1.99997 304.058C1.99997 304.61 1.55225 305.058 0.999967 305.058C0.447683 305.058 -3.26192e-05 304.61 -3.256e-05 304.058L-3.12462e-05 291.788C-3.1187e-05 291.236 0.447684 290.788 0.999969 290.788ZM329 315.327C329.552 315.327 330 315.775 330 316.327L330 328.596C330 329.148 329.552 329.596 329 329.596C328.448 329.596 328 329.148 328 328.596L328 316.327C328 315.775 328.448 315.327 329 315.327ZM0.999966 315.327C1.55225 315.327 1.99997 315.775 1.99997 316.327L1.99996 328.596C1.99996 329.148 1.55225 329.596 0.999965 329.596C0.44768 329.596 -3.52469e-05 329.148 -3.51877e-05 328.596L-3.38739e-05 316.327C-3.38147e-05 315.775 0.447682 315.327 0.999966 315.327ZM329 339.865C329.552 339.865 330 340.313 330 340.865L330 347C330 348.869 329.817 350.696 329.467 352.463C329.36 353.005 328.834 353.358 328.292 353.25C327.75 353.143 327.398 352.617 327.505 352.075C327.83 350.435 328 348.738 328 347L328 340.865C328 340.313 328.448 339.865 329 339.865ZM0.999964 339.865C1.55225 339.865 1.99996 340.313 1.99996 340.865L1.99996 347C1.99996 348.738 2.17029 350.435 2.49487 352.075C2.60205 352.617 2.24973 353.143 1.70795 353.25C1.16617 353.358 0.640074 353.005 0.532893 352.463C0.183166 350.696 -3.73586e-05 348.869 -3.71585e-05 347L-3.65016e-05 340.865C-3.64424e-05 340.313 0.447679 339.865 0.999964 339.865ZM4.99137 361.171C5.4503 360.863 6.07141 360.986 6.37866 361.445C8.27716 364.281 10.7189 366.723 13.5547 368.621C14.0136 368.929 14.1365 369.55 13.8293 370.009C13.5221 370.468 12.9009 370.59 12.442 370.283C9.389 368.239 6.76066 365.611 4.71672 362.558C4.40948 362.099 4.53244 361.478 4.99137 361.171ZM325.009 361.171C325.467 361.478 325.59 362.099 325.283 362.558C323.239 365.611 320.611 368.239 317.558 370.283C317.099 370.591 316.478 370.468 316.171 370.009C315.863 369.55 315.986 368.929 316.445 368.621C319.281 366.723 321.723 364.281 323.621 361.445C323.928 360.986 324.55 360.863 325.009 361.171ZM21.7496 373.292C21.8568 372.75 22.3829 372.398 22.9246 372.505C24.5653 372.83 26.2623 373 28 373L34.8331 373C35.3854 373 35.8331 373.448 35.8331 374C35.8331 374.552 35.3854 375 34.8331 375L28 375C26.1312 375 24.3043 374.817 22.5365 374.467C21.9947 374.36 21.6424 373.834 21.7496 373.292ZM308.25 373.292C308.358 373.834 308.005 374.36 307.463 374.467C305.696 374.817 303.869 375 302 375L295.173 375C294.621 375 294.173 374.552 294.173 374C294.173 373.448 294.621 373 295.173 373L302 373C303.738 373 305.435 372.83 307.075 372.505C307.617 372.398 308.143 372.75 308.25 373.292ZM47.4995 374C47.4995 373.448 47.9472 373 48.4995 373L62.1659 373C62.7182 373 63.1659 373.448 63.1659 374C63.1659 374.552 62.7182 375 62.1659 375L48.4995 375C47.9472 375 47.4995 374.552 47.4995 374ZM74.8323 374C74.8323 373.448 75.28 373 75.8323 373L89.4987 373C90.0509 373 90.4987 373.448 90.4987 374C90.4987 374.552 90.0509 375 89.4987 375L75.8323 375C75.28 375 74.8323 374.552 74.8323 374ZM102.165 374C102.165 373.448 102.613 373 103.165 373L115.502 373C116.054 373 116.502 373.448 116.502 374C116.502 374.552 116.054 375 115.502 375L103.165 375C102.613 375 102.165 374.552 102.165 374ZM125.51 374C125.51 373.448 125.957 373 126.51 373L137.517 373C138.07 373 138.517 373.448 138.517 374C138.517 374.552 138.07 375 137.517 375L126.51 375C125.957 375 125.51 374.552 125.51 374ZM147.525 374C147.525 373.448 147.973 373 148.525 373L159.533 373C160.085 373 160.533 373.448 160.533 374C160.533 374.552 160.085 375 159.533 375L148.525 375C147.973 375 147.525 374.552 147.525 374ZM169.54 374C169.54 373.448 169.988 373 170.54 373L181.548 373C182.1 373 182.548 373.448 182.548 374C182.548 374.552 182.1 375 181.548 375L170.54 375C169.988 375 169.54 374.552 169.54 374ZM191.555 374C191.555 373.448 192.003 373 192.555 373L203.563 373C204.115 373 204.563 373.448 204.563 374C204.563 374.552 204.115 375 203.563 375L192.555 375C192.003 375 191.555 374.552 191.555 374ZM213.571 374C213.571 373.448 214.018 373 214.571 373L226.902 373C227.454 373 227.902 373.448 227.902 374C227.902 374.552 227.454 375 226.902 375L214.571 375C214.018 375 213.571 374.552 213.571 374ZM239.556 374C239.556 373.448 240.004 373 240.556 373L254.21 373C254.762 373 255.21 373.448 255.21 374C255.21 374.552 254.762 375 254.21 375L240.556 375C240.004 375 239.556 374.552 239.556 374ZM266.864 374C266.864 373.448 267.312 373 267.864 373L281.519 373C282.071 373 282.519 373.448 282.519 374C282.519 374.552 282.071 375 281.519 375L267.864 375C267.312 375 266.864 374.552 266.864 374Z" fill="url(#paint0_linear_919_6440)"/>
<defs>
<linearGradient id="paint0_linear_919_6440" x1="186.285" y1="318.466" x2="126.841" y2="18.1103" gradientUnits="userSpaceOnUse">
<stop stop-color="#AA9F8E" stop-opacity="0.35"/>
<stop offset="1" stop-color="#AA9F8E"/>
</linearGradient>
</defs>
</svg>
